M48
;DRILL file {PCBnew (2011-05-25)-stable} date Fri 22 Feb 2013 06:55:43 AM EST
;FORMAT={-:-/ absolute / inch / decimal}
FMAT,2
INCH,TZ
T1C0.032
T2C0.120
%
G90
G05
M72
T1
X0.150Y-1.368
X0.162Y-0.494
X0.208Y-1.620
X0.208Y-1.920
X0.212Y-0.652
X0.212Y-0.952
X0.250Y-1.368
X0.262Y-0.494
X0.350Y-1.368
X0.366Y-0.648
X0.366Y-0.948
X0.432Y-0.470
X0.440Y-1.708
X0.440Y-1.908
X0.450Y-1.368
X0.532Y-0.470
X0.550Y-1.368
X0.650Y-1.368
X0.698Y-1.624
X0.698Y-1.924
X0.722Y-0.360
X0.722Y-0.660
X0.738Y-0.890
X0.738Y-1.190
X0.798Y-1.624
X0.798Y-1.924
X0.822Y-0.360
X0.822Y-0.660
X0.838Y-0.890
X0.838Y-1.190
X0.838Y-1.384
X0.898Y-1.624
X0.898Y-1.924
X0.922Y-0.360
X0.922Y-0.660
X0.938Y-0.890
X0.938Y-1.190
X0.938Y-1.384
X0.998Y-1.624
X0.998Y-1.924
X1.022Y-0.360
X1.022Y-0.660
X1.038Y-0.890
X1.038Y-1.190
X1.258Y-0.388
X1.320Y-1.034
X1.356Y-0.696
X1.358Y-0.388
X1.358Y-0.488
X1.420Y-1.034
X1.420Y-1.304
X1.420Y-1.560
X1.456Y-0.696
X1.520Y-1.034
X1.520Y-1.304
X1.520Y-1.560
X1.612Y-0.524
X1.612Y-0.824
X1.620Y-1.034
X1.620Y-1.304
X1.620Y-1.560
T2
X0.108Y-0.194
X0.108Y-2.100
X1.722Y-0.194
X1.722Y-2.100
T0
M30
