G04 (created by PCBNEW-RS274X (2011-05-25)-stable) date Thu 03 Jan 2013 12:31:12 AM EST*
G01*
G70*
G90*
%MOIN*%
G04 Gerber Fmt 3.4, Leading zero omitted, Abs format*
%FSLAX34Y34*%
G04 APERTURE LIST*
%ADD10C,0.006000*%
%ADD11R,0.055000X0.055000*%
%ADD12C,0.055000*%
%ADD13R,0.062000X0.090000*%
%ADD14O,0.062000X0.090000*%
%ADD15C,0.070000*%
%ADD16C,0.015000*%
G04 APERTURE END LIST*
G54D10*
G54D11*
X51150Y-20000D03*
G54D12*
X51150Y-21000D03*
X52150Y-21000D03*
G54D11*
X22850Y-37200D03*
G54D12*
X23850Y-37200D03*
X24850Y-37200D03*
X25850Y-37200D03*
X26850Y-37200D03*
X27850Y-37200D03*
G54D11*
X52200Y-27550D03*
G54D12*
X51200Y-27550D03*
X50200Y-27550D03*
X49200Y-27550D03*
G54D11*
X52200Y-36600D03*
G54D12*
X51200Y-36600D03*
X50200Y-36600D03*
G54D11*
X52200Y-32250D03*
G54D12*
X51200Y-32250D03*
X50200Y-32250D03*
G54D11*
X22850Y-27250D03*
G54D12*
X23850Y-27250D03*
G54D11*
X56300Y-26700D03*
G54D12*
X57300Y-26700D03*
G54D13*
X35850Y-27800D03*
G54D14*
X36850Y-27800D03*
X37850Y-27800D03*
X38850Y-27800D03*
X38850Y-24800D03*
X37850Y-24800D03*
X36850Y-24800D03*
X35850Y-24800D03*
G54D13*
X35950Y-35650D03*
G54D14*
X36950Y-35650D03*
X37950Y-35650D03*
X38950Y-35650D03*
X38950Y-32650D03*
X37950Y-32650D03*
X36950Y-32650D03*
X35950Y-32650D03*
G54D13*
X35400Y-47050D03*
G54D14*
X36400Y-47050D03*
X37400Y-47050D03*
X38400Y-47050D03*
X38400Y-44050D03*
X37400Y-44050D03*
X36400Y-44050D03*
X35400Y-44050D03*
G54D12*
X35850Y-21000D03*
X35850Y-22000D03*
X25300Y-41750D03*
X22300Y-41750D03*
X53200Y-25350D03*
X50200Y-25350D03*
X52200Y-23550D03*
X49200Y-23550D03*
X57300Y-29500D03*
X57300Y-32500D03*
G54D15*
X34850Y-50250D03*
X36850Y-50250D03*
G54D11*
X37900Y-40000D03*
G54D12*
X36900Y-40000D03*
G54D16*
X50200Y-27550D02*
X50200Y-27450D01*
X37400Y-45500D02*
X37400Y-44050D01*
X37900Y-46000D02*
X37400Y-45500D01*
X37900Y-47950D02*
X37900Y-46000D01*
X40750Y-50800D02*
X37900Y-47950D01*
X46450Y-50800D02*
X40750Y-50800D01*
X59250Y-38000D02*
X46450Y-50800D01*
X59250Y-32400D02*
X59250Y-38000D01*
X58650Y-31800D02*
X59250Y-32400D01*
X56300Y-31800D02*
X58650Y-31800D01*
X55150Y-32950D02*
X56300Y-31800D01*
X55150Y-35700D02*
X55150Y-32950D01*
X53650Y-37200D02*
X55150Y-35700D01*
X51900Y-37200D02*
X53650Y-37200D01*
X51678Y-36978D02*
X51900Y-37200D01*
X51678Y-33772D02*
X51678Y-36978D01*
X51700Y-33750D02*
X51678Y-33772D01*
X51700Y-27150D02*
X51700Y-33750D01*
X51400Y-26850D02*
X51700Y-27150D01*
X50800Y-26850D02*
X51400Y-26850D01*
X50200Y-27450D02*
X50800Y-26850D01*
X50200Y-25350D02*
X50200Y-27550D01*
X36850Y-24800D02*
X36850Y-25350D01*
X48850Y-28900D02*
X50200Y-27550D01*
X47650Y-28900D02*
X48850Y-28900D01*
X45700Y-26950D02*
X47650Y-28900D01*
X38450Y-26950D02*
X45700Y-26950D01*
X36850Y-25350D02*
X38450Y-26950D01*
X37400Y-44050D02*
X37400Y-39050D01*
X37400Y-39050D02*
X34900Y-36550D01*
X34900Y-36550D02*
X34900Y-35150D01*
X34900Y-35150D02*
X36450Y-33600D01*
X36450Y-33600D02*
X36450Y-32100D01*
X36450Y-32100D02*
X36200Y-31850D01*
X36200Y-31850D02*
X36200Y-31750D01*
X36200Y-31750D02*
X35950Y-31500D01*
X27850Y-37200D02*
X27850Y-35100D01*
X36800Y-31500D02*
X37950Y-32650D01*
X31450Y-31500D02*
X35950Y-31500D01*
X35950Y-31500D02*
X36800Y-31500D01*
X27850Y-35100D02*
X31450Y-31500D01*
X25850Y-37200D02*
X25850Y-37250D01*
X38100Y-25550D02*
X38850Y-24800D01*
X37700Y-25550D02*
X38100Y-25550D01*
X37350Y-25200D02*
X37700Y-25550D01*
X37350Y-24200D02*
X37350Y-25200D01*
X37050Y-23900D02*
X37350Y-24200D01*
X36550Y-23900D02*
X37050Y-23900D01*
X36350Y-24100D02*
X36550Y-23900D01*
X36350Y-25250D02*
X36350Y-24100D01*
X35900Y-25700D02*
X36350Y-25250D01*
X34950Y-25700D02*
X35900Y-25700D01*
X33950Y-24700D02*
X34950Y-25700D01*
X33950Y-22950D02*
X33950Y-24700D01*
X35400Y-21500D02*
X33950Y-22950D01*
X35994Y-21500D02*
X35400Y-21500D01*
X36322Y-21172D02*
X35994Y-21500D01*
X36322Y-20772D02*
X36322Y-21172D01*
X36050Y-20500D02*
X36322Y-20772D01*
X27900Y-20500D02*
X36050Y-20500D01*
X23350Y-25050D02*
X27900Y-20500D01*
X23350Y-26000D02*
X23350Y-25050D01*
X23350Y-28050D02*
X23350Y-26000D01*
X23350Y-37700D02*
X23350Y-28050D01*
X23950Y-38300D02*
X23350Y-37700D01*
X24800Y-38300D02*
X23950Y-38300D01*
X25850Y-37250D02*
X24800Y-38300D01*
X38850Y-24800D02*
X47950Y-24800D01*
X47950Y-24800D02*
X49200Y-23550D01*
X49200Y-23550D02*
X49200Y-27550D01*
X38950Y-32650D02*
X39000Y-32650D01*
X40750Y-41700D02*
X38400Y-44050D01*
X40750Y-34400D02*
X40750Y-41700D01*
X39000Y-32650D02*
X40750Y-34400D01*
X25850Y-37200D02*
X25850Y-34600D01*
X36750Y-30450D02*
X38950Y-32650D01*
X30000Y-30450D02*
X36750Y-30450D01*
X25850Y-34600D02*
X30000Y-30450D01*
X51150Y-21000D02*
X51200Y-21000D01*
X25300Y-46650D02*
X25300Y-41750D01*
X30700Y-52050D02*
X25300Y-46650D01*
X46450Y-52050D02*
X30700Y-52050D01*
X60050Y-38450D02*
X46450Y-52050D01*
X60050Y-23900D02*
X60050Y-38450D01*
X55700Y-19550D02*
X60050Y-23900D01*
X52650Y-19550D02*
X55700Y-19550D01*
X51200Y-21000D02*
X52650Y-19550D01*
X51150Y-21000D02*
X41650Y-21000D01*
X41650Y-21000D02*
X37850Y-24800D01*
X37400Y-47050D02*
X37400Y-46500D01*
X37400Y-46500D02*
X36400Y-45500D01*
X36400Y-45500D02*
X29050Y-45500D01*
X29050Y-45500D02*
X25300Y-41750D01*
X25300Y-41750D02*
X25600Y-41750D01*
X25600Y-41750D02*
X26850Y-40500D01*
X26850Y-40500D02*
X26850Y-37200D01*
X37900Y-40000D02*
X37900Y-35700D01*
X37900Y-35700D02*
X37950Y-35650D01*
X35850Y-27800D02*
X28800Y-27800D01*
X24850Y-31750D02*
X24850Y-37200D01*
X28800Y-27800D02*
X24850Y-31750D01*
X36850Y-27800D02*
X36850Y-28350D01*
X45100Y-36600D02*
X50200Y-36600D01*
X36850Y-28350D02*
X45100Y-36600D01*
X37850Y-27800D02*
X37850Y-28350D01*
X41750Y-32250D02*
X50200Y-32250D01*
X37850Y-28350D02*
X41750Y-32250D01*
X52200Y-23550D02*
X52200Y-24350D01*
X52200Y-24350D02*
X53200Y-25350D01*
X53200Y-25350D02*
X53200Y-26550D01*
X53200Y-26550D02*
X52200Y-27550D01*
X52150Y-21000D02*
X52150Y-23500D01*
X52150Y-23500D02*
X52200Y-23550D01*
X52200Y-32250D02*
X52200Y-36600D01*
X52200Y-27550D02*
X52200Y-32250D01*
X52200Y-27550D02*
X55450Y-27550D01*
X55450Y-27550D02*
X56300Y-26700D01*
X36950Y-35650D02*
X36950Y-35400D01*
X38050Y-34750D02*
X38950Y-35650D01*
X37600Y-34750D02*
X38050Y-34750D01*
X36950Y-35400D02*
X37600Y-34750D01*
X57300Y-32500D02*
X57300Y-38300D01*
X40800Y-49450D02*
X38400Y-47050D01*
X46150Y-49450D02*
X40800Y-49450D01*
X57300Y-38300D02*
X46150Y-49450D01*
X38950Y-35650D02*
X38950Y-42200D01*
X38950Y-42200D02*
X37900Y-43250D01*
X37900Y-43250D02*
X37900Y-44950D01*
X37900Y-44950D02*
X38400Y-45450D01*
X38400Y-45450D02*
X38400Y-47050D01*
X35850Y-21000D02*
X34000Y-21000D01*
X37400Y-26350D02*
X38850Y-27800D01*
X34200Y-26350D02*
X37400Y-26350D01*
X33050Y-25200D02*
X34200Y-26350D01*
X33050Y-21950D02*
X33050Y-25200D01*
X34000Y-21000D02*
X33050Y-21950D01*
X38400Y-47050D02*
X45750Y-47050D01*
X45750Y-47050D02*
X52700Y-40100D01*
X52700Y-40100D02*
X52700Y-37800D01*
X38850Y-27800D02*
X43800Y-27800D01*
X43800Y-27800D02*
X46500Y-30500D01*
X46500Y-30500D02*
X51200Y-30500D01*
X36950Y-32650D02*
X36950Y-35650D01*
X35950Y-35650D02*
X36950Y-35650D01*
X23850Y-27250D02*
X23850Y-37200D01*
X23850Y-27250D02*
X23850Y-25350D01*
X28200Y-21000D02*
X35850Y-21000D01*
X23850Y-25350D02*
X28200Y-21000D01*
X51200Y-36600D02*
X51200Y-37200D01*
X51200Y-37200D02*
X51800Y-37800D01*
X51800Y-37800D02*
X52700Y-37800D01*
X51200Y-32250D02*
X51200Y-30500D01*
X51200Y-30500D02*
X51200Y-27550D01*
X51200Y-36600D02*
X51200Y-32250D01*
X35400Y-47050D02*
X35400Y-49700D01*
X35400Y-49700D02*
X34850Y-50250D01*
X36400Y-47050D02*
X36400Y-49800D01*
X36400Y-49800D02*
X36850Y-50250D01*
X57300Y-26700D02*
X57300Y-29500D01*
X36900Y-40000D02*
X36900Y-40200D01*
X36900Y-40200D02*
X35400Y-41700D01*
X35400Y-44050D02*
X32250Y-44050D01*
X26350Y-37550D02*
X22850Y-41050D01*
X26350Y-36950D02*
X26350Y-37550D01*
X26650Y-36650D02*
X26350Y-36950D01*
X27150Y-36650D02*
X26650Y-36650D01*
X27350Y-36850D02*
X27150Y-36650D01*
X27350Y-39150D02*
X27350Y-36850D01*
X32250Y-44050D02*
X27350Y-39150D01*
X22850Y-37200D02*
X22850Y-41050D01*
X22850Y-41050D02*
X22850Y-41200D01*
X22850Y-41200D02*
X22300Y-41750D01*
X37850Y-20000D02*
X27850Y-20000D01*
X22850Y-25000D02*
X22850Y-27250D01*
X27850Y-20000D02*
X22850Y-25000D01*
X35400Y-44050D02*
X35400Y-41700D01*
X35400Y-41700D02*
X35400Y-40300D01*
X33750Y-34850D02*
X35950Y-32650D01*
X33750Y-38650D02*
X33750Y-34850D01*
X35400Y-40300D02*
X33750Y-38650D01*
X51150Y-20000D02*
X37850Y-20000D01*
X37850Y-20000D02*
X35850Y-22000D01*
X22850Y-27250D02*
X22850Y-37200D01*
X35850Y-24800D02*
X35850Y-22000D01*
M02*
