M48
;DRILL file {PCBnew (2011-05-25)-stable} date Wed 26 Dec 2012 11:21:46 PM EST
;FORMAT={-:-/ absolute / inch / decimal}
FMAT,2
INCH,TZ
T1C0.032
%
G90
G05
M72
T1
X2.230Y4.175
X2.285Y2.725
X2.285Y3.720
X2.385Y2.725
X2.385Y3.720
X2.485Y3.720
X2.530Y4.175
X2.585Y3.720
X2.685Y3.720
X2.785Y3.720
X3.485Y5.025
X3.540Y4.405
X3.540Y4.705
X3.585Y2.100
X3.585Y2.200
X3.585Y2.480
X3.585Y2.780
X3.595Y3.265
X3.595Y3.565
X3.640Y4.405
X3.640Y4.705
X3.685Y2.480
X3.685Y2.780
X3.685Y5.025
X3.695Y3.265
X3.695Y3.565
X3.740Y4.405
X3.740Y4.705
X3.785Y2.480
X3.785Y2.780
X3.795Y3.265
X3.795Y3.565
X3.840Y4.405
X3.840Y4.705
X3.885Y2.480
X3.885Y2.780
X3.895Y3.265
X3.895Y3.565
X4.920Y2.355
X4.920Y2.755
X5.020Y2.535
X5.020Y2.755
X5.020Y3.225
X5.020Y3.660
X5.115Y2.000
X5.115Y2.100
X5.120Y2.755
X5.120Y3.225
X5.120Y3.660
X5.215Y2.100
X5.220Y2.355
X5.220Y2.755
X5.220Y3.225
X5.220Y3.660
X5.320Y2.535
X5.630Y2.670
X5.730Y2.670
X5.730Y2.950
X5.730Y3.250
T0
M30
