G04 (created by PCBNEW-RS274X (2011-05-25)-stable) date Wed 26 Dec 2012 11:21:47 PM EST*
G01*
G70*
G90*
%MOIN*%
G04 Gerber Fmt 3.4, Leading zero omitted, Abs format*
%FSLAX34Y34*%
G04 APERTURE LIST*
%ADD10C,0.006000*%
%ADD11R,0.055000X0.055000*%
%ADD12C,0.055000*%
%ADD13R,0.062000X0.090000*%
%ADD14O,0.062000X0.090000*%
%ADD15C,0.070000*%
G04 APERTURE END LIST*
G54D10*
G54D11*
X51150Y-20000D03*
G54D12*
X51150Y-21000D03*
X52150Y-21000D03*
G54D11*
X22850Y-37200D03*
G54D12*
X23850Y-37200D03*
X24850Y-37200D03*
X25850Y-37200D03*
X26850Y-37200D03*
X27850Y-37200D03*
G54D11*
X52200Y-27550D03*
G54D12*
X51200Y-27550D03*
X50200Y-27550D03*
X49200Y-27550D03*
G54D11*
X52200Y-36600D03*
G54D12*
X51200Y-36600D03*
X50200Y-36600D03*
G54D11*
X52200Y-32250D03*
G54D12*
X51200Y-32250D03*
X50200Y-32250D03*
G54D11*
X22850Y-27250D03*
G54D12*
X23850Y-27250D03*
G54D11*
X56300Y-26700D03*
G54D12*
X57300Y-26700D03*
G54D13*
X35850Y-27800D03*
G54D14*
X36850Y-27800D03*
X37850Y-27800D03*
X38850Y-27800D03*
X38850Y-24800D03*
X37850Y-24800D03*
X36850Y-24800D03*
X35850Y-24800D03*
G54D13*
X35950Y-35650D03*
G54D14*
X36950Y-35650D03*
X37950Y-35650D03*
X38950Y-35650D03*
X38950Y-32650D03*
X37950Y-32650D03*
X36950Y-32650D03*
X35950Y-32650D03*
G54D13*
X35400Y-47050D03*
G54D14*
X36400Y-47050D03*
X37400Y-47050D03*
X38400Y-47050D03*
X38400Y-44050D03*
X37400Y-44050D03*
X36400Y-44050D03*
X35400Y-44050D03*
G54D12*
X35850Y-21000D03*
X35850Y-22000D03*
X25300Y-41750D03*
X22300Y-41750D03*
X53200Y-25350D03*
X50200Y-25350D03*
X52200Y-23550D03*
X49200Y-23550D03*
X57300Y-29500D03*
X57300Y-32500D03*
G54D15*
X34850Y-50250D03*
X36850Y-50250D03*
M02*
