G04 (created by PCBNEW-RS274X (2011-05-25)-stable) date Fri 01 Feb 2013 07:59:22 AM EST*
G01*
G70*
G90*
%MOIN*%
G04 Gerber Fmt 3.4, Leading zero omitted, Abs format*
%FSLAX34Y34*%
G04 APERTURE LIST*
%ADD10C,0.006000*%
%ADD11R,0.055000X0.055000*%
%ADD12C,0.055000*%
%ADD13C,0.070000*%
%ADD14R,0.062000X0.090000*%
%ADD15O,0.062000X0.090000*%
%ADD16C,0.015000*%
%ADD17C,0.010000*%
G04 APERTURE END LIST*
G54D10*
G54D11*
X01450Y-09400D03*
G54D12*
X02450Y-09400D03*
X03450Y-09400D03*
X04450Y-09400D03*
X05450Y-09400D03*
X06450Y-09400D03*
G54D11*
X16450Y-08500D03*
G54D12*
X15450Y-08500D03*
X14450Y-08500D03*
X13450Y-08500D03*
G54D11*
X16450Y-12450D03*
G54D12*
X15450Y-12450D03*
X14450Y-12450D03*
G54D11*
X16450Y-10450D03*
G54D12*
X15450Y-10450D03*
X14450Y-10450D03*
G54D11*
X01450Y-05550D03*
G54D12*
X02450Y-05550D03*
G54D11*
X10550Y-15300D03*
G54D12*
X09550Y-15300D03*
X07280Y-03680D03*
X07280Y-06680D03*
X04540Y-03660D03*
X04540Y-06660D03*
X04450Y-12600D03*
X01450Y-12600D03*
X16450Y-02450D03*
X16450Y-05450D03*
G54D11*
X13800Y-02450D03*
G54D12*
X14800Y-02450D03*
G54D13*
X04200Y-18150D03*
X04200Y-16150D03*
G54D14*
X09000Y-07460D03*
G54D15*
X10000Y-07460D03*
X11000Y-07460D03*
X12000Y-07460D03*
X12000Y-04460D03*
X11000Y-04460D03*
X10000Y-04460D03*
X09000Y-04460D03*
G54D14*
X08550Y-13300D03*
G54D15*
X09550Y-13300D03*
X10550Y-13300D03*
X11550Y-13300D03*
X11550Y-10300D03*
X10550Y-10300D03*
X09550Y-10300D03*
X08550Y-10300D03*
G54D14*
X07850Y-20400D03*
G54D15*
X08850Y-20400D03*
X09850Y-20400D03*
X10850Y-20400D03*
X10850Y-17400D03*
X09850Y-17400D03*
X08850Y-17400D03*
X07850Y-17400D03*
G54D12*
X06100Y-01850D03*
X06100Y-02850D03*
G54D11*
X11820Y-02480D03*
G54D12*
X11820Y-01480D03*
X10820Y-01480D03*
G54D16*
X14460Y-07750D02*
X14460Y-05160D01*
X10240Y-05140D02*
X10000Y-05380D01*
X11280Y-05140D02*
X10240Y-05140D01*
X11500Y-04920D02*
X11280Y-05140D01*
X11500Y-03820D02*
X11500Y-04920D01*
X11880Y-03440D02*
X11500Y-03820D01*
X12740Y-03440D02*
X11880Y-03440D01*
X14460Y-05160D02*
X12740Y-03440D01*
X04540Y-06660D02*
X06040Y-06660D01*
X06040Y-06660D02*
X07140Y-05560D01*
X07140Y-05560D02*
X09820Y-05560D01*
X09820Y-05560D02*
X10000Y-05380D01*
X10000Y-05380D02*
X10000Y-04460D01*
X14450Y-07750D02*
X14460Y-07750D01*
X14460Y-07750D02*
X15600Y-07750D01*
X09850Y-18500D02*
X09850Y-17400D01*
X10350Y-19000D02*
X09850Y-18500D01*
X10350Y-20750D02*
X10350Y-19000D01*
X10650Y-21050D02*
X10350Y-20750D01*
X13450Y-21050D02*
X10650Y-21050D01*
X18200Y-16300D02*
X13450Y-21050D01*
X18200Y-04000D02*
X18200Y-16300D01*
X17200Y-03000D02*
X18200Y-04000D01*
X15800Y-03000D02*
X17200Y-03000D01*
X15500Y-03300D02*
X15800Y-03000D01*
X15500Y-05850D02*
X15500Y-03300D01*
X17100Y-07450D02*
X15500Y-05850D01*
X17100Y-13000D02*
X17100Y-07450D01*
X16900Y-13200D02*
X17100Y-13000D01*
X15950Y-13200D02*
X16900Y-13200D01*
X15950Y-08100D02*
X15950Y-13200D01*
X15600Y-07750D02*
X15950Y-08100D01*
X14450Y-07750D02*
X14450Y-08500D01*
X09050Y-09400D02*
X09050Y-11250D01*
X09050Y-11250D02*
X07600Y-12700D01*
X07600Y-12700D02*
X07600Y-13500D01*
X07600Y-13500D02*
X08600Y-14500D01*
X08600Y-14500D02*
X09500Y-14500D01*
X09500Y-14500D02*
X10050Y-15050D01*
X10050Y-15050D02*
X10050Y-16300D01*
X10050Y-16300D02*
X09850Y-16500D01*
X09850Y-16500D02*
X09850Y-17400D01*
X06450Y-09400D02*
X09050Y-09400D01*
X09050Y-09400D02*
X09650Y-09400D01*
X09650Y-09400D02*
X10550Y-10300D01*
X07280Y-06680D02*
X06460Y-06680D01*
X04450Y-10050D02*
X04450Y-09400D01*
X04160Y-10340D02*
X04450Y-10050D01*
X02300Y-10340D02*
X04160Y-10340D01*
X01960Y-10000D02*
X02300Y-10340D01*
X01960Y-03880D02*
X01960Y-10000D01*
X04488Y-01352D02*
X01960Y-03880D01*
X06392Y-01352D02*
X04488Y-01352D01*
X06680Y-01640D02*
X06392Y-01352D01*
X06680Y-02120D02*
X06680Y-01640D01*
X06440Y-02360D02*
X06680Y-02120D01*
X05020Y-02360D02*
X06440Y-02360D01*
X03880Y-03500D02*
X05020Y-02360D01*
X03880Y-06760D02*
X03880Y-03500D01*
X04300Y-07180D02*
X03880Y-06760D01*
X05960Y-07180D02*
X04300Y-07180D01*
X06460Y-06680D02*
X05960Y-07180D01*
X07280Y-06680D02*
X07560Y-06680D01*
X12000Y-05400D02*
X12000Y-04460D01*
X11440Y-05960D02*
X12000Y-05400D01*
X08280Y-05960D02*
X11440Y-05960D01*
X07560Y-06680D02*
X08280Y-05960D01*
X12000Y-04460D02*
X12980Y-04460D01*
X13450Y-04930D02*
X13450Y-08500D01*
X12980Y-04460D02*
X13450Y-04930D01*
X10850Y-17400D02*
X11350Y-17400D01*
X12850Y-11600D02*
X11550Y-10300D01*
X12850Y-15900D02*
X12850Y-11600D01*
X11350Y-17400D02*
X12850Y-15900D01*
X04450Y-09400D02*
X04450Y-08900D01*
X11550Y-10250D02*
X11550Y-10300D01*
X10300Y-09000D02*
X11550Y-10250D01*
X07850Y-09000D02*
X10300Y-09000D01*
X07250Y-08400D02*
X07850Y-09000D01*
X04950Y-08400D02*
X07250Y-08400D01*
X04450Y-08900D02*
X04950Y-08400D01*
X11000Y-04460D02*
X11000Y-02300D01*
X11000Y-02300D02*
X11820Y-01480D01*
X11820Y-01480D02*
X16320Y-01480D01*
X09850Y-21430D02*
X09850Y-20400D01*
X10060Y-21640D02*
X09850Y-21430D01*
X13600Y-21640D02*
X10060Y-21640D01*
X18660Y-16580D02*
X13600Y-21640D01*
X18660Y-03820D02*
X18660Y-16580D01*
X16320Y-01480D02*
X18660Y-03820D01*
X04450Y-12600D02*
X04450Y-14800D01*
X04450Y-14800D02*
X06800Y-17150D01*
X06800Y-17150D02*
X06800Y-17600D01*
X06800Y-17600D02*
X07900Y-18700D01*
X07900Y-18700D02*
X08600Y-18700D01*
X08600Y-18700D02*
X09850Y-19950D01*
X09850Y-19950D02*
X09850Y-20400D01*
X05450Y-09400D02*
X05450Y-11600D01*
X05450Y-11600D02*
X04450Y-12600D01*
X10550Y-13300D02*
X10550Y-15300D01*
X09000Y-07460D02*
X08760Y-07460D01*
X03450Y-08450D02*
X03450Y-09400D01*
X03860Y-08040D02*
X03450Y-08450D01*
X08180Y-08040D02*
X03860Y-08040D01*
X08760Y-07460D02*
X08180Y-08040D01*
X10000Y-07460D02*
X10000Y-08160D01*
X13530Y-12450D02*
X14450Y-12450D01*
X13260Y-12180D02*
X13530Y-12450D01*
X13260Y-11500D02*
X13260Y-12180D01*
X12220Y-10460D02*
X13260Y-11500D01*
X12220Y-09940D02*
X12220Y-10460D01*
X11720Y-09440D02*
X12220Y-09940D01*
X11280Y-09440D02*
X11720Y-09440D01*
X10000Y-08160D02*
X11280Y-09440D01*
X11000Y-07460D02*
X11000Y-08560D01*
X12970Y-10450D02*
X14450Y-10450D01*
X12640Y-10120D02*
X12970Y-10450D01*
X12640Y-09920D02*
X12640Y-10120D01*
X11820Y-09100D02*
X12640Y-09920D01*
X11540Y-09100D02*
X11820Y-09100D01*
X11000Y-08560D02*
X11540Y-09100D01*
X16450Y-08500D02*
X16450Y-10450D01*
X13800Y-02450D02*
X13800Y-02520D01*
X16450Y-07450D02*
X16450Y-08500D01*
X15140Y-06140D02*
X16450Y-07450D01*
X15140Y-03860D02*
X15140Y-06140D01*
X13800Y-02520D02*
X15140Y-03860D01*
X11820Y-02480D02*
X13770Y-02480D01*
X13770Y-02480D02*
X13800Y-02450D01*
X16450Y-10450D02*
X16450Y-12450D01*
X12000Y-07460D02*
X12000Y-07340D01*
X02450Y-06070D02*
X02450Y-05550D01*
X04000Y-07620D02*
X02450Y-06070D01*
X07420Y-07620D02*
X04000Y-07620D01*
X08420Y-06620D02*
X07420Y-07620D01*
X11280Y-06620D02*
X08420Y-06620D01*
X12000Y-07340D02*
X11280Y-06620D01*
X12000Y-07460D02*
X12000Y-08740D01*
X14880Y-09880D02*
X15450Y-10450D01*
X13140Y-09880D02*
X14880Y-09880D01*
X12000Y-08740D02*
X13140Y-09880D01*
X16450Y-05450D02*
X17900Y-06900D01*
X17900Y-16100D02*
X16375Y-17625D01*
X17900Y-06900D02*
X17900Y-16100D01*
X15450Y-12450D02*
X15450Y-16700D01*
X15450Y-16700D02*
X16375Y-17625D01*
X13600Y-20400D02*
X10850Y-20400D01*
X16375Y-17625D02*
X13600Y-20400D01*
X11550Y-13300D02*
X11550Y-15400D01*
X10850Y-18700D02*
X10850Y-20400D01*
X10350Y-18200D02*
X10850Y-18700D01*
X10350Y-16600D02*
X10350Y-18200D01*
X11550Y-15400D02*
X10350Y-16600D01*
X09550Y-13300D02*
X09550Y-13050D01*
X11550Y-12850D02*
X11550Y-13300D01*
X11000Y-12300D02*
X11550Y-12850D01*
X10300Y-12300D02*
X11000Y-12300D01*
X09550Y-13050D02*
X10300Y-12300D01*
X08550Y-13300D02*
X09550Y-13300D01*
X09550Y-10300D02*
X09550Y-13300D01*
X15450Y-10450D02*
X15450Y-12450D01*
X15450Y-08500D02*
X15450Y-10450D01*
X02450Y-05550D02*
X02450Y-04000D01*
X04600Y-01850D02*
X06100Y-01850D01*
X02450Y-04000D02*
X04600Y-01850D01*
X02450Y-05550D02*
X02450Y-06650D01*
X02450Y-06650D02*
X02450Y-09400D01*
X04200Y-18150D02*
X04200Y-19050D01*
X05550Y-20400D02*
X07850Y-20400D01*
X04200Y-19050D02*
X05550Y-20400D01*
X04200Y-16150D02*
X04200Y-16600D01*
X08850Y-19700D02*
X08850Y-20400D01*
X08200Y-19050D02*
X08850Y-19700D01*
X06650Y-19050D02*
X08200Y-19050D01*
X04200Y-16600D02*
X06650Y-19050D01*
X14800Y-02450D02*
X16450Y-02450D01*
X06100Y-02850D02*
X06450Y-02850D01*
X06450Y-02850D02*
X07280Y-03680D01*
X04540Y-03660D02*
X05290Y-03660D01*
X05290Y-03660D02*
X06100Y-02850D01*
X09000Y-04460D02*
X09000Y-03680D01*
X08170Y-02850D02*
X06900Y-02850D01*
X09000Y-03680D02*
X08170Y-02850D01*
X10820Y-01480D02*
X08330Y-01480D01*
X08330Y-01480D02*
X08300Y-01450D01*
X01450Y-12600D02*
X02050Y-12600D01*
X05950Y-10500D02*
X06800Y-11350D01*
X05950Y-09200D02*
X05950Y-10500D01*
X05600Y-08850D02*
X05950Y-09200D01*
X05200Y-08850D02*
X05600Y-08850D01*
X04950Y-09100D02*
X05200Y-08850D01*
X04950Y-10600D02*
X04950Y-09100D01*
X04200Y-11350D02*
X04950Y-10600D01*
X03300Y-11350D02*
X04200Y-11350D01*
X02050Y-12600D02*
X03300Y-11350D01*
X01450Y-05550D02*
X01450Y-03700D01*
X07950Y-01100D02*
X08300Y-01450D01*
X04050Y-01100D02*
X07950Y-01100D01*
X01450Y-03700D02*
X04050Y-01100D01*
X06100Y-02850D02*
X06900Y-02850D01*
X06900Y-02850D02*
X08300Y-01450D01*
X08550Y-10300D02*
X07800Y-10300D01*
X07800Y-10300D02*
X06800Y-11300D01*
X06800Y-11300D02*
X06800Y-11350D01*
X06800Y-15350D02*
X07850Y-16400D01*
X06800Y-11350D02*
X06800Y-15350D01*
X07850Y-17400D02*
X07850Y-16400D01*
X07850Y-16400D02*
X07850Y-16250D01*
X08800Y-15300D02*
X09550Y-15300D01*
X07850Y-16250D02*
X08800Y-15300D01*
X01450Y-09400D02*
X01450Y-12600D01*
X01450Y-09400D02*
X01450Y-05550D01*
G54D10*
G36*
X07465Y-09075D02*
X06867Y-09075D01*
X06748Y-08955D01*
X06555Y-08875D01*
X06346Y-08875D01*
X06153Y-08955D01*
X06005Y-09102D01*
X05949Y-09235D01*
X05895Y-09103D01*
X05748Y-08955D01*
X05555Y-08875D01*
X05346Y-08875D01*
X05153Y-08955D01*
X05005Y-09102D01*
X04949Y-09235D01*
X04895Y-09103D01*
X04801Y-09008D01*
X05085Y-08725D01*
X07115Y-08725D01*
X07465Y-09075D01*
X07465Y-09075D01*
G37*
G54D17*
X07465Y-09075D02*
X06867Y-09075D01*
X06748Y-08955D01*
X06555Y-08875D01*
X06346Y-08875D01*
X06153Y-08955D01*
X06005Y-09102D01*
X05949Y-09235D01*
X05895Y-09103D01*
X05748Y-08955D01*
X05555Y-08875D01*
X05346Y-08875D01*
X05153Y-08955D01*
X05005Y-09102D01*
X04949Y-09235D01*
X04895Y-09103D01*
X04801Y-09008D01*
X05085Y-08725D01*
X07115Y-08725D01*
X07465Y-09075D01*
G54D10*
G36*
X10025Y-19665D02*
X08830Y-18470D01*
X08724Y-18400D01*
X08600Y-18375D01*
X08034Y-18375D01*
X07731Y-18072D01*
X07800Y-18035D01*
X07800Y-17450D01*
X07800Y-17350D01*
X07800Y-16765D01*
X07713Y-16718D01*
X07654Y-16735D01*
X07468Y-16850D01*
X07340Y-17027D01*
X07290Y-17240D01*
X07290Y-17350D01*
X07800Y-17350D01*
X07800Y-17450D01*
X07290Y-17450D01*
X07290Y-17560D01*
X07311Y-17651D01*
X07125Y-17465D01*
X07125Y-17150D01*
X07100Y-17026D01*
X07100Y-17025D01*
X07030Y-16920D01*
X04775Y-14665D01*
X04775Y-13017D01*
X04895Y-12898D01*
X04975Y-12705D01*
X04975Y-12535D01*
X05680Y-11830D01*
X05750Y-11725D01*
X05750Y-11724D01*
X05775Y-11600D01*
X05775Y-09817D01*
X05895Y-09698D01*
X05950Y-09564D01*
X06005Y-09697D01*
X06152Y-09845D01*
X06345Y-09925D01*
X06554Y-09925D01*
X06747Y-09845D01*
X06867Y-09725D01*
X08208Y-09725D01*
X08168Y-09750D01*
X08040Y-09927D01*
X07990Y-10140D01*
X07990Y-10250D01*
X08450Y-10250D01*
X08500Y-10250D01*
X08600Y-10250D01*
X08600Y-10350D01*
X08600Y-10400D01*
X08600Y-10935D01*
X08687Y-10982D01*
X08725Y-10971D01*
X08725Y-11115D01*
X08500Y-11340D01*
X08500Y-10935D01*
X08500Y-10350D01*
X07990Y-10350D01*
X07990Y-10460D01*
X08040Y-10673D01*
X08168Y-10850D01*
X08354Y-10965D01*
X08413Y-10982D01*
X08500Y-10935D01*
X08500Y-11340D01*
X07370Y-12470D01*
X07300Y-12576D01*
X07275Y-12700D01*
X07275Y-13500D01*
X07300Y-13624D01*
X07370Y-13730D01*
X08370Y-14730D01*
X08475Y-14800D01*
X08476Y-14800D01*
X08600Y-14825D01*
X09339Y-14825D01*
X09283Y-14848D01*
X09260Y-14939D01*
X09515Y-15194D01*
X09550Y-15229D01*
X09621Y-15300D01*
X09550Y-15371D01*
X09515Y-15406D01*
X09479Y-15442D01*
X09479Y-15300D01*
X09189Y-15010D01*
X09098Y-15033D01*
X09031Y-15226D01*
X09042Y-15430D01*
X09098Y-15567D01*
X09189Y-15590D01*
X09479Y-15300D01*
X09479Y-15442D01*
X09260Y-15661D01*
X09283Y-15752D01*
X09476Y-15819D01*
X09680Y-15808D01*
X09725Y-15789D01*
X09725Y-16165D01*
X09620Y-16270D01*
X09550Y-16376D01*
X09525Y-16500D01*
X09525Y-16796D01*
X09385Y-16936D01*
X09350Y-17020D01*
X09315Y-16936D01*
X09161Y-16782D01*
X08959Y-16698D01*
X08741Y-16698D01*
X08539Y-16782D01*
X08385Y-16936D01*
X08351Y-17015D01*
X08232Y-16850D01*
X08046Y-16735D01*
X07987Y-16718D01*
X07900Y-16765D01*
X07900Y-17300D01*
X07900Y-17350D01*
X07900Y-17450D01*
X07900Y-17500D01*
X07900Y-18035D01*
X07987Y-18082D01*
X08046Y-18065D01*
X08232Y-17950D01*
X08351Y-17784D01*
X08385Y-17864D01*
X08539Y-18018D01*
X08741Y-18102D01*
X08959Y-18102D01*
X09161Y-18018D01*
X09315Y-17864D01*
X09350Y-17779D01*
X09385Y-17864D01*
X09525Y-18004D01*
X09525Y-18500D01*
X09550Y-18624D01*
X09620Y-18730D01*
X10025Y-19135D01*
X10025Y-19665D01*
X10025Y-19665D01*
G37*
G54D17*
X10025Y-19665D02*
X08830Y-18470D01*
X08724Y-18400D01*
X08600Y-18375D01*
X08034Y-18375D01*
X07731Y-18072D01*
X07800Y-18035D01*
X07800Y-17450D01*
X07800Y-17350D01*
X07800Y-16765D01*
X07713Y-16718D01*
X07654Y-16735D01*
X07468Y-16850D01*
X07340Y-17027D01*
X07290Y-17240D01*
X07290Y-17350D01*
X07800Y-17350D01*
X07800Y-17450D01*
X07290Y-17450D01*
X07290Y-17560D01*
X07311Y-17651D01*
X07125Y-17465D01*
X07125Y-17150D01*
X07100Y-17026D01*
X07100Y-17025D01*
X07030Y-16920D01*
X04775Y-14665D01*
X04775Y-13017D01*
X04895Y-12898D01*
X04975Y-12705D01*
X04975Y-12535D01*
X05680Y-11830D01*
X05750Y-11725D01*
X05750Y-11724D01*
X05775Y-11600D01*
X05775Y-09817D01*
X05895Y-09698D01*
X05950Y-09564D01*
X06005Y-09697D01*
X06152Y-09845D01*
X06345Y-09925D01*
X06554Y-09925D01*
X06747Y-09845D01*
X06867Y-09725D01*
X08208Y-09725D01*
X08168Y-09750D01*
X08040Y-09927D01*
X07990Y-10140D01*
X07990Y-10250D01*
X08450Y-10250D01*
X08500Y-10250D01*
X08600Y-10250D01*
X08600Y-10350D01*
X08600Y-10400D01*
X08600Y-10935D01*
X08687Y-10982D01*
X08725Y-10971D01*
X08725Y-11115D01*
X08500Y-11340D01*
X08500Y-10935D01*
X08500Y-10350D01*
X07990Y-10350D01*
X07990Y-10460D01*
X08040Y-10673D01*
X08168Y-10850D01*
X08354Y-10965D01*
X08413Y-10982D01*
X08500Y-10935D01*
X08500Y-11340D01*
X07370Y-12470D01*
X07300Y-12576D01*
X07275Y-12700D01*
X07275Y-13500D01*
X07300Y-13624D01*
X07370Y-13730D01*
X08370Y-14730D01*
X08475Y-14800D01*
X08476Y-14800D01*
X08600Y-14825D01*
X09339Y-14825D01*
X09283Y-14848D01*
X09260Y-14939D01*
X09515Y-15194D01*
X09550Y-15229D01*
X09621Y-15300D01*
X09550Y-15371D01*
X09515Y-15406D01*
X09479Y-15442D01*
X09479Y-15300D01*
X09189Y-15010D01*
X09098Y-15033D01*
X09031Y-15226D01*
X09042Y-15430D01*
X09098Y-15567D01*
X09189Y-15590D01*
X09479Y-15300D01*
X09479Y-15442D01*
X09260Y-15661D01*
X09283Y-15752D01*
X09476Y-15819D01*
X09680Y-15808D01*
X09725Y-15789D01*
X09725Y-16165D01*
X09620Y-16270D01*
X09550Y-16376D01*
X09525Y-16500D01*
X09525Y-16796D01*
X09385Y-16936D01*
X09350Y-17020D01*
X09315Y-16936D01*
X09161Y-16782D01*
X08959Y-16698D01*
X08741Y-16698D01*
X08539Y-16782D01*
X08385Y-16936D01*
X08351Y-17015D01*
X08232Y-16850D01*
X08046Y-16735D01*
X07987Y-16718D01*
X07900Y-16765D01*
X07900Y-17300D01*
X07900Y-17350D01*
X07900Y-17450D01*
X07900Y-17500D01*
X07900Y-18035D01*
X07987Y-18082D01*
X08046Y-18065D01*
X08232Y-17950D01*
X08351Y-17784D01*
X08385Y-17864D01*
X08539Y-18018D01*
X08741Y-18102D01*
X08959Y-18102D01*
X09161Y-18018D01*
X09315Y-17864D01*
X09350Y-17779D01*
X09385Y-17864D01*
X09525Y-18004D01*
X09525Y-18500D01*
X09550Y-18624D01*
X09620Y-18730D01*
X10025Y-19135D01*
X10025Y-19665D01*
G54D10*
G36*
X19125Y-22025D02*
X18985Y-22025D01*
X18985Y-16581D01*
X18984Y-16580D01*
X18985Y-16580D01*
X18985Y-03820D01*
X18960Y-03696D01*
X18960Y-03695D01*
X18890Y-03590D01*
X16550Y-01250D01*
X16444Y-01180D01*
X16320Y-01155D01*
X12237Y-01155D01*
X12118Y-01035D01*
X11925Y-00955D01*
X11716Y-00955D01*
X11523Y-01035D01*
X11375Y-01182D01*
X11316Y-01322D01*
X11272Y-01213D01*
X11181Y-01190D01*
X11110Y-01261D01*
X11110Y-01119D01*
X11087Y-01028D01*
X10894Y-00961D01*
X10690Y-00972D01*
X10553Y-01028D01*
X10530Y-01119D01*
X10820Y-01409D01*
X11110Y-01119D01*
X11110Y-01261D01*
X10926Y-01445D01*
X10891Y-01480D01*
X10820Y-01551D01*
X10785Y-01586D01*
X10749Y-01622D01*
X10749Y-01480D01*
X10459Y-01190D01*
X10368Y-01213D01*
X10301Y-01406D01*
X10312Y-01610D01*
X10368Y-01747D01*
X10459Y-01770D01*
X10749Y-01480D01*
X10749Y-01622D01*
X10530Y-01841D01*
X10553Y-01932D01*
X10746Y-01999D01*
X10846Y-01993D01*
X10770Y-02070D01*
X10700Y-02176D01*
X10675Y-02300D01*
X10675Y-03856D01*
X10535Y-03996D01*
X10500Y-04080D01*
X10465Y-03996D01*
X10311Y-03842D01*
X10109Y-03758D01*
X09891Y-03758D01*
X09689Y-03842D01*
X09535Y-03996D01*
X09501Y-04075D01*
X09382Y-03910D01*
X09196Y-03795D01*
X09137Y-03778D01*
X09050Y-03825D01*
X09050Y-04360D01*
X09050Y-04410D01*
X09050Y-04510D01*
X09050Y-04560D01*
X09050Y-05095D01*
X09137Y-05142D01*
X09196Y-05125D01*
X09382Y-05010D01*
X09501Y-04844D01*
X09535Y-04924D01*
X09675Y-05064D01*
X09675Y-05235D01*
X08950Y-05235D01*
X08950Y-05095D01*
X08950Y-04510D01*
X08950Y-04410D01*
X08950Y-03825D01*
X08863Y-03778D01*
X08804Y-03795D01*
X08618Y-03910D01*
X08490Y-04087D01*
X08440Y-04300D01*
X08440Y-04410D01*
X08950Y-04410D01*
X08950Y-04510D01*
X08440Y-04510D01*
X08440Y-04620D01*
X08490Y-04833D01*
X08618Y-05010D01*
X08804Y-05125D01*
X08863Y-05142D01*
X08950Y-05095D01*
X08950Y-05235D01*
X07799Y-05235D01*
X07799Y-03754D01*
X07788Y-03550D01*
X07732Y-03413D01*
X07641Y-03390D01*
X07570Y-03461D01*
X07570Y-03319D01*
X07547Y-03228D01*
X07354Y-03161D01*
X07150Y-03172D01*
X07013Y-03228D01*
X06990Y-03319D01*
X07280Y-03609D01*
X07570Y-03319D01*
X07570Y-03461D01*
X07351Y-03680D01*
X07641Y-03970D01*
X07732Y-03947D01*
X07799Y-03754D01*
X07799Y-05235D01*
X07570Y-05235D01*
X07570Y-04041D01*
X07280Y-03751D01*
X07209Y-03822D01*
X07209Y-03680D01*
X06919Y-03390D01*
X06828Y-03413D01*
X06761Y-03606D01*
X06772Y-03810D01*
X06828Y-03947D01*
X06919Y-03970D01*
X07209Y-03680D01*
X07209Y-03822D01*
X06990Y-04041D01*
X07013Y-04132D01*
X07206Y-04199D01*
X07410Y-04188D01*
X07547Y-04132D01*
X07570Y-04041D01*
X07570Y-05235D01*
X07140Y-05235D01*
X07016Y-05260D01*
X06910Y-05330D01*
X06908Y-05332D01*
X06390Y-05850D01*
X06390Y-03211D01*
X06100Y-02921D01*
X05810Y-03211D01*
X05833Y-03302D01*
X06026Y-03369D01*
X06230Y-03358D01*
X06367Y-03302D01*
X06390Y-03211D01*
X06390Y-05850D01*
X05905Y-06335D01*
X05059Y-06335D01*
X05059Y-03734D01*
X05048Y-03530D01*
X04992Y-03393D01*
X04901Y-03370D01*
X04611Y-03660D01*
X04901Y-03950D01*
X04992Y-03927D01*
X05059Y-03734D01*
X05059Y-06335D01*
X04957Y-06335D01*
X04838Y-06215D01*
X04830Y-06211D01*
X04645Y-06135D01*
X04436Y-06135D01*
X04243Y-06215D01*
X04205Y-06252D01*
X04205Y-04080D01*
X04233Y-04108D01*
X04264Y-04076D01*
X04273Y-04112D01*
X04466Y-04179D01*
X04670Y-04168D01*
X04807Y-04112D01*
X04830Y-04021D01*
X04575Y-03766D01*
X04540Y-03731D01*
X04469Y-03660D01*
X04540Y-03589D01*
X04575Y-03554D01*
X04830Y-03299D01*
X04807Y-03208D01*
X04677Y-03162D01*
X05155Y-02685D01*
X05612Y-02685D01*
X05581Y-02776D01*
X05592Y-02980D01*
X05648Y-03117D01*
X05739Y-03140D01*
X05994Y-02885D01*
X06029Y-02850D01*
X06100Y-02779D01*
X06171Y-02850D01*
X06206Y-02885D01*
X06461Y-03140D01*
X06552Y-03117D01*
X06619Y-02924D01*
X06608Y-02720D01*
X06579Y-02649D01*
X06670Y-02590D01*
X06910Y-02350D01*
X06980Y-02245D01*
X06980Y-02244D01*
X07005Y-02120D01*
X07005Y-01640D01*
X06980Y-01516D01*
X06980Y-01515D01*
X06910Y-01410D01*
X06622Y-01122D01*
X06516Y-01052D01*
X06392Y-01027D01*
X04488Y-01027D01*
X04363Y-01052D01*
X04258Y-01122D01*
X01730Y-03650D01*
X01660Y-03756D01*
X01635Y-03880D01*
X01635Y-05025D01*
X01562Y-05025D01*
X01500Y-05087D01*
X01500Y-05450D01*
X01500Y-05500D01*
X01500Y-05600D01*
X01500Y-05650D01*
X01500Y-06013D01*
X01562Y-06075D01*
X01635Y-06074D01*
X01635Y-08875D01*
X01562Y-08875D01*
X01500Y-08937D01*
X01500Y-09300D01*
X01500Y-09350D01*
X01500Y-09450D01*
X01500Y-09500D01*
X01500Y-09863D01*
X01562Y-09925D01*
X01635Y-09924D01*
X01635Y-10000D01*
X01660Y-10124D01*
X01730Y-10230D01*
X02068Y-10567D01*
X02070Y-10570D01*
X02175Y-10639D01*
X02176Y-10640D01*
X02274Y-10659D01*
X02299Y-10665D01*
X02299Y-10664D01*
X02300Y-10665D01*
X04160Y-10665D01*
X04284Y-10640D01*
X04390Y-10570D01*
X04680Y-10280D01*
X04750Y-10175D01*
X04750Y-10174D01*
X04775Y-10050D01*
X04775Y-09817D01*
X04895Y-09698D01*
X04950Y-09564D01*
X05005Y-09697D01*
X05125Y-09817D01*
X05125Y-11465D01*
X04515Y-12075D01*
X04346Y-12075D01*
X04153Y-12155D01*
X04005Y-12302D01*
X03925Y-12495D01*
X03925Y-12704D01*
X04005Y-12897D01*
X04125Y-13017D01*
X04125Y-14800D01*
X04150Y-14924D01*
X04220Y-15030D01*
X06475Y-17285D01*
X06475Y-17600D01*
X06500Y-17724D01*
X06570Y-17830D01*
X07465Y-18725D01*
X06784Y-18725D01*
X04628Y-16568D01*
X04708Y-16489D01*
X04799Y-16269D01*
X04799Y-16031D01*
X04708Y-15811D01*
X04539Y-15642D01*
X04319Y-15551D01*
X04081Y-15551D01*
X03861Y-15642D01*
X03692Y-15811D01*
X03601Y-16031D01*
X03601Y-16269D01*
X03692Y-16489D01*
X03861Y-16658D01*
X03889Y-16669D01*
X03900Y-16724D01*
X03970Y-16830D01*
X06418Y-19277D01*
X06420Y-19280D01*
X06525Y-19349D01*
X06526Y-19350D01*
X06624Y-19369D01*
X06649Y-19375D01*
X06649Y-19374D01*
X06650Y-19375D01*
X08065Y-19375D01*
X08505Y-19815D01*
X08409Y-19912D01*
X08409Y-19901D01*
X08371Y-19809D01*
X08301Y-19739D01*
X08210Y-19701D01*
X08111Y-19701D01*
X07491Y-19701D01*
X07399Y-19739D01*
X07329Y-19809D01*
X07291Y-19900D01*
X07291Y-19999D01*
X07291Y-20075D01*
X05685Y-20075D01*
X04525Y-18915D01*
X04525Y-18663D01*
X04539Y-18658D01*
X04708Y-18489D01*
X04799Y-18269D01*
X04799Y-18031D01*
X04708Y-17811D01*
X04539Y-17642D01*
X04319Y-17551D01*
X04081Y-17551D01*
X03861Y-17642D01*
X03692Y-17811D01*
X03601Y-18031D01*
X03601Y-18269D01*
X03692Y-18489D01*
X03861Y-18658D01*
X03875Y-18663D01*
X03875Y-19050D01*
X03900Y-19174D01*
X03970Y-19280D01*
X05320Y-20630D01*
X05425Y-20700D01*
X05426Y-20700D01*
X05550Y-20725D01*
X07291Y-20725D01*
X07291Y-20899D01*
X07329Y-20991D01*
X07399Y-21061D01*
X07490Y-21099D01*
X07589Y-21099D01*
X08209Y-21099D01*
X08301Y-21061D01*
X08371Y-20991D01*
X08409Y-20900D01*
X08409Y-20888D01*
X08539Y-21018D01*
X08741Y-21102D01*
X08959Y-21102D01*
X09161Y-21018D01*
X09315Y-20864D01*
X09350Y-20779D01*
X09385Y-20864D01*
X09525Y-21004D01*
X09525Y-21430D01*
X09550Y-21554D01*
X09620Y-21660D01*
X09829Y-21869D01*
X09830Y-21870D01*
X09935Y-21939D01*
X09936Y-21940D01*
X10034Y-21959D01*
X10059Y-21965D01*
X10059Y-21964D01*
X10060Y-21965D01*
X13600Y-21965D01*
X13724Y-21940D01*
X13830Y-21870D01*
X18870Y-16829D01*
X18887Y-16811D01*
X18889Y-16810D01*
X18890Y-16810D01*
X18959Y-16705D01*
X18960Y-16704D01*
X18979Y-16606D01*
X18985Y-16581D01*
X18985Y-22025D01*
X18870Y-22025D01*
X12050Y-22025D01*
X01969Y-22025D01*
X01969Y-12674D01*
X01958Y-12470D01*
X01902Y-12333D01*
X01811Y-12310D01*
X01740Y-12381D01*
X01740Y-12239D01*
X01717Y-12148D01*
X01524Y-12081D01*
X01400Y-12087D01*
X01400Y-09863D01*
X01400Y-09450D01*
X01400Y-09350D01*
X01400Y-08937D01*
X01400Y-06013D01*
X01400Y-05600D01*
X01400Y-05500D01*
X01400Y-05087D01*
X01338Y-05025D01*
X01126Y-05026D01*
X01034Y-05064D01*
X00964Y-05134D01*
X00926Y-05225D01*
X00926Y-05324D01*
X00925Y-05438D01*
X00987Y-05500D01*
X01400Y-05500D01*
X01400Y-05600D01*
X00987Y-05600D01*
X00925Y-05662D01*
X00926Y-05776D01*
X00926Y-05875D01*
X00964Y-05966D01*
X01034Y-06036D01*
X01126Y-06074D01*
X01338Y-06075D01*
X01400Y-06013D01*
X01400Y-08937D01*
X01338Y-08875D01*
X01126Y-08876D01*
X01034Y-08914D01*
X00964Y-08984D01*
X00926Y-09075D01*
X00926Y-09174D01*
X00925Y-09288D01*
X00987Y-09350D01*
X01400Y-09350D01*
X01400Y-09450D01*
X00987Y-09450D01*
X00925Y-09512D01*
X00926Y-09626D01*
X00926Y-09725D01*
X00964Y-09816D01*
X01034Y-09886D01*
X01126Y-09924D01*
X01338Y-09925D01*
X01400Y-09863D01*
X01400Y-12087D01*
X01320Y-12092D01*
X01183Y-12148D01*
X01160Y-12239D01*
X01450Y-12529D01*
X01740Y-12239D01*
X01740Y-12381D01*
X01521Y-12600D01*
X01811Y-12890D01*
X01902Y-12867D01*
X01969Y-12674D01*
X01969Y-22025D01*
X01740Y-22025D01*
X01740Y-12961D01*
X01450Y-12671D01*
X01379Y-12742D01*
X01379Y-12600D01*
X01089Y-12310D01*
X00998Y-12333D01*
X00931Y-12526D01*
X00942Y-12730D01*
X00998Y-12867D01*
X01089Y-12890D01*
X01379Y-12600D01*
X01379Y-12742D01*
X01160Y-12961D01*
X01183Y-13052D01*
X01376Y-13119D01*
X01580Y-13108D01*
X01717Y-13052D01*
X01740Y-12961D01*
X01740Y-22025D01*
X00675Y-22025D01*
X00675Y-00625D01*
X19125Y-00625D01*
X19125Y-03800D01*
X19125Y-22025D01*
X19125Y-22025D01*
G37*
G54D17*
X19125Y-22025D02*
X18985Y-22025D01*
X18985Y-16581D01*
X18984Y-16580D01*
X18985Y-16580D01*
X18985Y-03820D01*
X18960Y-03696D01*
X18960Y-03695D01*
X18890Y-03590D01*
X16550Y-01250D01*
X16444Y-01180D01*
X16320Y-01155D01*
X12237Y-01155D01*
X12118Y-01035D01*
X11925Y-00955D01*
X11716Y-00955D01*
X11523Y-01035D01*
X11375Y-01182D01*
X11316Y-01322D01*
X11272Y-01213D01*
X11181Y-01190D01*
X11110Y-01261D01*
X11110Y-01119D01*
X11087Y-01028D01*
X10894Y-00961D01*
X10690Y-00972D01*
X10553Y-01028D01*
X10530Y-01119D01*
X10820Y-01409D01*
X11110Y-01119D01*
X11110Y-01261D01*
X10926Y-01445D01*
X10891Y-01480D01*
X10820Y-01551D01*
X10785Y-01586D01*
X10749Y-01622D01*
X10749Y-01480D01*
X10459Y-01190D01*
X10368Y-01213D01*
X10301Y-01406D01*
X10312Y-01610D01*
X10368Y-01747D01*
X10459Y-01770D01*
X10749Y-01480D01*
X10749Y-01622D01*
X10530Y-01841D01*
X10553Y-01932D01*
X10746Y-01999D01*
X10846Y-01993D01*
X10770Y-02070D01*
X10700Y-02176D01*
X10675Y-02300D01*
X10675Y-03856D01*
X10535Y-03996D01*
X10500Y-04080D01*
X10465Y-03996D01*
X10311Y-03842D01*
X10109Y-03758D01*
X09891Y-03758D01*
X09689Y-03842D01*
X09535Y-03996D01*
X09501Y-04075D01*
X09382Y-03910D01*
X09196Y-03795D01*
X09137Y-03778D01*
X09050Y-03825D01*
X09050Y-04360D01*
X09050Y-04410D01*
X09050Y-04510D01*
X09050Y-04560D01*
X09050Y-05095D01*
X09137Y-05142D01*
X09196Y-05125D01*
X09382Y-05010D01*
X09501Y-04844D01*
X09535Y-04924D01*
X09675Y-05064D01*
X09675Y-05235D01*
X08950Y-05235D01*
X08950Y-05095D01*
X08950Y-04510D01*
X08950Y-04410D01*
X08950Y-03825D01*
X08863Y-03778D01*
X08804Y-03795D01*
X08618Y-03910D01*
X08490Y-04087D01*
X08440Y-04300D01*
X08440Y-04410D01*
X08950Y-04410D01*
X08950Y-04510D01*
X08440Y-04510D01*
X08440Y-04620D01*
X08490Y-04833D01*
X08618Y-05010D01*
X08804Y-05125D01*
X08863Y-05142D01*
X08950Y-05095D01*
X08950Y-05235D01*
X07799Y-05235D01*
X07799Y-03754D01*
X07788Y-03550D01*
X07732Y-03413D01*
X07641Y-03390D01*
X07570Y-03461D01*
X07570Y-03319D01*
X07547Y-03228D01*
X07354Y-03161D01*
X07150Y-03172D01*
X07013Y-03228D01*
X06990Y-03319D01*
X07280Y-03609D01*
X07570Y-03319D01*
X07570Y-03461D01*
X07351Y-03680D01*
X07641Y-03970D01*
X07732Y-03947D01*
X07799Y-03754D01*
X07799Y-05235D01*
X07570Y-05235D01*
X07570Y-04041D01*
X07280Y-03751D01*
X07209Y-03822D01*
X07209Y-03680D01*
X06919Y-03390D01*
X06828Y-03413D01*
X06761Y-03606D01*
X06772Y-03810D01*
X06828Y-03947D01*
X06919Y-03970D01*
X07209Y-03680D01*
X07209Y-03822D01*
X06990Y-04041D01*
X07013Y-04132D01*
X07206Y-04199D01*
X07410Y-04188D01*
X07547Y-04132D01*
X07570Y-04041D01*
X07570Y-05235D01*
X07140Y-05235D01*
X07016Y-05260D01*
X06910Y-05330D01*
X06908Y-05332D01*
X06390Y-05850D01*
X06390Y-03211D01*
X06100Y-02921D01*
X05810Y-03211D01*
X05833Y-03302D01*
X06026Y-03369D01*
X06230Y-03358D01*
X06367Y-03302D01*
X06390Y-03211D01*
X06390Y-05850D01*
X05905Y-06335D01*
X05059Y-06335D01*
X05059Y-03734D01*
X05048Y-03530D01*
X04992Y-03393D01*
X04901Y-03370D01*
X04611Y-03660D01*
X04901Y-03950D01*
X04992Y-03927D01*
X05059Y-03734D01*
X05059Y-06335D01*
X04957Y-06335D01*
X04838Y-06215D01*
X04830Y-06211D01*
X04645Y-06135D01*
X04436Y-06135D01*
X04243Y-06215D01*
X04205Y-06252D01*
X04205Y-04080D01*
X04233Y-04108D01*
X04264Y-04076D01*
X04273Y-04112D01*
X04466Y-04179D01*
X04670Y-04168D01*
X04807Y-04112D01*
X04830Y-04021D01*
X04575Y-03766D01*
X04540Y-03731D01*
X04469Y-03660D01*
X04540Y-03589D01*
X04575Y-03554D01*
X04830Y-03299D01*
X04807Y-03208D01*
X04677Y-03162D01*
X05155Y-02685D01*
X05612Y-02685D01*
X05581Y-02776D01*
X05592Y-02980D01*
X05648Y-03117D01*
X05739Y-03140D01*
X05994Y-02885D01*
X06029Y-02850D01*
X06100Y-02779D01*
X06171Y-02850D01*
X06206Y-02885D01*
X06461Y-03140D01*
X06552Y-03117D01*
X06619Y-02924D01*
X06608Y-02720D01*
X06579Y-02649D01*
X06670Y-02590D01*
X06910Y-02350D01*
X06980Y-02245D01*
X06980Y-02244D01*
X07005Y-02120D01*
X07005Y-01640D01*
X06980Y-01516D01*
X06980Y-01515D01*
X06910Y-01410D01*
X06622Y-01122D01*
X06516Y-01052D01*
X06392Y-01027D01*
X04488Y-01027D01*
X04363Y-01052D01*
X04258Y-01122D01*
X01730Y-03650D01*
X01660Y-03756D01*
X01635Y-03880D01*
X01635Y-05025D01*
X01562Y-05025D01*
X01500Y-05087D01*
X01500Y-05450D01*
X01500Y-05500D01*
X01500Y-05600D01*
X01500Y-05650D01*
X01500Y-06013D01*
X01562Y-06075D01*
X01635Y-06074D01*
X01635Y-08875D01*
X01562Y-08875D01*
X01500Y-08937D01*
X01500Y-09300D01*
X01500Y-09350D01*
X01500Y-09450D01*
X01500Y-09500D01*
X01500Y-09863D01*
X01562Y-09925D01*
X01635Y-09924D01*
X01635Y-10000D01*
X01660Y-10124D01*
X01730Y-10230D01*
X02068Y-10567D01*
X02070Y-10570D01*
X02175Y-10639D01*
X02176Y-10640D01*
X02274Y-10659D01*
X02299Y-10665D01*
X02299Y-10664D01*
X02300Y-10665D01*
X04160Y-10665D01*
X04284Y-10640D01*
X04390Y-10570D01*
X04680Y-10280D01*
X04750Y-10175D01*
X04750Y-10174D01*
X04775Y-10050D01*
X04775Y-09817D01*
X04895Y-09698D01*
X04950Y-09564D01*
X05005Y-09697D01*
X05125Y-09817D01*
X05125Y-11465D01*
X04515Y-12075D01*
X04346Y-12075D01*
X04153Y-12155D01*
X04005Y-12302D01*
X03925Y-12495D01*
X03925Y-12704D01*
X04005Y-12897D01*
X04125Y-13017D01*
X04125Y-14800D01*
X04150Y-14924D01*
X04220Y-15030D01*
X06475Y-17285D01*
X06475Y-17600D01*
X06500Y-17724D01*
X06570Y-17830D01*
X07465Y-18725D01*
X06784Y-18725D01*
X04628Y-16568D01*
X04708Y-16489D01*
X04799Y-16269D01*
X04799Y-16031D01*
X04708Y-15811D01*
X04539Y-15642D01*
X04319Y-15551D01*
X04081Y-15551D01*
X03861Y-15642D01*
X03692Y-15811D01*
X03601Y-16031D01*
X03601Y-16269D01*
X03692Y-16489D01*
X03861Y-16658D01*
X03889Y-16669D01*
X03900Y-16724D01*
X03970Y-16830D01*
X06418Y-19277D01*
X06420Y-19280D01*
X06525Y-19349D01*
X06526Y-19350D01*
X06624Y-19369D01*
X06649Y-19375D01*
X06649Y-19374D01*
X06650Y-19375D01*
X08065Y-19375D01*
X08505Y-19815D01*
X08409Y-19912D01*
X08409Y-19901D01*
X08371Y-19809D01*
X08301Y-19739D01*
X08210Y-19701D01*
X08111Y-19701D01*
X07491Y-19701D01*
X07399Y-19739D01*
X07329Y-19809D01*
X07291Y-19900D01*
X07291Y-19999D01*
X07291Y-20075D01*
X05685Y-20075D01*
X04525Y-18915D01*
X04525Y-18663D01*
X04539Y-18658D01*
X04708Y-18489D01*
X04799Y-18269D01*
X04799Y-18031D01*
X04708Y-17811D01*
X04539Y-17642D01*
X04319Y-17551D01*
X04081Y-17551D01*
X03861Y-17642D01*
X03692Y-17811D01*
X03601Y-18031D01*
X03601Y-18269D01*
X03692Y-18489D01*
X03861Y-18658D01*
X03875Y-18663D01*
X03875Y-19050D01*
X03900Y-19174D01*
X03970Y-19280D01*
X05320Y-20630D01*
X05425Y-20700D01*
X05426Y-20700D01*
X05550Y-20725D01*
X07291Y-20725D01*
X07291Y-20899D01*
X07329Y-20991D01*
X07399Y-21061D01*
X07490Y-21099D01*
X07589Y-21099D01*
X08209Y-21099D01*
X08301Y-21061D01*
X08371Y-20991D01*
X08409Y-20900D01*
X08409Y-20888D01*
X08539Y-21018D01*
X08741Y-21102D01*
X08959Y-21102D01*
X09161Y-21018D01*
X09315Y-20864D01*
X09350Y-20779D01*
X09385Y-20864D01*
X09525Y-21004D01*
X09525Y-21430D01*
X09550Y-21554D01*
X09620Y-21660D01*
X09829Y-21869D01*
X09830Y-21870D01*
X09935Y-21939D01*
X09936Y-21940D01*
X10034Y-21959D01*
X10059Y-21965D01*
X10059Y-21964D01*
X10060Y-21965D01*
X13600Y-21965D01*
X13724Y-21940D01*
X13830Y-21870D01*
X18870Y-16829D01*
X18887Y-16811D01*
X18889Y-16810D01*
X18890Y-16810D01*
X18959Y-16705D01*
X18960Y-16704D01*
X18979Y-16606D01*
X18985Y-16581D01*
X18985Y-22025D01*
X18870Y-22025D01*
X12050Y-22025D01*
X01969Y-22025D01*
X01969Y-12674D01*
X01958Y-12470D01*
X01902Y-12333D01*
X01811Y-12310D01*
X01740Y-12381D01*
X01740Y-12239D01*
X01717Y-12148D01*
X01524Y-12081D01*
X01400Y-12087D01*
X01400Y-09863D01*
X01400Y-09450D01*
X01400Y-09350D01*
X01400Y-08937D01*
X01400Y-06013D01*
X01400Y-05600D01*
X01400Y-05500D01*
X01400Y-05087D01*
X01338Y-05025D01*
X01126Y-05026D01*
X01034Y-05064D01*
X00964Y-05134D01*
X00926Y-05225D01*
X00926Y-05324D01*
X00925Y-05438D01*
X00987Y-05500D01*
X01400Y-05500D01*
X01400Y-05600D01*
X00987Y-05600D01*
X00925Y-05662D01*
X00926Y-05776D01*
X00926Y-05875D01*
X00964Y-05966D01*
X01034Y-06036D01*
X01126Y-06074D01*
X01338Y-06075D01*
X01400Y-06013D01*
X01400Y-08937D01*
X01338Y-08875D01*
X01126Y-08876D01*
X01034Y-08914D01*
X00964Y-08984D01*
X00926Y-09075D01*
X00926Y-09174D01*
X00925Y-09288D01*
X00987Y-09350D01*
X01400Y-09350D01*
X01400Y-09450D01*
X00987Y-09450D01*
X00925Y-09512D01*
X00926Y-09626D01*
X00926Y-09725D01*
X00964Y-09816D01*
X01034Y-09886D01*
X01126Y-09924D01*
X01338Y-09925D01*
X01400Y-09863D01*
X01400Y-12087D01*
X01320Y-12092D01*
X01183Y-12148D01*
X01160Y-12239D01*
X01450Y-12529D01*
X01740Y-12239D01*
X01740Y-12381D01*
X01521Y-12600D01*
X01811Y-12890D01*
X01902Y-12867D01*
X01969Y-12674D01*
X01969Y-22025D01*
X01740Y-22025D01*
X01740Y-12961D01*
X01450Y-12671D01*
X01379Y-12742D01*
X01379Y-12600D01*
X01089Y-12310D01*
X00998Y-12333D01*
X00931Y-12526D01*
X00942Y-12730D01*
X00998Y-12867D01*
X01089Y-12890D01*
X01379Y-12600D01*
X01379Y-12742D01*
X01160Y-12961D01*
X01183Y-13052D01*
X01376Y-13119D01*
X01580Y-13108D01*
X01717Y-13052D01*
X01740Y-12961D01*
X01740Y-22025D01*
X00675Y-22025D01*
X00675Y-00625D01*
X19125Y-00625D01*
X19125Y-03800D01*
X19125Y-22025D01*
G54D10*
G36*
X06171Y-01850D02*
X06100Y-01921D01*
X06029Y-01850D01*
X06100Y-01779D01*
X06171Y-01850D01*
X06171Y-01850D01*
G37*
G54D17*
X06171Y-01850D02*
X06100Y-01921D01*
X06029Y-01850D01*
X06100Y-01779D01*
X06171Y-01850D01*
G54D10*
G36*
X12525Y-15765D02*
X12110Y-16179D01*
X12110Y-13460D01*
X12110Y-13350D01*
X12110Y-13250D01*
X12110Y-13140D01*
X12060Y-12927D01*
X11932Y-12750D01*
X11746Y-12635D01*
X11687Y-12618D01*
X11600Y-12665D01*
X11600Y-13250D01*
X12110Y-13250D01*
X12110Y-13350D01*
X11600Y-13350D01*
X11600Y-13935D01*
X11687Y-13982D01*
X11746Y-13965D01*
X11932Y-13850D01*
X12060Y-13673D01*
X12110Y-13460D01*
X12110Y-16179D01*
X11326Y-16963D01*
X11315Y-16936D01*
X11161Y-16782D01*
X10959Y-16698D01*
X10741Y-16698D01*
X10539Y-16782D01*
X10425Y-16895D01*
X10430Y-16583D01*
X10516Y-15824D01*
X10874Y-15824D01*
X10966Y-15786D01*
X11036Y-15716D01*
X11074Y-15625D01*
X11074Y-15526D01*
X11074Y-14976D01*
X11036Y-14884D01*
X10966Y-14814D01*
X10875Y-14776D01*
X10875Y-13904D01*
X11015Y-13764D01*
X11048Y-13684D01*
X11168Y-13850D01*
X11354Y-13965D01*
X11413Y-13982D01*
X11500Y-13935D01*
X11500Y-13400D01*
X11500Y-13350D01*
X11500Y-13250D01*
X11500Y-13200D01*
X11500Y-12665D01*
X11413Y-12618D01*
X11354Y-12635D01*
X11168Y-12750D01*
X11048Y-12915D01*
X11015Y-12836D01*
X10861Y-12682D01*
X10659Y-12598D01*
X10441Y-12598D01*
X10239Y-12682D01*
X10085Y-12836D01*
X10051Y-12915D01*
X09932Y-12750D01*
X09746Y-12635D01*
X09687Y-12618D01*
X09600Y-12665D01*
X09600Y-13200D01*
X09600Y-13250D01*
X09600Y-13350D01*
X09600Y-13400D01*
X09600Y-13935D01*
X09687Y-13982D01*
X09746Y-13965D01*
X09932Y-13850D01*
X10051Y-13684D01*
X10085Y-13764D01*
X10225Y-13904D01*
X10225Y-14523D01*
X09696Y-14171D01*
X09500Y-14159D01*
X08705Y-14111D01*
X08614Y-14000D01*
X08650Y-14000D01*
X08650Y-13988D01*
X08662Y-14000D01*
X08909Y-13999D01*
X09001Y-13961D01*
X09071Y-13891D01*
X09109Y-13800D01*
X09109Y-13768D01*
X09168Y-13850D01*
X09354Y-13965D01*
X09413Y-13982D01*
X09500Y-13935D01*
X09500Y-13350D01*
X09500Y-13250D01*
X09500Y-12665D01*
X09413Y-12618D01*
X09354Y-12635D01*
X09168Y-12750D01*
X09109Y-12831D01*
X09109Y-12800D01*
X09071Y-12709D01*
X09001Y-12639D01*
X08909Y-12601D01*
X08662Y-12600D01*
X08600Y-12662D01*
X08600Y-13250D01*
X08990Y-13250D01*
X09048Y-13250D01*
X09500Y-13250D01*
X09500Y-13350D01*
X09048Y-13350D01*
X08990Y-13350D01*
X08650Y-13350D01*
X08600Y-13350D01*
X08500Y-13350D01*
X08500Y-13250D01*
X08500Y-13200D01*
X08500Y-12662D01*
X08438Y-12600D01*
X08191Y-12601D01*
X08136Y-12623D01*
X09277Y-11481D01*
X09279Y-11480D01*
X09280Y-11480D01*
X09349Y-11375D01*
X09350Y-11374D01*
X09375Y-11250D01*
X09375Y-10971D01*
X09413Y-10982D01*
X09500Y-10935D01*
X09500Y-10400D01*
X09500Y-10350D01*
X09500Y-10250D01*
X09600Y-10250D01*
X09600Y-10350D01*
X09600Y-10400D01*
X09600Y-10935D01*
X09687Y-10982D01*
X09746Y-10965D01*
X09932Y-10850D01*
X10051Y-10684D01*
X10085Y-10764D01*
X10239Y-10918D01*
X10441Y-11002D01*
X10659Y-11002D01*
X10861Y-10918D01*
X11015Y-10764D01*
X11050Y-10679D01*
X11085Y-10764D01*
X11239Y-10918D01*
X11441Y-11002D01*
X11659Y-11002D01*
X11753Y-10962D01*
X12525Y-11734D01*
X12525Y-15765D01*
X12525Y-15765D01*
G37*
G54D17*
X12525Y-15765D02*
X12110Y-16179D01*
X12110Y-13460D01*
X12110Y-13350D01*
X12110Y-13250D01*
X12110Y-13140D01*
X12060Y-12927D01*
X11932Y-12750D01*
X11746Y-12635D01*
X11687Y-12618D01*
X11600Y-12665D01*
X11600Y-13250D01*
X12110Y-13250D01*
X12110Y-13350D01*
X11600Y-13350D01*
X11600Y-13935D01*
X11687Y-13982D01*
X11746Y-13965D01*
X11932Y-13850D01*
X12060Y-13673D01*
X12110Y-13460D01*
X12110Y-16179D01*
X11326Y-16963D01*
X11315Y-16936D01*
X11161Y-16782D01*
X10959Y-16698D01*
X10741Y-16698D01*
X10539Y-16782D01*
X10425Y-16895D01*
X10430Y-16583D01*
X10516Y-15824D01*
X10874Y-15824D01*
X10966Y-15786D01*
X11036Y-15716D01*
X11074Y-15625D01*
X11074Y-15526D01*
X11074Y-14976D01*
X11036Y-14884D01*
X10966Y-14814D01*
X10875Y-14776D01*
X10875Y-13904D01*
X11015Y-13764D01*
X11048Y-13684D01*
X11168Y-13850D01*
X11354Y-13965D01*
X11413Y-13982D01*
X11500Y-13935D01*
X11500Y-13400D01*
X11500Y-13350D01*
X11500Y-13250D01*
X11500Y-13200D01*
X11500Y-12665D01*
X11413Y-12618D01*
X11354Y-12635D01*
X11168Y-12750D01*
X11048Y-12915D01*
X11015Y-12836D01*
X10861Y-12682D01*
X10659Y-12598D01*
X10441Y-12598D01*
X10239Y-12682D01*
X10085Y-12836D01*
X10051Y-12915D01*
X09932Y-12750D01*
X09746Y-12635D01*
X09687Y-12618D01*
X09600Y-12665D01*
X09600Y-13200D01*
X09600Y-13250D01*
X09600Y-13350D01*
X09600Y-13400D01*
X09600Y-13935D01*
X09687Y-13982D01*
X09746Y-13965D01*
X09932Y-13850D01*
X10051Y-13684D01*
X10085Y-13764D01*
X10225Y-13904D01*
X10225Y-14523D01*
X09696Y-14171D01*
X09500Y-14159D01*
X08705Y-14111D01*
X08614Y-14000D01*
X08650Y-14000D01*
X08650Y-13988D01*
X08662Y-14000D01*
X08909Y-13999D01*
X09001Y-13961D01*
X09071Y-13891D01*
X09109Y-13800D01*
X09109Y-13768D01*
X09168Y-13850D01*
X09354Y-13965D01*
X09413Y-13982D01*
X09500Y-13935D01*
X09500Y-13350D01*
X09500Y-13250D01*
X09500Y-12665D01*
X09413Y-12618D01*
X09354Y-12635D01*
X09168Y-12750D01*
X09109Y-12831D01*
X09109Y-12800D01*
X09071Y-12709D01*
X09001Y-12639D01*
X08909Y-12601D01*
X08662Y-12600D01*
X08600Y-12662D01*
X08600Y-13250D01*
X08990Y-13250D01*
X09048Y-13250D01*
X09500Y-13250D01*
X09500Y-13350D01*
X09048Y-13350D01*
X08990Y-13350D01*
X08650Y-13350D01*
X08600Y-13350D01*
X08500Y-13350D01*
X08500Y-13250D01*
X08500Y-13200D01*
X08500Y-12662D01*
X08438Y-12600D01*
X08191Y-12601D01*
X08136Y-12623D01*
X09277Y-11481D01*
X09279Y-11480D01*
X09280Y-11480D01*
X09349Y-11375D01*
X09350Y-11374D01*
X09375Y-11250D01*
X09375Y-10971D01*
X09413Y-10982D01*
X09500Y-10935D01*
X09500Y-10400D01*
X09500Y-10350D01*
X09500Y-10250D01*
X09600Y-10250D01*
X09600Y-10350D01*
X09600Y-10400D01*
X09600Y-10935D01*
X09687Y-10982D01*
X09746Y-10965D01*
X09932Y-10850D01*
X10051Y-10684D01*
X10085Y-10764D01*
X10239Y-10918D01*
X10441Y-11002D01*
X10659Y-11002D01*
X10861Y-10918D01*
X11015Y-10764D01*
X11050Y-10679D01*
X11085Y-10764D01*
X11239Y-10918D01*
X11441Y-11002D01*
X11659Y-11002D01*
X11753Y-10962D01*
X12525Y-11734D01*
X12525Y-15765D01*
G54D10*
G36*
X17875Y-16165D02*
X13315Y-20725D01*
X11371Y-20725D01*
X11410Y-20560D01*
X11410Y-20450D01*
X10950Y-20450D01*
X10900Y-20450D01*
X10800Y-20450D01*
X10800Y-20350D01*
X10900Y-20350D01*
X10950Y-20350D01*
X11410Y-20350D01*
X11410Y-20240D01*
X11360Y-20027D01*
X11232Y-19850D01*
X11046Y-19735D01*
X10987Y-19718D01*
X10950Y-19737D01*
X10950Y-19700D01*
X10907Y-19700D01*
X10890Y-18660D01*
X10410Y-18141D01*
X10413Y-17892D01*
X10539Y-18018D01*
X10741Y-18102D01*
X10959Y-18102D01*
X11161Y-18018D01*
X11315Y-17864D01*
X11374Y-17719D01*
X11474Y-17700D01*
X11580Y-17630D01*
X13080Y-16130D01*
X13150Y-16025D01*
X13150Y-16024D01*
X13175Y-15900D01*
X13175Y-12554D01*
X13298Y-12677D01*
X13300Y-12680D01*
X13405Y-12749D01*
X13406Y-12750D01*
X13504Y-12769D01*
X13529Y-12775D01*
X13529Y-12774D01*
X13530Y-12775D01*
X14032Y-12775D01*
X14152Y-12895D01*
X14345Y-12975D01*
X14554Y-12975D01*
X14747Y-12895D01*
X14895Y-12748D01*
X14953Y-12607D01*
X14998Y-12717D01*
X15089Y-12740D01*
X15379Y-12450D01*
X15089Y-12160D01*
X14998Y-12183D01*
X14956Y-12301D01*
X14895Y-12153D01*
X14748Y-12005D01*
X14555Y-11925D01*
X14346Y-11925D01*
X14153Y-12005D01*
X14032Y-12125D01*
X13664Y-12125D01*
X13585Y-12045D01*
X13585Y-11500D01*
X13584Y-11499D01*
X13585Y-11499D01*
X13579Y-11474D01*
X13560Y-11376D01*
X13559Y-11375D01*
X13490Y-11270D01*
X13487Y-11268D01*
X12994Y-10775D01*
X14032Y-10775D01*
X14152Y-10895D01*
X14345Y-10975D01*
X14554Y-10975D01*
X14747Y-10895D01*
X14895Y-10748D01*
X14953Y-10607D01*
X14998Y-10717D01*
X15089Y-10740D01*
X15379Y-10450D01*
X15089Y-10160D01*
X14998Y-10183D01*
X14956Y-10301D01*
X14895Y-10153D01*
X14748Y-10005D01*
X14555Y-09925D01*
X14346Y-09925D01*
X14153Y-10005D01*
X14032Y-10125D01*
X13104Y-10125D01*
X12965Y-09985D01*
X12965Y-09920D01*
X12940Y-09796D01*
X12939Y-09795D01*
X12870Y-09690D01*
X12867Y-09688D01*
X12560Y-09380D01*
X12560Y-07620D01*
X12560Y-07510D01*
X12560Y-07410D01*
X12560Y-07300D01*
X12510Y-07087D01*
X12382Y-06910D01*
X12196Y-06795D01*
X12137Y-06778D01*
X12050Y-06825D01*
X12050Y-07410D01*
X12560Y-07410D01*
X12560Y-07510D01*
X12050Y-07510D01*
X12050Y-08095D01*
X12137Y-08142D01*
X12196Y-08125D01*
X12382Y-08010D01*
X12510Y-07833D01*
X12560Y-07620D01*
X12560Y-09380D01*
X12050Y-08870D01*
X11944Y-08800D01*
X11820Y-08775D01*
X11674Y-08775D01*
X11325Y-08425D01*
X11325Y-08064D01*
X11465Y-07924D01*
X11498Y-07844D01*
X11618Y-08010D01*
X11804Y-08125D01*
X11863Y-08142D01*
X11950Y-08095D01*
X11950Y-07560D01*
X11950Y-07510D01*
X11950Y-07410D01*
X11950Y-07360D01*
X11950Y-06825D01*
X11863Y-06778D01*
X11804Y-06795D01*
X11618Y-06910D01*
X11498Y-07075D01*
X11465Y-06996D01*
X11311Y-06842D01*
X11109Y-06758D01*
X10891Y-06758D01*
X10689Y-06842D01*
X10535Y-06996D01*
X10500Y-07080D01*
X10465Y-06996D01*
X10311Y-06842D01*
X10109Y-06758D01*
X09891Y-06758D01*
X09689Y-06842D01*
X09559Y-06972D01*
X09559Y-06961D01*
X09521Y-06869D01*
X09451Y-06799D01*
X09360Y-06761D01*
X09261Y-06761D01*
X08641Y-06761D01*
X08549Y-06799D01*
X08479Y-06869D01*
X08441Y-06960D01*
X08441Y-07059D01*
X08441Y-07319D01*
X08045Y-07715D01*
X03860Y-07715D01*
X03859Y-07715D01*
X03834Y-07720D01*
X03736Y-07740D01*
X03630Y-07810D01*
X03628Y-07812D01*
X03220Y-08220D01*
X03150Y-08326D01*
X03125Y-08450D01*
X03125Y-08982D01*
X03005Y-09102D01*
X02969Y-09187D01*
X02969Y-05624D01*
X02958Y-05420D01*
X02902Y-05283D01*
X02811Y-05260D01*
X02521Y-05550D01*
X02811Y-05840D01*
X02902Y-05817D01*
X02969Y-05624D01*
X02969Y-09187D01*
X02946Y-09242D01*
X02902Y-09133D01*
X02811Y-09110D01*
X02521Y-09400D01*
X02811Y-09690D01*
X02902Y-09667D01*
X02943Y-09548D01*
X03005Y-09697D01*
X03152Y-09845D01*
X03345Y-09925D01*
X03554Y-09925D01*
X03747Y-09845D01*
X03895Y-09698D01*
X03950Y-09564D01*
X04005Y-09697D01*
X04125Y-09817D01*
X04125Y-09915D01*
X04025Y-10015D01*
X02434Y-10015D01*
X02318Y-09899D01*
X02376Y-09919D01*
X02580Y-09908D01*
X02717Y-09852D01*
X02740Y-09761D01*
X02485Y-09506D01*
X02450Y-09471D01*
X02379Y-09400D01*
X02450Y-09329D01*
X02485Y-09294D01*
X02740Y-09039D01*
X02717Y-08948D01*
X02524Y-08881D01*
X02320Y-08892D01*
X02285Y-08906D01*
X02285Y-06037D01*
X02376Y-06069D01*
X02580Y-06058D01*
X02717Y-06002D01*
X02740Y-05911D01*
X02485Y-05656D01*
X02450Y-05621D01*
X02379Y-05550D01*
X02450Y-05479D01*
X02485Y-05444D01*
X02740Y-05189D01*
X02717Y-05098D01*
X02524Y-05031D01*
X02320Y-05042D01*
X02285Y-05056D01*
X02285Y-04015D01*
X04623Y-01677D01*
X05615Y-01677D01*
X05581Y-01776D01*
X05592Y-01980D01*
X05614Y-02035D01*
X05020Y-02035D01*
X04895Y-02060D01*
X04790Y-02130D01*
X03650Y-03270D01*
X03580Y-03376D01*
X03555Y-03500D01*
X03555Y-06760D01*
X03580Y-06884D01*
X03650Y-06990D01*
X04068Y-07407D01*
X04070Y-07410D01*
X04175Y-07479D01*
X04176Y-07480D01*
X04274Y-07499D01*
X04299Y-07505D01*
X04299Y-07504D01*
X04300Y-07505D01*
X05960Y-07505D01*
X06084Y-07480D01*
X06190Y-07410D01*
X06595Y-07005D01*
X06862Y-07005D01*
X06982Y-07125D01*
X07175Y-07205D01*
X07384Y-07205D01*
X07577Y-07125D01*
X07725Y-06978D01*
X07739Y-06943D01*
X07790Y-06910D01*
X08415Y-06285D01*
X11440Y-06285D01*
X11564Y-06260D01*
X11670Y-06190D01*
X12227Y-05631D01*
X12229Y-05630D01*
X12230Y-05630D01*
X12299Y-05525D01*
X12300Y-05524D01*
X12319Y-05426D01*
X12325Y-05401D01*
X12324Y-05400D01*
X12325Y-05400D01*
X12325Y-05064D01*
X12465Y-04924D01*
X12522Y-04785D01*
X12845Y-04785D01*
X13125Y-05064D01*
X13125Y-08082D01*
X13005Y-08202D01*
X12925Y-08395D01*
X12925Y-08604D01*
X13005Y-08797D01*
X13152Y-08945D01*
X13345Y-09025D01*
X13554Y-09025D01*
X13747Y-08945D01*
X13895Y-08798D01*
X13950Y-08664D01*
X14005Y-08797D01*
X14152Y-08945D01*
X14345Y-09025D01*
X14554Y-09025D01*
X14747Y-08945D01*
X14895Y-08798D01*
X14953Y-08657D01*
X14998Y-08767D01*
X15089Y-08790D01*
X15379Y-08500D01*
X15089Y-08210D01*
X14998Y-08233D01*
X14956Y-08351D01*
X14895Y-08203D01*
X14775Y-08082D01*
X14775Y-08075D01*
X15176Y-08075D01*
X15160Y-08139D01*
X15415Y-08394D01*
X15450Y-08429D01*
X15521Y-08500D01*
X15450Y-08571D01*
X15415Y-08606D01*
X15160Y-08861D01*
X15183Y-08952D01*
X15376Y-09019D01*
X15580Y-09008D01*
X15625Y-08989D01*
X15625Y-09966D01*
X15524Y-09931D01*
X15320Y-09942D01*
X15183Y-09998D01*
X15160Y-10089D01*
X15415Y-10344D01*
X15450Y-10379D01*
X15521Y-10450D01*
X15450Y-10521D01*
X15415Y-10556D01*
X15160Y-10811D01*
X15183Y-10902D01*
X15376Y-10969D01*
X15580Y-10958D01*
X15625Y-10939D01*
X15625Y-11966D01*
X15524Y-11931D01*
X15320Y-11942D01*
X15183Y-11998D01*
X15160Y-12089D01*
X15415Y-12344D01*
X15450Y-12379D01*
X15521Y-12450D01*
X15450Y-12521D01*
X15415Y-12556D01*
X15160Y-12811D01*
X15183Y-12902D01*
X15376Y-12969D01*
X15580Y-12958D01*
X15625Y-12939D01*
X15625Y-13200D01*
X15650Y-13324D01*
X15720Y-13430D01*
X15826Y-13500D01*
X15950Y-13525D01*
X16900Y-13525D01*
X17024Y-13500D01*
X17130Y-13430D01*
X17327Y-13231D01*
X17329Y-13230D01*
X17330Y-13230D01*
X17399Y-13125D01*
X17400Y-13124D01*
X17419Y-13026D01*
X17425Y-13001D01*
X17424Y-13000D01*
X17425Y-13000D01*
X17425Y-07450D01*
X17424Y-07449D01*
X17425Y-07449D01*
X17419Y-07424D01*
X17400Y-07326D01*
X17399Y-07325D01*
X17330Y-07220D01*
X17327Y-07218D01*
X16969Y-06859D01*
X16969Y-05524D01*
X16958Y-05320D01*
X16902Y-05183D01*
X16811Y-05160D01*
X16740Y-05231D01*
X16740Y-05089D01*
X16717Y-04998D01*
X16524Y-04931D01*
X16320Y-04942D01*
X16183Y-04998D01*
X16160Y-05089D01*
X16450Y-05379D01*
X16740Y-05089D01*
X16740Y-05231D01*
X16521Y-05450D01*
X16811Y-05740D01*
X16902Y-05717D01*
X16969Y-05524D01*
X16969Y-06859D01*
X16740Y-06630D01*
X16740Y-05811D01*
X16450Y-05521D01*
X16379Y-05592D01*
X16379Y-05450D01*
X16089Y-05160D01*
X15998Y-05183D01*
X15931Y-05376D01*
X15942Y-05580D01*
X15998Y-05717D01*
X16089Y-05740D01*
X16379Y-05450D01*
X16379Y-05592D01*
X16160Y-05811D01*
X16183Y-05902D01*
X16376Y-05969D01*
X16580Y-05958D01*
X16717Y-05902D01*
X16740Y-05811D01*
X16740Y-06630D01*
X15825Y-05715D01*
X15825Y-03435D01*
X15935Y-03325D01*
X17065Y-03325D01*
X17875Y-04135D01*
X17875Y-16165D01*
X17875Y-16165D01*
G37*
G54D17*
X17875Y-16165D02*
X13315Y-20725D01*
X11371Y-20725D01*
X11410Y-20560D01*
X11410Y-20450D01*
X10950Y-20450D01*
X10900Y-20450D01*
X10800Y-20450D01*
X10800Y-20350D01*
X10900Y-20350D01*
X10950Y-20350D01*
X11410Y-20350D01*
X11410Y-20240D01*
X11360Y-20027D01*
X11232Y-19850D01*
X11046Y-19735D01*
X10987Y-19718D01*
X10950Y-19737D01*
X10950Y-19700D01*
X10907Y-19700D01*
X10890Y-18660D01*
X10410Y-18141D01*
X10413Y-17892D01*
X10539Y-18018D01*
X10741Y-18102D01*
X10959Y-18102D01*
X11161Y-18018D01*
X11315Y-17864D01*
X11374Y-17719D01*
X11474Y-17700D01*
X11580Y-17630D01*
X13080Y-16130D01*
X13150Y-16025D01*
X13150Y-16024D01*
X13175Y-15900D01*
X13175Y-12554D01*
X13298Y-12677D01*
X13300Y-12680D01*
X13405Y-12749D01*
X13406Y-12750D01*
X13504Y-12769D01*
X13529Y-12775D01*
X13529Y-12774D01*
X13530Y-12775D01*
X14032Y-12775D01*
X14152Y-12895D01*
X14345Y-12975D01*
X14554Y-12975D01*
X14747Y-12895D01*
X14895Y-12748D01*
X14953Y-12607D01*
X14998Y-12717D01*
X15089Y-12740D01*
X15379Y-12450D01*
X15089Y-12160D01*
X14998Y-12183D01*
X14956Y-12301D01*
X14895Y-12153D01*
X14748Y-12005D01*
X14555Y-11925D01*
X14346Y-11925D01*
X14153Y-12005D01*
X14032Y-12125D01*
X13664Y-12125D01*
X13585Y-12045D01*
X13585Y-11500D01*
X13584Y-11499D01*
X13585Y-11499D01*
X13579Y-11474D01*
X13560Y-11376D01*
X13559Y-11375D01*
X13490Y-11270D01*
X13487Y-11268D01*
X12994Y-10775D01*
X14032Y-10775D01*
X14152Y-10895D01*
X14345Y-10975D01*
X14554Y-10975D01*
X14747Y-10895D01*
X14895Y-10748D01*
X14953Y-10607D01*
X14998Y-10717D01*
X15089Y-10740D01*
X15379Y-10450D01*
X15089Y-10160D01*
X14998Y-10183D01*
X14956Y-10301D01*
X14895Y-10153D01*
X14748Y-10005D01*
X14555Y-09925D01*
X14346Y-09925D01*
X14153Y-10005D01*
X14032Y-10125D01*
X13104Y-10125D01*
X12965Y-09985D01*
X12965Y-09920D01*
X12940Y-09796D01*
X12939Y-09795D01*
X12870Y-09690D01*
X12867Y-09688D01*
X12560Y-09380D01*
X12560Y-07620D01*
X12560Y-07510D01*
X12560Y-07410D01*
X12560Y-07300D01*
X12510Y-07087D01*
X12382Y-06910D01*
X12196Y-06795D01*
X12137Y-06778D01*
X12050Y-06825D01*
X12050Y-07410D01*
X12560Y-07410D01*
X12560Y-07510D01*
X12050Y-07510D01*
X12050Y-08095D01*
X12137Y-08142D01*
X12196Y-08125D01*
X12382Y-08010D01*
X12510Y-07833D01*
X12560Y-07620D01*
X12560Y-09380D01*
X12050Y-08870D01*
X11944Y-08800D01*
X11820Y-08775D01*
X11674Y-08775D01*
X11325Y-08425D01*
X11325Y-08064D01*
X11465Y-07924D01*
X11498Y-07844D01*
X11618Y-08010D01*
X11804Y-08125D01*
X11863Y-08142D01*
X11950Y-08095D01*
X11950Y-07560D01*
X11950Y-07510D01*
X11950Y-07410D01*
X11950Y-07360D01*
X11950Y-06825D01*
X11863Y-06778D01*
X11804Y-06795D01*
X11618Y-06910D01*
X11498Y-07075D01*
X11465Y-06996D01*
X11311Y-06842D01*
X11109Y-06758D01*
X10891Y-06758D01*
X10689Y-06842D01*
X10535Y-06996D01*
X10500Y-07080D01*
X10465Y-06996D01*
X10311Y-06842D01*
X10109Y-06758D01*
X09891Y-06758D01*
X09689Y-06842D01*
X09559Y-06972D01*
X09559Y-06961D01*
X09521Y-06869D01*
X09451Y-06799D01*
X09360Y-06761D01*
X09261Y-06761D01*
X08641Y-06761D01*
X08549Y-06799D01*
X08479Y-06869D01*
X08441Y-06960D01*
X08441Y-07059D01*
X08441Y-07319D01*
X08045Y-07715D01*
X03860Y-07715D01*
X03859Y-07715D01*
X03834Y-07720D01*
X03736Y-07740D01*
X03630Y-07810D01*
X03628Y-07812D01*
X03220Y-08220D01*
X03150Y-08326D01*
X03125Y-08450D01*
X03125Y-08982D01*
X03005Y-09102D01*
X02969Y-09187D01*
X02969Y-05624D01*
X02958Y-05420D01*
X02902Y-05283D01*
X02811Y-05260D01*
X02521Y-05550D01*
X02811Y-05840D01*
X02902Y-05817D01*
X02969Y-05624D01*
X02969Y-09187D01*
X02946Y-09242D01*
X02902Y-09133D01*
X02811Y-09110D01*
X02521Y-09400D01*
X02811Y-09690D01*
X02902Y-09667D01*
X02943Y-09548D01*
X03005Y-09697D01*
X03152Y-09845D01*
X03345Y-09925D01*
X03554Y-09925D01*
X03747Y-09845D01*
X03895Y-09698D01*
X03950Y-09564D01*
X04005Y-09697D01*
X04125Y-09817D01*
X04125Y-09915D01*
X04025Y-10015D01*
X02434Y-10015D01*
X02318Y-09899D01*
X02376Y-09919D01*
X02580Y-09908D01*
X02717Y-09852D01*
X02740Y-09761D01*
X02485Y-09506D01*
X02450Y-09471D01*
X02379Y-09400D01*
X02450Y-09329D01*
X02485Y-09294D01*
X02740Y-09039D01*
X02717Y-08948D01*
X02524Y-08881D01*
X02320Y-08892D01*
X02285Y-08906D01*
X02285Y-06037D01*
X02376Y-06069D01*
X02580Y-06058D01*
X02717Y-06002D01*
X02740Y-05911D01*
X02485Y-05656D01*
X02450Y-05621D01*
X02379Y-05550D01*
X02450Y-05479D01*
X02485Y-05444D01*
X02740Y-05189D01*
X02717Y-05098D01*
X02524Y-05031D01*
X02320Y-05042D01*
X02285Y-05056D01*
X02285Y-04015D01*
X04623Y-01677D01*
X05615Y-01677D01*
X05581Y-01776D01*
X05592Y-01980D01*
X05614Y-02035D01*
X05020Y-02035D01*
X04895Y-02060D01*
X04790Y-02130D01*
X03650Y-03270D01*
X03580Y-03376D01*
X03555Y-03500D01*
X03555Y-06760D01*
X03580Y-06884D01*
X03650Y-06990D01*
X04068Y-07407D01*
X04070Y-07410D01*
X04175Y-07479D01*
X04176Y-07480D01*
X04274Y-07499D01*
X04299Y-07505D01*
X04299Y-07504D01*
X04300Y-07505D01*
X05960Y-07505D01*
X06084Y-07480D01*
X06190Y-07410D01*
X06595Y-07005D01*
X06862Y-07005D01*
X06982Y-07125D01*
X07175Y-07205D01*
X07384Y-07205D01*
X07577Y-07125D01*
X07725Y-06978D01*
X07739Y-06943D01*
X07790Y-06910D01*
X08415Y-06285D01*
X11440Y-06285D01*
X11564Y-06260D01*
X11670Y-06190D01*
X12227Y-05631D01*
X12229Y-05630D01*
X12230Y-05630D01*
X12299Y-05525D01*
X12300Y-05524D01*
X12319Y-05426D01*
X12325Y-05401D01*
X12324Y-05400D01*
X12325Y-05400D01*
X12325Y-05064D01*
X12465Y-04924D01*
X12522Y-04785D01*
X12845Y-04785D01*
X13125Y-05064D01*
X13125Y-08082D01*
X13005Y-08202D01*
X12925Y-08395D01*
X12925Y-08604D01*
X13005Y-08797D01*
X13152Y-08945D01*
X13345Y-09025D01*
X13554Y-09025D01*
X13747Y-08945D01*
X13895Y-08798D01*
X13950Y-08664D01*
X14005Y-08797D01*
X14152Y-08945D01*
X14345Y-09025D01*
X14554Y-09025D01*
X14747Y-08945D01*
X14895Y-08798D01*
X14953Y-08657D01*
X14998Y-08767D01*
X15089Y-08790D01*
X15379Y-08500D01*
X15089Y-08210D01*
X14998Y-08233D01*
X14956Y-08351D01*
X14895Y-08203D01*
X14775Y-08082D01*
X14775Y-08075D01*
X15176Y-08075D01*
X15160Y-08139D01*
X15415Y-08394D01*
X15450Y-08429D01*
X15521Y-08500D01*
X15450Y-08571D01*
X15415Y-08606D01*
X15160Y-08861D01*
X15183Y-08952D01*
X15376Y-09019D01*
X15580Y-09008D01*
X15625Y-08989D01*
X15625Y-09966D01*
X15524Y-09931D01*
X15320Y-09942D01*
X15183Y-09998D01*
X15160Y-10089D01*
X15415Y-10344D01*
X15450Y-10379D01*
X15521Y-10450D01*
X15450Y-10521D01*
X15415Y-10556D01*
X15160Y-10811D01*
X15183Y-10902D01*
X15376Y-10969D01*
X15580Y-10958D01*
X15625Y-10939D01*
X15625Y-11966D01*
X15524Y-11931D01*
X15320Y-11942D01*
X15183Y-11998D01*
X15160Y-12089D01*
X15415Y-12344D01*
X15450Y-12379D01*
X15521Y-12450D01*
X15450Y-12521D01*
X15415Y-12556D01*
X15160Y-12811D01*
X15183Y-12902D01*
X15376Y-12969D01*
X15580Y-12958D01*
X15625Y-12939D01*
X15625Y-13200D01*
X15650Y-13324D01*
X15720Y-13430D01*
X15826Y-13500D01*
X15950Y-13525D01*
X16900Y-13525D01*
X17024Y-13500D01*
X17130Y-13430D01*
X17327Y-13231D01*
X17329Y-13230D01*
X17330Y-13230D01*
X17399Y-13125D01*
X17400Y-13124D01*
X17419Y-13026D01*
X17425Y-13001D01*
X17424Y-13000D01*
X17425Y-13000D01*
X17425Y-07450D01*
X17424Y-07449D01*
X17425Y-07449D01*
X17419Y-07424D01*
X17400Y-07326D01*
X17399Y-07325D01*
X17330Y-07220D01*
X17327Y-07218D01*
X16969Y-06859D01*
X16969Y-05524D01*
X16958Y-05320D01*
X16902Y-05183D01*
X16811Y-05160D01*
X16740Y-05231D01*
X16740Y-05089D01*
X16717Y-04998D01*
X16524Y-04931D01*
X16320Y-04942D01*
X16183Y-04998D01*
X16160Y-05089D01*
X16450Y-05379D01*
X16740Y-05089D01*
X16740Y-05231D01*
X16521Y-05450D01*
X16811Y-05740D01*
X16902Y-05717D01*
X16969Y-05524D01*
X16969Y-06859D01*
X16740Y-06630D01*
X16740Y-05811D01*
X16450Y-05521D01*
X16379Y-05592D01*
X16379Y-05450D01*
X16089Y-05160D01*
X15998Y-05183D01*
X15931Y-05376D01*
X15942Y-05580D01*
X15998Y-05717D01*
X16089Y-05740D01*
X16379Y-05450D01*
X16379Y-05592D01*
X16160Y-05811D01*
X16183Y-05902D01*
X16376Y-05969D01*
X16580Y-05958D01*
X16717Y-05902D01*
X16740Y-05811D01*
X16740Y-06630D01*
X15825Y-05715D01*
X15825Y-03435D01*
X15935Y-03325D01*
X17065Y-03325D01*
X17875Y-04135D01*
X17875Y-16165D01*
M02*
