G04 (created by PCBNEW-RS274X (2011-05-25)-stable) date Sat 05 Jan 2013 10:06:49 PM EST*
G01*
G70*
G90*
%MOIN*%
G04 Gerber Fmt 3.4, Leading zero omitted, Abs format*
%FSLAX34Y34*%
G04 APERTURE LIST*
%ADD10C,0.006000*%
%ADD11R,0.055000X0.055000*%
%ADD12C,0.055000*%
%ADD13C,0.070000*%
%ADD14R,0.062000X0.090000*%
%ADD15O,0.062000X0.090000*%
%ADD16C,0.015000*%
%ADD17C,0.010000*%
G04 APERTURE END LIST*
G54D10*
G54D11*
X10750Y-01450D03*
G54D12*
X10750Y-02450D03*
X11750Y-02450D03*
G54D11*
X01450Y-09400D03*
G54D12*
X02450Y-09400D03*
X03450Y-09400D03*
X04450Y-09400D03*
X05450Y-09400D03*
X06450Y-09400D03*
G54D11*
X16450Y-08500D03*
G54D12*
X15450Y-08500D03*
X14450Y-08500D03*
X13450Y-08500D03*
G54D11*
X16450Y-12450D03*
G54D12*
X15450Y-12450D03*
X14450Y-12450D03*
G54D11*
X16450Y-10450D03*
G54D12*
X15450Y-10450D03*
X14450Y-10450D03*
G54D11*
X01450Y-05550D03*
G54D12*
X02450Y-05550D03*
G54D11*
X10550Y-15300D03*
G54D12*
X09550Y-15300D03*
X14300Y-04400D03*
X11300Y-04400D03*
X14300Y-05650D03*
X11300Y-05650D03*
X04450Y-12600D03*
X01450Y-12600D03*
X16450Y-02450D03*
X16450Y-05450D03*
G54D11*
X13800Y-02450D03*
G54D12*
X14800Y-02450D03*
G54D13*
X04200Y-18150D03*
X04200Y-16150D03*
G54D14*
X06100Y-07350D03*
G54D15*
X07100Y-07350D03*
X08100Y-07350D03*
X09100Y-07350D03*
X09100Y-04350D03*
X08100Y-04350D03*
X07100Y-04350D03*
X06100Y-04350D03*
G54D14*
X08550Y-13300D03*
G54D15*
X09550Y-13300D03*
X10550Y-13300D03*
X11550Y-13300D03*
X11550Y-10300D03*
X10550Y-10300D03*
X09550Y-10300D03*
X08550Y-10300D03*
G54D14*
X07850Y-20400D03*
G54D15*
X08850Y-20400D03*
X09850Y-20400D03*
X10850Y-20400D03*
X10850Y-17400D03*
X09850Y-17400D03*
X08850Y-17400D03*
X07850Y-17400D03*
G54D12*
X06100Y-01850D03*
X06100Y-02850D03*
G54D16*
X14450Y-07750D02*
X15600Y-07750D01*
X09850Y-18500D02*
X09850Y-17400D01*
X10350Y-19000D02*
X09850Y-18500D01*
X10350Y-20750D02*
X10350Y-19000D01*
X10650Y-21050D02*
X10350Y-20750D01*
X13450Y-21050D02*
X10650Y-21050D01*
X18200Y-16300D02*
X13450Y-21050D01*
X18200Y-04000D02*
X18200Y-16300D01*
X17200Y-03000D02*
X18200Y-04000D01*
X15800Y-03000D02*
X17200Y-03000D01*
X15500Y-03300D02*
X15800Y-03000D01*
X15500Y-05850D02*
X15500Y-03300D01*
X17100Y-07450D02*
X15500Y-05850D01*
X17100Y-13000D02*
X17100Y-07450D01*
X16900Y-13200D02*
X17100Y-13000D01*
X15950Y-13200D02*
X16900Y-13200D01*
X15950Y-08100D02*
X15950Y-13200D01*
X15600Y-07750D02*
X15950Y-08100D01*
X11300Y-05650D02*
X12350Y-05650D01*
X12350Y-05650D02*
X14450Y-07750D01*
X14450Y-07750D02*
X14450Y-08500D01*
X14450Y-08500D02*
X13800Y-09150D01*
X07100Y-05100D02*
X07100Y-04350D01*
X07850Y-05850D02*
X07100Y-05100D01*
X09100Y-05850D02*
X07850Y-05850D01*
X11200Y-07950D02*
X09100Y-05850D01*
X12150Y-07950D02*
X11200Y-07950D01*
X13350Y-09150D02*
X12150Y-07950D01*
X13800Y-09150D02*
X13350Y-09150D01*
X09050Y-09400D02*
X09050Y-11250D01*
X09050Y-11250D02*
X07600Y-12700D01*
X07600Y-12700D02*
X07600Y-13500D01*
X07600Y-13500D02*
X08600Y-14500D01*
X08600Y-14500D02*
X09500Y-14500D01*
X09500Y-14500D02*
X10050Y-15050D01*
X10050Y-15050D02*
X10050Y-16300D01*
X10050Y-16300D02*
X09850Y-16500D01*
X09850Y-16500D02*
X09850Y-17400D01*
X06450Y-09400D02*
X09050Y-09400D01*
X09050Y-09400D02*
X09650Y-09400D01*
X09650Y-09400D02*
X10550Y-10300D01*
X10850Y-17400D02*
X11350Y-17400D01*
X12850Y-11600D02*
X11550Y-10300D01*
X12850Y-15900D02*
X12850Y-11600D01*
X11350Y-17400D02*
X12850Y-15900D01*
X04450Y-09400D02*
X04450Y-08900D01*
X11550Y-10250D02*
X11550Y-10300D01*
X10300Y-09000D02*
X11550Y-10250D01*
X07850Y-09000D02*
X10300Y-09000D01*
X07250Y-08400D02*
X07850Y-09000D01*
X04950Y-08400D02*
X07250Y-08400D01*
X04450Y-08900D02*
X04950Y-08400D01*
X09100Y-04350D02*
X09100Y-04450D01*
X04450Y-10250D02*
X04450Y-09400D01*
X03950Y-10750D02*
X04450Y-10250D01*
X02550Y-10750D02*
X03950Y-10750D01*
X01950Y-10150D02*
X02550Y-10750D01*
X01950Y-03800D02*
X01950Y-10150D01*
X04398Y-01352D02*
X01950Y-03800D01*
X06552Y-01352D02*
X04398Y-01352D01*
X06950Y-01750D02*
X06552Y-01352D01*
X06950Y-02200D02*
X06950Y-01750D01*
X06800Y-02350D02*
X06950Y-02200D01*
X05600Y-02350D02*
X06800Y-02350D01*
X04950Y-03000D02*
X05600Y-02350D01*
X04950Y-04450D02*
X04950Y-03000D01*
X05550Y-05050D02*
X04950Y-04450D01*
X06450Y-05050D02*
X05550Y-05050D01*
X06600Y-04900D02*
X06450Y-05050D01*
X06600Y-03850D02*
X06600Y-04900D01*
X06900Y-03550D02*
X06600Y-03850D01*
X07400Y-03550D02*
X06900Y-03550D01*
X07600Y-03750D02*
X07400Y-03550D01*
X07600Y-04850D02*
X07600Y-03750D01*
X07900Y-05150D02*
X07600Y-04850D01*
X08400Y-05150D02*
X07900Y-05150D01*
X09100Y-04450D02*
X08400Y-05150D01*
X11300Y-04400D02*
X10550Y-05150D01*
X12000Y-07050D02*
X13450Y-08500D01*
X11400Y-07050D02*
X12000Y-07050D01*
X10550Y-06200D02*
X11400Y-07050D01*
X10550Y-05150D02*
X10550Y-06200D01*
X09100Y-04350D02*
X11250Y-04350D01*
X11250Y-04350D02*
X11300Y-04400D01*
X10750Y-02450D02*
X10800Y-02450D01*
X09850Y-21300D02*
X09850Y-20400D01*
X10050Y-21500D02*
X09850Y-21300D01*
X13550Y-21500D02*
X10050Y-21500D01*
X18550Y-16500D02*
X13550Y-21500D01*
X18550Y-03850D02*
X18550Y-16500D01*
X16300Y-01600D02*
X18550Y-03850D01*
X11650Y-01600D02*
X16300Y-01600D01*
X10800Y-02450D02*
X11650Y-01600D01*
X08100Y-04350D02*
X08100Y-03250D01*
X08900Y-02450D02*
X10750Y-02450D01*
X08100Y-03250D02*
X08900Y-02450D01*
X04450Y-12600D02*
X04450Y-14800D01*
X09850Y-19950D02*
X09850Y-20400D01*
X08600Y-18700D02*
X09850Y-19950D01*
X07900Y-18700D02*
X08600Y-18700D01*
X06800Y-17600D02*
X07900Y-18700D01*
X06800Y-17150D02*
X06800Y-17600D01*
X04450Y-14800D02*
X06800Y-17150D01*
X05450Y-09400D02*
X05450Y-11600D01*
X05450Y-11600D02*
X04450Y-12600D01*
X10550Y-13300D02*
X10550Y-15300D01*
X03450Y-09400D02*
X03450Y-08100D01*
X04200Y-07350D02*
X06100Y-07350D01*
X03450Y-08100D02*
X04200Y-07350D01*
X11850Y-09500D02*
X12100Y-09500D01*
X08300Y-08550D02*
X10400Y-08550D01*
X10400Y-08550D02*
X11350Y-09500D01*
X11350Y-09500D02*
X11850Y-09500D01*
X07100Y-07350D02*
X08300Y-08550D01*
X13800Y-12450D02*
X14450Y-12450D01*
X13400Y-12050D02*
X13800Y-12450D01*
X13400Y-10800D02*
X13400Y-12050D01*
X12100Y-09500D02*
X13400Y-10800D01*
X11800Y-09100D02*
X12250Y-09100D01*
X08100Y-07550D02*
X08750Y-08200D01*
X08750Y-08200D02*
X10550Y-08200D01*
X10550Y-08200D02*
X11450Y-09100D01*
X11450Y-09100D02*
X11800Y-09100D01*
X08100Y-07350D02*
X08100Y-07550D01*
X13600Y-10450D02*
X14450Y-10450D01*
X12250Y-09100D02*
X13600Y-10450D01*
X14300Y-05650D02*
X14700Y-05650D01*
X16450Y-07400D02*
X16450Y-08500D01*
X14700Y-05650D02*
X16450Y-07400D01*
X14300Y-04400D02*
X14300Y-05650D01*
X13800Y-02450D02*
X13800Y-03900D01*
X13800Y-03900D02*
X14300Y-04400D01*
X11750Y-02450D02*
X13800Y-02450D01*
X16450Y-10450D02*
X16450Y-12450D01*
X16450Y-08500D02*
X16450Y-10450D01*
X16450Y-05450D02*
X17900Y-06900D01*
X17900Y-16100D02*
X16375Y-17625D01*
X17900Y-06900D02*
X17900Y-16100D01*
X02450Y-06650D02*
X08400Y-06650D01*
X08400Y-06650D02*
X09100Y-07350D01*
X15450Y-12450D02*
X15450Y-16700D01*
X15450Y-16700D02*
X16375Y-17625D01*
X13600Y-20400D02*
X10850Y-20400D01*
X16375Y-17625D02*
X13600Y-20400D01*
X11550Y-13300D02*
X11550Y-15400D01*
X10850Y-18700D02*
X10850Y-20400D01*
X10350Y-18200D02*
X10850Y-18700D01*
X10350Y-16600D02*
X10350Y-18200D01*
X11550Y-15400D02*
X10350Y-16600D01*
X11800Y-08800D02*
X12600Y-08800D01*
X12600Y-08800D02*
X13700Y-09900D01*
X13700Y-09900D02*
X14900Y-09900D01*
X14900Y-09900D02*
X15450Y-10450D01*
X09100Y-07350D02*
X10150Y-07350D01*
X11600Y-08800D02*
X11800Y-08800D01*
X10150Y-07350D02*
X11600Y-08800D01*
X09550Y-13300D02*
X09550Y-13050D01*
X11550Y-12850D02*
X11550Y-13300D01*
X11000Y-12300D02*
X11550Y-12850D01*
X10300Y-12300D02*
X11000Y-12300D01*
X09550Y-13050D02*
X10300Y-12300D01*
X08550Y-13300D02*
X09550Y-13300D01*
X09550Y-10300D02*
X09550Y-13300D01*
X15450Y-10450D02*
X15450Y-12450D01*
X15450Y-08500D02*
X15450Y-10450D01*
X02450Y-05550D02*
X02450Y-04000D01*
X04600Y-01850D02*
X06100Y-01850D01*
X02450Y-04000D02*
X04600Y-01850D01*
X02450Y-05550D02*
X02450Y-06650D01*
X02450Y-06650D02*
X02450Y-09400D01*
X04200Y-18150D02*
X04200Y-19050D01*
X05550Y-20400D02*
X07850Y-20400D01*
X04200Y-19050D02*
X05550Y-20400D01*
X04200Y-16150D02*
X04200Y-16600D01*
X08850Y-19700D02*
X08850Y-20400D01*
X08200Y-19050D02*
X08850Y-19700D01*
X06650Y-19050D02*
X08200Y-19050D01*
X04200Y-16600D02*
X06650Y-19050D01*
X14800Y-02450D02*
X16450Y-02450D01*
X01450Y-12600D02*
X02050Y-12600D01*
X05950Y-10500D02*
X06800Y-11350D01*
X05950Y-09200D02*
X05950Y-10500D01*
X05600Y-08850D02*
X05950Y-09200D01*
X05200Y-08850D02*
X05600Y-08850D01*
X04950Y-09100D02*
X05200Y-08850D01*
X04950Y-10600D02*
X04950Y-09100D01*
X04200Y-11350D02*
X04950Y-10600D01*
X03300Y-11350D02*
X04200Y-11350D01*
X02050Y-12600D02*
X03300Y-11350D01*
X01450Y-05550D02*
X01450Y-03700D01*
X07950Y-01100D02*
X08300Y-01450D01*
X04050Y-01100D02*
X07950Y-01100D01*
X01450Y-03700D02*
X04050Y-01100D01*
X06100Y-02850D02*
X06900Y-02850D01*
X06900Y-02850D02*
X08300Y-01450D01*
X08300Y-01450D02*
X10750Y-01450D01*
X08550Y-10300D02*
X07800Y-10300D01*
X07800Y-10300D02*
X06800Y-11300D01*
X06800Y-11300D02*
X06800Y-11350D01*
X06800Y-15350D02*
X07850Y-16400D01*
X06800Y-11350D02*
X06800Y-15350D01*
X07850Y-17400D02*
X07850Y-16400D01*
X07850Y-16400D02*
X07850Y-16250D01*
X08800Y-15300D02*
X09550Y-15300D01*
X07850Y-16250D02*
X08800Y-15300D01*
X06100Y-04350D02*
X06100Y-02850D01*
X01450Y-09400D02*
X01450Y-12600D01*
X01450Y-09400D02*
X01450Y-05550D01*
G54D10*
G36*
X07465Y-09075D02*
X06867Y-09075D01*
X06748Y-08955D01*
X06555Y-08875D01*
X06346Y-08875D01*
X06153Y-08955D01*
X06005Y-09102D01*
X05949Y-09235D01*
X05895Y-09103D01*
X05748Y-08955D01*
X05555Y-08875D01*
X05346Y-08875D01*
X05153Y-08955D01*
X05005Y-09102D01*
X04949Y-09235D01*
X04895Y-09103D01*
X04801Y-09008D01*
X05085Y-08725D01*
X07115Y-08725D01*
X07465Y-09075D01*
X07465Y-09075D01*
G37*
G54D17*
X07465Y-09075D02*
X06867Y-09075D01*
X06748Y-08955D01*
X06555Y-08875D01*
X06346Y-08875D01*
X06153Y-08955D01*
X06005Y-09102D01*
X05949Y-09235D01*
X05895Y-09103D01*
X05748Y-08955D01*
X05555Y-08875D01*
X05346Y-08875D01*
X05153Y-08955D01*
X05005Y-09102D01*
X04949Y-09235D01*
X04895Y-09103D01*
X04801Y-09008D01*
X05085Y-08725D01*
X07115Y-08725D01*
X07465Y-09075D01*
G54D10*
G36*
X10025Y-19665D02*
X08830Y-18470D01*
X08724Y-18400D01*
X08600Y-18375D01*
X08034Y-18375D01*
X07731Y-18072D01*
X07800Y-18035D01*
X07800Y-17450D01*
X07800Y-17350D01*
X07800Y-16765D01*
X07713Y-16718D01*
X07654Y-16735D01*
X07468Y-16850D01*
X07340Y-17027D01*
X07290Y-17240D01*
X07290Y-17350D01*
X07800Y-17350D01*
X07800Y-17450D01*
X07290Y-17450D01*
X07290Y-17560D01*
X07311Y-17651D01*
X07125Y-17465D01*
X07125Y-17150D01*
X07100Y-17026D01*
X07100Y-17025D01*
X07030Y-16920D01*
X04775Y-14665D01*
X04775Y-13017D01*
X04895Y-12898D01*
X04975Y-12705D01*
X04975Y-12535D01*
X05680Y-11830D01*
X05750Y-11725D01*
X05750Y-11724D01*
X05775Y-11600D01*
X05775Y-09817D01*
X05895Y-09698D01*
X05950Y-09564D01*
X06005Y-09697D01*
X06152Y-09845D01*
X06345Y-09925D01*
X06554Y-09925D01*
X06747Y-09845D01*
X06867Y-09725D01*
X08208Y-09725D01*
X08168Y-09750D01*
X08040Y-09927D01*
X07990Y-10140D01*
X07990Y-10250D01*
X08450Y-10250D01*
X08500Y-10250D01*
X08600Y-10250D01*
X08600Y-10350D01*
X08600Y-10400D01*
X08600Y-10935D01*
X08687Y-10982D01*
X08725Y-10971D01*
X08725Y-11115D01*
X08500Y-11340D01*
X08500Y-10935D01*
X08500Y-10350D01*
X07990Y-10350D01*
X07990Y-10460D01*
X08040Y-10673D01*
X08168Y-10850D01*
X08354Y-10965D01*
X08413Y-10982D01*
X08500Y-10935D01*
X08500Y-11340D01*
X07370Y-12470D01*
X07300Y-12576D01*
X07275Y-12700D01*
X07275Y-13500D01*
X07300Y-13624D01*
X07370Y-13730D01*
X08370Y-14730D01*
X08475Y-14800D01*
X08476Y-14800D01*
X08479Y-14800D01*
X08600Y-14825D01*
X09339Y-14825D01*
X09283Y-14848D01*
X09260Y-14939D01*
X09515Y-15194D01*
X09550Y-15229D01*
X09621Y-15300D01*
X09550Y-15371D01*
X09515Y-15406D01*
X09479Y-15442D01*
X09479Y-15300D01*
X09189Y-15010D01*
X09098Y-15033D01*
X09031Y-15226D01*
X09042Y-15430D01*
X09098Y-15567D01*
X09189Y-15590D01*
X09479Y-15300D01*
X09479Y-15442D01*
X09260Y-15661D01*
X09283Y-15752D01*
X09476Y-15819D01*
X09680Y-15808D01*
X09725Y-15789D01*
X09725Y-16165D01*
X09620Y-16270D01*
X09550Y-16376D01*
X09525Y-16500D01*
X09525Y-16796D01*
X09385Y-16936D01*
X09350Y-17020D01*
X09315Y-16936D01*
X09161Y-16782D01*
X08959Y-16698D01*
X08741Y-16698D01*
X08539Y-16782D01*
X08385Y-16936D01*
X08351Y-17015D01*
X08232Y-16850D01*
X08046Y-16735D01*
X07987Y-16718D01*
X07900Y-16765D01*
X07900Y-17300D01*
X07900Y-17350D01*
X07900Y-17450D01*
X07900Y-17500D01*
X07900Y-18035D01*
X07987Y-18082D01*
X08046Y-18065D01*
X08232Y-17950D01*
X08351Y-17784D01*
X08385Y-17864D01*
X08539Y-18018D01*
X08741Y-18102D01*
X08959Y-18102D01*
X09161Y-18018D01*
X09315Y-17864D01*
X09350Y-17779D01*
X09385Y-17864D01*
X09525Y-18004D01*
X09525Y-18500D01*
X09550Y-18624D01*
X09620Y-18730D01*
X10025Y-19135D01*
X10025Y-19665D01*
X10025Y-19665D01*
G37*
G54D17*
X10025Y-19665D02*
X08830Y-18470D01*
X08724Y-18400D01*
X08600Y-18375D01*
X08034Y-18375D01*
X07731Y-18072D01*
X07800Y-18035D01*
X07800Y-17450D01*
X07800Y-17350D01*
X07800Y-16765D01*
X07713Y-16718D01*
X07654Y-16735D01*
X07468Y-16850D01*
X07340Y-17027D01*
X07290Y-17240D01*
X07290Y-17350D01*
X07800Y-17350D01*
X07800Y-17450D01*
X07290Y-17450D01*
X07290Y-17560D01*
X07311Y-17651D01*
X07125Y-17465D01*
X07125Y-17150D01*
X07100Y-17026D01*
X07100Y-17025D01*
X07030Y-16920D01*
X04775Y-14665D01*
X04775Y-13017D01*
X04895Y-12898D01*
X04975Y-12705D01*
X04975Y-12535D01*
X05680Y-11830D01*
X05750Y-11725D01*
X05750Y-11724D01*
X05775Y-11600D01*
X05775Y-09817D01*
X05895Y-09698D01*
X05950Y-09564D01*
X06005Y-09697D01*
X06152Y-09845D01*
X06345Y-09925D01*
X06554Y-09925D01*
X06747Y-09845D01*
X06867Y-09725D01*
X08208Y-09725D01*
X08168Y-09750D01*
X08040Y-09927D01*
X07990Y-10140D01*
X07990Y-10250D01*
X08450Y-10250D01*
X08500Y-10250D01*
X08600Y-10250D01*
X08600Y-10350D01*
X08600Y-10400D01*
X08600Y-10935D01*
X08687Y-10982D01*
X08725Y-10971D01*
X08725Y-11115D01*
X08500Y-11340D01*
X08500Y-10935D01*
X08500Y-10350D01*
X07990Y-10350D01*
X07990Y-10460D01*
X08040Y-10673D01*
X08168Y-10850D01*
X08354Y-10965D01*
X08413Y-10982D01*
X08500Y-10935D01*
X08500Y-11340D01*
X07370Y-12470D01*
X07300Y-12576D01*
X07275Y-12700D01*
X07275Y-13500D01*
X07300Y-13624D01*
X07370Y-13730D01*
X08370Y-14730D01*
X08475Y-14800D01*
X08476Y-14800D01*
X08479Y-14800D01*
X08600Y-14825D01*
X09339Y-14825D01*
X09283Y-14848D01*
X09260Y-14939D01*
X09515Y-15194D01*
X09550Y-15229D01*
X09621Y-15300D01*
X09550Y-15371D01*
X09515Y-15406D01*
X09479Y-15442D01*
X09479Y-15300D01*
X09189Y-15010D01*
X09098Y-15033D01*
X09031Y-15226D01*
X09042Y-15430D01*
X09098Y-15567D01*
X09189Y-15590D01*
X09479Y-15300D01*
X09479Y-15442D01*
X09260Y-15661D01*
X09283Y-15752D01*
X09476Y-15819D01*
X09680Y-15808D01*
X09725Y-15789D01*
X09725Y-16165D01*
X09620Y-16270D01*
X09550Y-16376D01*
X09525Y-16500D01*
X09525Y-16796D01*
X09385Y-16936D01*
X09350Y-17020D01*
X09315Y-16936D01*
X09161Y-16782D01*
X08959Y-16698D01*
X08741Y-16698D01*
X08539Y-16782D01*
X08385Y-16936D01*
X08351Y-17015D01*
X08232Y-16850D01*
X08046Y-16735D01*
X07987Y-16718D01*
X07900Y-16765D01*
X07900Y-17300D01*
X07900Y-17350D01*
X07900Y-17450D01*
X07900Y-17500D01*
X07900Y-18035D01*
X07987Y-18082D01*
X08046Y-18065D01*
X08232Y-17950D01*
X08351Y-17784D01*
X08385Y-17864D01*
X08539Y-18018D01*
X08741Y-18102D01*
X08959Y-18102D01*
X09161Y-18018D01*
X09315Y-17864D01*
X09350Y-17779D01*
X09385Y-17864D01*
X09525Y-18004D01*
X09525Y-18500D01*
X09550Y-18624D01*
X09620Y-18730D01*
X10025Y-19135D01*
X10025Y-19665D01*
G54D10*
G36*
X19125Y-22025D02*
X18875Y-22025D01*
X18875Y-16500D01*
X18875Y-03850D01*
X18874Y-03849D01*
X18875Y-03849D01*
X18869Y-03824D01*
X18850Y-03729D01*
X18850Y-03726D01*
X18849Y-03725D01*
X18780Y-03620D01*
X18779Y-03619D01*
X16530Y-01370D01*
X16424Y-01300D01*
X16300Y-01275D01*
X11650Y-01275D01*
X11525Y-01300D01*
X11420Y-01370D01*
X11275Y-01514D01*
X11275Y-01338D01*
X11274Y-01126D01*
X11236Y-01034D01*
X11166Y-00964D01*
X11075Y-00926D01*
X10976Y-00926D01*
X10862Y-00925D01*
X10800Y-00987D01*
X10800Y-01400D01*
X11213Y-01400D01*
X11275Y-01338D01*
X11275Y-01514D01*
X11251Y-01538D01*
X11213Y-01500D01*
X10850Y-01500D01*
X10800Y-01500D01*
X10700Y-01500D01*
X10700Y-01400D01*
X10700Y-00987D01*
X10638Y-00925D01*
X10524Y-00926D01*
X10425Y-00926D01*
X10334Y-00964D01*
X10264Y-01034D01*
X10226Y-01126D01*
X10225Y-01338D01*
X10287Y-01400D01*
X10700Y-01400D01*
X10700Y-01500D01*
X10650Y-01500D01*
X10287Y-01500D01*
X10225Y-01562D01*
X10226Y-01774D01*
X10264Y-01866D01*
X10334Y-01936D01*
X10425Y-01974D01*
X10524Y-01974D01*
X10453Y-02005D01*
X10332Y-02125D01*
X08900Y-02125D01*
X08775Y-02150D01*
X08670Y-02220D01*
X07870Y-03020D01*
X07800Y-03126D01*
X07775Y-03250D01*
X07775Y-03465D01*
X07630Y-03320D01*
X07524Y-03250D01*
X07400Y-03225D01*
X06900Y-03225D01*
X06775Y-03250D01*
X06670Y-03320D01*
X06390Y-03600D01*
X06390Y-03211D01*
X06100Y-02921D01*
X05810Y-03211D01*
X05833Y-03302D01*
X06026Y-03369D01*
X06230Y-03358D01*
X06367Y-03302D01*
X06390Y-03211D01*
X06390Y-03600D01*
X06370Y-03620D01*
X06318Y-03698D01*
X06296Y-03685D01*
X06237Y-03668D01*
X06150Y-03715D01*
X06150Y-04250D01*
X06150Y-04300D01*
X06150Y-04400D01*
X06050Y-04400D01*
X06050Y-04300D01*
X06050Y-03715D01*
X05963Y-03668D01*
X05904Y-03685D01*
X05718Y-03800D01*
X05590Y-03977D01*
X05540Y-04190D01*
X05540Y-04300D01*
X06050Y-04300D01*
X06050Y-04400D01*
X06000Y-04400D01*
X05540Y-04400D01*
X05540Y-04510D01*
X05561Y-04600D01*
X05559Y-04600D01*
X05275Y-04315D01*
X05275Y-03135D01*
X05583Y-02826D01*
X05592Y-02980D01*
X05648Y-03117D01*
X05739Y-03140D01*
X05994Y-02885D01*
X06029Y-02850D01*
X06100Y-02779D01*
X06171Y-02850D01*
X06206Y-02885D01*
X06461Y-03140D01*
X06552Y-03117D01*
X06619Y-02924D01*
X06608Y-02720D01*
X06589Y-02675D01*
X06800Y-02675D01*
X06924Y-02650D01*
X07030Y-02580D01*
X07180Y-02430D01*
X07250Y-02325D01*
X07250Y-02324D01*
X07275Y-02200D01*
X07275Y-01750D01*
X07274Y-01749D01*
X07275Y-01749D01*
X07269Y-01724D01*
X07250Y-01626D01*
X07249Y-01625D01*
X07180Y-01520D01*
X07177Y-01518D01*
X06782Y-01122D01*
X06676Y-01052D01*
X06552Y-01027D01*
X04398Y-01027D01*
X04397Y-01027D01*
X04372Y-01032D01*
X04274Y-01052D01*
X04168Y-01122D01*
X04167Y-01122D01*
X04167Y-01123D01*
X01720Y-03570D01*
X01650Y-03676D01*
X01625Y-03800D01*
X01625Y-05025D01*
X01562Y-05025D01*
X01500Y-05087D01*
X01500Y-05450D01*
X01500Y-05500D01*
X01500Y-05600D01*
X01500Y-05650D01*
X01500Y-06013D01*
X01562Y-06075D01*
X01625Y-06074D01*
X01625Y-08875D01*
X01562Y-08875D01*
X01500Y-08937D01*
X01500Y-09300D01*
X01500Y-09350D01*
X01500Y-09450D01*
X01500Y-09500D01*
X01500Y-09863D01*
X01562Y-09925D01*
X01625Y-09924D01*
X01625Y-10150D01*
X01650Y-10274D01*
X01720Y-10380D01*
X02318Y-10977D01*
X02320Y-10980D01*
X02425Y-11049D01*
X02426Y-11050D01*
X02429Y-11050D01*
X02550Y-11075D01*
X03950Y-11075D01*
X04071Y-11050D01*
X04074Y-11050D01*
X04180Y-10980D01*
X04680Y-10480D01*
X04750Y-10375D01*
X04750Y-10374D01*
X04750Y-10371D01*
X04775Y-10250D01*
X04775Y-09817D01*
X04895Y-09698D01*
X04950Y-09564D01*
X05005Y-09697D01*
X05125Y-09817D01*
X05125Y-11465D01*
X04515Y-12075D01*
X04346Y-12075D01*
X04153Y-12155D01*
X04005Y-12302D01*
X03925Y-12495D01*
X03925Y-12704D01*
X04005Y-12897D01*
X04125Y-13017D01*
X04125Y-14800D01*
X04150Y-14924D01*
X04220Y-15030D01*
X06475Y-17285D01*
X06475Y-17600D01*
X06500Y-17724D01*
X06570Y-17830D01*
X07465Y-18725D01*
X06784Y-18725D01*
X04628Y-16568D01*
X04708Y-16489D01*
X04799Y-16269D01*
X04799Y-16031D01*
X04708Y-15811D01*
X04539Y-15642D01*
X04319Y-15551D01*
X04081Y-15551D01*
X03861Y-15642D01*
X03692Y-15811D01*
X03601Y-16031D01*
X03601Y-16269D01*
X03692Y-16489D01*
X03861Y-16658D01*
X03889Y-16669D01*
X03900Y-16724D01*
X03970Y-16830D01*
X06418Y-19277D01*
X06420Y-19280D01*
X06525Y-19349D01*
X06526Y-19350D01*
X06624Y-19369D01*
X06649Y-19375D01*
X06649Y-19374D01*
X06650Y-19375D01*
X08065Y-19375D01*
X08505Y-19815D01*
X08409Y-19912D01*
X08409Y-19901D01*
X08371Y-19809D01*
X08301Y-19739D01*
X08210Y-19701D01*
X08111Y-19701D01*
X07491Y-19701D01*
X07399Y-19739D01*
X07329Y-19809D01*
X07291Y-19900D01*
X07291Y-19999D01*
X07291Y-20075D01*
X05685Y-20075D01*
X04525Y-18915D01*
X04525Y-18663D01*
X04539Y-18658D01*
X04708Y-18489D01*
X04799Y-18269D01*
X04799Y-18031D01*
X04708Y-17811D01*
X04539Y-17642D01*
X04319Y-17551D01*
X04081Y-17551D01*
X03861Y-17642D01*
X03692Y-17811D01*
X03601Y-18031D01*
X03601Y-18269D01*
X03692Y-18489D01*
X03861Y-18658D01*
X03875Y-18663D01*
X03875Y-19050D01*
X03885Y-19100D01*
X03829Y-19100D01*
X03899Y-19170D01*
X03900Y-19174D01*
X03970Y-19280D01*
X05320Y-20630D01*
X05425Y-20700D01*
X05426Y-20700D01*
X05429Y-20700D01*
X05550Y-20725D01*
X07291Y-20725D01*
X07291Y-20899D01*
X07329Y-20991D01*
X07399Y-21061D01*
X07490Y-21099D01*
X07589Y-21099D01*
X08209Y-21099D01*
X08301Y-21061D01*
X08312Y-21050D01*
X08350Y-21050D01*
X08350Y-21012D01*
X08371Y-20991D01*
X08409Y-20900D01*
X08409Y-20888D01*
X08539Y-21018D01*
X08741Y-21102D01*
X08959Y-21102D01*
X09161Y-21018D01*
X09315Y-20864D01*
X09350Y-20779D01*
X09385Y-20864D01*
X09525Y-21004D01*
X09525Y-21300D01*
X09550Y-21424D01*
X09620Y-21530D01*
X09818Y-21727D01*
X09820Y-21730D01*
X09925Y-21799D01*
X09926Y-21800D01*
X10024Y-21819D01*
X10049Y-21825D01*
X10049Y-21824D01*
X10050Y-21825D01*
X13550Y-21825D01*
X13671Y-21800D01*
X13674Y-21800D01*
X13780Y-21730D01*
X18780Y-16730D01*
X18850Y-16624D01*
X18875Y-16500D01*
X18875Y-22025D01*
X18850Y-22025D01*
X12050Y-22025D01*
X01969Y-22025D01*
X01969Y-12674D01*
X01958Y-12470D01*
X01902Y-12333D01*
X01811Y-12310D01*
X01740Y-12381D01*
X01740Y-12239D01*
X01717Y-12148D01*
X01524Y-12081D01*
X01400Y-12087D01*
X01400Y-09863D01*
X01400Y-09450D01*
X01400Y-09350D01*
X01400Y-08937D01*
X01400Y-06013D01*
X01400Y-05600D01*
X01400Y-05500D01*
X01400Y-05087D01*
X01338Y-05025D01*
X01126Y-05026D01*
X01034Y-05064D01*
X00964Y-05134D01*
X00926Y-05225D01*
X00926Y-05324D01*
X00925Y-05438D01*
X00987Y-05500D01*
X01400Y-05500D01*
X01400Y-05600D01*
X00987Y-05600D01*
X00925Y-05662D01*
X00926Y-05776D01*
X00926Y-05875D01*
X00964Y-05966D01*
X01034Y-06036D01*
X01126Y-06074D01*
X01338Y-06075D01*
X01400Y-06013D01*
X01400Y-08937D01*
X01338Y-08875D01*
X01126Y-08876D01*
X01034Y-08914D01*
X00964Y-08984D01*
X00926Y-09075D01*
X00926Y-09174D01*
X00925Y-09288D01*
X00987Y-09350D01*
X01400Y-09350D01*
X01400Y-09450D01*
X00987Y-09450D01*
X00925Y-09512D01*
X00926Y-09626D01*
X00926Y-09725D01*
X00964Y-09816D01*
X01034Y-09886D01*
X01126Y-09924D01*
X01338Y-09925D01*
X01400Y-09863D01*
X01400Y-12087D01*
X01320Y-12092D01*
X01183Y-12148D01*
X01160Y-12239D01*
X01450Y-12529D01*
X01740Y-12239D01*
X01740Y-12381D01*
X01521Y-12600D01*
X01811Y-12890D01*
X01902Y-12867D01*
X01969Y-12674D01*
X01969Y-22025D01*
X01740Y-22025D01*
X01740Y-12961D01*
X01450Y-12671D01*
X01379Y-12742D01*
X01379Y-12600D01*
X01089Y-12310D01*
X00998Y-12333D01*
X00931Y-12526D01*
X00942Y-12730D01*
X00998Y-12867D01*
X01089Y-12890D01*
X01379Y-12600D01*
X01379Y-12742D01*
X01160Y-12961D01*
X01183Y-13052D01*
X01376Y-13119D01*
X01580Y-13108D01*
X01717Y-13052D01*
X01740Y-12961D01*
X01740Y-22025D01*
X00675Y-22025D01*
X00675Y-00625D01*
X19125Y-00625D01*
X19125Y-03800D01*
X19125Y-22025D01*
X19125Y-22025D01*
G37*
G54D17*
X19125Y-22025D02*
X18875Y-22025D01*
X18875Y-16500D01*
X18875Y-03850D01*
X18874Y-03849D01*
X18875Y-03849D01*
X18869Y-03824D01*
X18850Y-03729D01*
X18850Y-03726D01*
X18849Y-03725D01*
X18780Y-03620D01*
X18779Y-03619D01*
X16530Y-01370D01*
X16424Y-01300D01*
X16300Y-01275D01*
X11650Y-01275D01*
X11525Y-01300D01*
X11420Y-01370D01*
X11275Y-01514D01*
X11275Y-01338D01*
X11274Y-01126D01*
X11236Y-01034D01*
X11166Y-00964D01*
X11075Y-00926D01*
X10976Y-00926D01*
X10862Y-00925D01*
X10800Y-00987D01*
X10800Y-01400D01*
X11213Y-01400D01*
X11275Y-01338D01*
X11275Y-01514D01*
X11251Y-01538D01*
X11213Y-01500D01*
X10850Y-01500D01*
X10800Y-01500D01*
X10700Y-01500D01*
X10700Y-01400D01*
X10700Y-00987D01*
X10638Y-00925D01*
X10524Y-00926D01*
X10425Y-00926D01*
X10334Y-00964D01*
X10264Y-01034D01*
X10226Y-01126D01*
X10225Y-01338D01*
X10287Y-01400D01*
X10700Y-01400D01*
X10700Y-01500D01*
X10650Y-01500D01*
X10287Y-01500D01*
X10225Y-01562D01*
X10226Y-01774D01*
X10264Y-01866D01*
X10334Y-01936D01*
X10425Y-01974D01*
X10524Y-01974D01*
X10453Y-02005D01*
X10332Y-02125D01*
X08900Y-02125D01*
X08775Y-02150D01*
X08670Y-02220D01*
X07870Y-03020D01*
X07800Y-03126D01*
X07775Y-03250D01*
X07775Y-03465D01*
X07630Y-03320D01*
X07524Y-03250D01*
X07400Y-03225D01*
X06900Y-03225D01*
X06775Y-03250D01*
X06670Y-03320D01*
X06390Y-03600D01*
X06390Y-03211D01*
X06100Y-02921D01*
X05810Y-03211D01*
X05833Y-03302D01*
X06026Y-03369D01*
X06230Y-03358D01*
X06367Y-03302D01*
X06390Y-03211D01*
X06390Y-03600D01*
X06370Y-03620D01*
X06318Y-03698D01*
X06296Y-03685D01*
X06237Y-03668D01*
X06150Y-03715D01*
X06150Y-04250D01*
X06150Y-04300D01*
X06150Y-04400D01*
X06050Y-04400D01*
X06050Y-04300D01*
X06050Y-03715D01*
X05963Y-03668D01*
X05904Y-03685D01*
X05718Y-03800D01*
X05590Y-03977D01*
X05540Y-04190D01*
X05540Y-04300D01*
X06050Y-04300D01*
X06050Y-04400D01*
X06000Y-04400D01*
X05540Y-04400D01*
X05540Y-04510D01*
X05561Y-04600D01*
X05559Y-04600D01*
X05275Y-04315D01*
X05275Y-03135D01*
X05583Y-02826D01*
X05592Y-02980D01*
X05648Y-03117D01*
X05739Y-03140D01*
X05994Y-02885D01*
X06029Y-02850D01*
X06100Y-02779D01*
X06171Y-02850D01*
X06206Y-02885D01*
X06461Y-03140D01*
X06552Y-03117D01*
X06619Y-02924D01*
X06608Y-02720D01*
X06589Y-02675D01*
X06800Y-02675D01*
X06924Y-02650D01*
X07030Y-02580D01*
X07180Y-02430D01*
X07250Y-02325D01*
X07250Y-02324D01*
X07275Y-02200D01*
X07275Y-01750D01*
X07274Y-01749D01*
X07275Y-01749D01*
X07269Y-01724D01*
X07250Y-01626D01*
X07249Y-01625D01*
X07180Y-01520D01*
X07177Y-01518D01*
X06782Y-01122D01*
X06676Y-01052D01*
X06552Y-01027D01*
X04398Y-01027D01*
X04397Y-01027D01*
X04372Y-01032D01*
X04274Y-01052D01*
X04168Y-01122D01*
X04167Y-01122D01*
X04167Y-01123D01*
X01720Y-03570D01*
X01650Y-03676D01*
X01625Y-03800D01*
X01625Y-05025D01*
X01562Y-05025D01*
X01500Y-05087D01*
X01500Y-05450D01*
X01500Y-05500D01*
X01500Y-05600D01*
X01500Y-05650D01*
X01500Y-06013D01*
X01562Y-06075D01*
X01625Y-06074D01*
X01625Y-08875D01*
X01562Y-08875D01*
X01500Y-08937D01*
X01500Y-09300D01*
X01500Y-09350D01*
X01500Y-09450D01*
X01500Y-09500D01*
X01500Y-09863D01*
X01562Y-09925D01*
X01625Y-09924D01*
X01625Y-10150D01*
X01650Y-10274D01*
X01720Y-10380D01*
X02318Y-10977D01*
X02320Y-10980D01*
X02425Y-11049D01*
X02426Y-11050D01*
X02429Y-11050D01*
X02550Y-11075D01*
X03950Y-11075D01*
X04071Y-11050D01*
X04074Y-11050D01*
X04180Y-10980D01*
X04680Y-10480D01*
X04750Y-10375D01*
X04750Y-10374D01*
X04750Y-10371D01*
X04775Y-10250D01*
X04775Y-09817D01*
X04895Y-09698D01*
X04950Y-09564D01*
X05005Y-09697D01*
X05125Y-09817D01*
X05125Y-11465D01*
X04515Y-12075D01*
X04346Y-12075D01*
X04153Y-12155D01*
X04005Y-12302D01*
X03925Y-12495D01*
X03925Y-12704D01*
X04005Y-12897D01*
X04125Y-13017D01*
X04125Y-14800D01*
X04150Y-14924D01*
X04220Y-15030D01*
X06475Y-17285D01*
X06475Y-17600D01*
X06500Y-17724D01*
X06570Y-17830D01*
X07465Y-18725D01*
X06784Y-18725D01*
X04628Y-16568D01*
X04708Y-16489D01*
X04799Y-16269D01*
X04799Y-16031D01*
X04708Y-15811D01*
X04539Y-15642D01*
X04319Y-15551D01*
X04081Y-15551D01*
X03861Y-15642D01*
X03692Y-15811D01*
X03601Y-16031D01*
X03601Y-16269D01*
X03692Y-16489D01*
X03861Y-16658D01*
X03889Y-16669D01*
X03900Y-16724D01*
X03970Y-16830D01*
X06418Y-19277D01*
X06420Y-19280D01*
X06525Y-19349D01*
X06526Y-19350D01*
X06624Y-19369D01*
X06649Y-19375D01*
X06649Y-19374D01*
X06650Y-19375D01*
X08065Y-19375D01*
X08505Y-19815D01*
X08409Y-19912D01*
X08409Y-19901D01*
X08371Y-19809D01*
X08301Y-19739D01*
X08210Y-19701D01*
X08111Y-19701D01*
X07491Y-19701D01*
X07399Y-19739D01*
X07329Y-19809D01*
X07291Y-19900D01*
X07291Y-19999D01*
X07291Y-20075D01*
X05685Y-20075D01*
X04525Y-18915D01*
X04525Y-18663D01*
X04539Y-18658D01*
X04708Y-18489D01*
X04799Y-18269D01*
X04799Y-18031D01*
X04708Y-17811D01*
X04539Y-17642D01*
X04319Y-17551D01*
X04081Y-17551D01*
X03861Y-17642D01*
X03692Y-17811D01*
X03601Y-18031D01*
X03601Y-18269D01*
X03692Y-18489D01*
X03861Y-18658D01*
X03875Y-18663D01*
X03875Y-19050D01*
X03885Y-19100D01*
X03829Y-19100D01*
X03899Y-19170D01*
X03900Y-19174D01*
X03970Y-19280D01*
X05320Y-20630D01*
X05425Y-20700D01*
X05426Y-20700D01*
X05429Y-20700D01*
X05550Y-20725D01*
X07291Y-20725D01*
X07291Y-20899D01*
X07329Y-20991D01*
X07399Y-21061D01*
X07490Y-21099D01*
X07589Y-21099D01*
X08209Y-21099D01*
X08301Y-21061D01*
X08312Y-21050D01*
X08350Y-21050D01*
X08350Y-21012D01*
X08371Y-20991D01*
X08409Y-20900D01*
X08409Y-20888D01*
X08539Y-21018D01*
X08741Y-21102D01*
X08959Y-21102D01*
X09161Y-21018D01*
X09315Y-20864D01*
X09350Y-20779D01*
X09385Y-20864D01*
X09525Y-21004D01*
X09525Y-21300D01*
X09550Y-21424D01*
X09620Y-21530D01*
X09818Y-21727D01*
X09820Y-21730D01*
X09925Y-21799D01*
X09926Y-21800D01*
X10024Y-21819D01*
X10049Y-21825D01*
X10049Y-21824D01*
X10050Y-21825D01*
X13550Y-21825D01*
X13671Y-21800D01*
X13674Y-21800D01*
X13780Y-21730D01*
X18780Y-16730D01*
X18850Y-16624D01*
X18875Y-16500D01*
X18875Y-22025D01*
X18850Y-22025D01*
X12050Y-22025D01*
X01969Y-22025D01*
X01969Y-12674D01*
X01958Y-12470D01*
X01902Y-12333D01*
X01811Y-12310D01*
X01740Y-12381D01*
X01740Y-12239D01*
X01717Y-12148D01*
X01524Y-12081D01*
X01400Y-12087D01*
X01400Y-09863D01*
X01400Y-09450D01*
X01400Y-09350D01*
X01400Y-08937D01*
X01400Y-06013D01*
X01400Y-05600D01*
X01400Y-05500D01*
X01400Y-05087D01*
X01338Y-05025D01*
X01126Y-05026D01*
X01034Y-05064D01*
X00964Y-05134D01*
X00926Y-05225D01*
X00926Y-05324D01*
X00925Y-05438D01*
X00987Y-05500D01*
X01400Y-05500D01*
X01400Y-05600D01*
X00987Y-05600D01*
X00925Y-05662D01*
X00926Y-05776D01*
X00926Y-05875D01*
X00964Y-05966D01*
X01034Y-06036D01*
X01126Y-06074D01*
X01338Y-06075D01*
X01400Y-06013D01*
X01400Y-08937D01*
X01338Y-08875D01*
X01126Y-08876D01*
X01034Y-08914D01*
X00964Y-08984D01*
X00926Y-09075D01*
X00926Y-09174D01*
X00925Y-09288D01*
X00987Y-09350D01*
X01400Y-09350D01*
X01400Y-09450D01*
X00987Y-09450D01*
X00925Y-09512D01*
X00926Y-09626D01*
X00926Y-09725D01*
X00964Y-09816D01*
X01034Y-09886D01*
X01126Y-09924D01*
X01338Y-09925D01*
X01400Y-09863D01*
X01400Y-12087D01*
X01320Y-12092D01*
X01183Y-12148D01*
X01160Y-12239D01*
X01450Y-12529D01*
X01740Y-12239D01*
X01740Y-12381D01*
X01521Y-12600D01*
X01811Y-12890D01*
X01902Y-12867D01*
X01969Y-12674D01*
X01969Y-22025D01*
X01740Y-22025D01*
X01740Y-12961D01*
X01450Y-12671D01*
X01379Y-12742D01*
X01379Y-12600D01*
X01089Y-12310D01*
X00998Y-12333D01*
X00931Y-12526D01*
X00942Y-12730D01*
X00998Y-12867D01*
X01089Y-12890D01*
X01379Y-12600D01*
X01379Y-12742D01*
X01160Y-12961D01*
X01183Y-13052D01*
X01376Y-13119D01*
X01580Y-13108D01*
X01717Y-13052D01*
X01740Y-12961D01*
X01740Y-22025D01*
X00675Y-22025D01*
X00675Y-00625D01*
X19125Y-00625D01*
X19125Y-03800D01*
X19125Y-22025D01*
G54D10*
G36*
X06171Y-01850D02*
X06100Y-01921D01*
X06029Y-01850D01*
X06100Y-01779D01*
X06171Y-01850D01*
X06171Y-01850D01*
G37*
G54D17*
X06171Y-01850D02*
X06100Y-01921D01*
X06029Y-01850D01*
X06100Y-01779D01*
X06171Y-01850D01*
G54D10*
G36*
X10723Y-07932D02*
X10674Y-07900D01*
X10550Y-07875D01*
X09500Y-07875D01*
X09610Y-07723D01*
X09660Y-07510D01*
X09660Y-07400D01*
X09660Y-07300D01*
X09660Y-07190D01*
X09610Y-06977D01*
X09482Y-06800D01*
X09296Y-06685D01*
X09237Y-06668D01*
X09150Y-06715D01*
X09150Y-07300D01*
X09660Y-07300D01*
X09660Y-07400D01*
X09200Y-07400D01*
X09150Y-07400D01*
X09050Y-07400D01*
X09050Y-07300D01*
X09050Y-07250D01*
X09050Y-06715D01*
X08963Y-06668D01*
X08904Y-06685D01*
X08718Y-06800D01*
X08598Y-06965D01*
X08565Y-06886D01*
X08411Y-06732D01*
X08209Y-06648D01*
X07991Y-06648D01*
X07789Y-06732D01*
X07635Y-06886D01*
X07600Y-06970D01*
X07565Y-06886D01*
X07411Y-06732D01*
X07209Y-06648D01*
X06991Y-06648D01*
X06789Y-06732D01*
X06659Y-06862D01*
X06659Y-06851D01*
X06621Y-06759D01*
X06551Y-06689D01*
X06460Y-06651D01*
X06361Y-06651D01*
X05741Y-06651D01*
X05649Y-06689D01*
X05579Y-06759D01*
X05541Y-06850D01*
X05541Y-06949D01*
X05541Y-07025D01*
X04200Y-07025D01*
X04076Y-07050D01*
X03970Y-07120D01*
X03968Y-07122D01*
X03220Y-07870D01*
X03150Y-07976D01*
X03125Y-08100D01*
X03125Y-08982D01*
X03005Y-09102D01*
X02969Y-09187D01*
X02969Y-05624D01*
X02958Y-05420D01*
X02902Y-05283D01*
X02811Y-05260D01*
X02521Y-05550D01*
X02811Y-05840D01*
X02902Y-05817D01*
X02969Y-05624D01*
X02969Y-09187D01*
X02946Y-09242D01*
X02902Y-09133D01*
X02811Y-09110D01*
X02521Y-09400D01*
X02811Y-09690D01*
X02902Y-09667D01*
X02943Y-09548D01*
X03005Y-09697D01*
X03152Y-09845D01*
X03345Y-09925D01*
X03554Y-09925D01*
X03747Y-09845D01*
X03895Y-09698D01*
X03950Y-09564D01*
X04005Y-09697D01*
X04125Y-09817D01*
X04125Y-10115D01*
X03815Y-10425D01*
X02684Y-10425D01*
X02275Y-10015D01*
X02275Y-09883D01*
X02376Y-09919D01*
X02580Y-09908D01*
X02717Y-09852D01*
X02740Y-09761D01*
X02485Y-09506D01*
X02450Y-09471D01*
X02379Y-09400D01*
X02450Y-09329D01*
X02485Y-09294D01*
X02740Y-09039D01*
X02717Y-08948D01*
X02524Y-08881D01*
X02320Y-08892D01*
X02275Y-08910D01*
X02275Y-06033D01*
X02376Y-06069D01*
X02580Y-06058D01*
X02717Y-06002D01*
X02740Y-05911D01*
X02485Y-05656D01*
X02450Y-05621D01*
X02379Y-05550D01*
X02450Y-05479D01*
X02485Y-05444D01*
X02740Y-05189D01*
X02717Y-05098D01*
X02524Y-05031D01*
X02320Y-05042D01*
X02275Y-05060D01*
X02275Y-03935D01*
X04533Y-01677D01*
X05615Y-01677D01*
X05581Y-01776D01*
X05592Y-01980D01*
X05610Y-02025D01*
X05600Y-02025D01*
X05475Y-02050D01*
X05370Y-02120D01*
X04720Y-02770D01*
X04650Y-02876D01*
X04625Y-03000D01*
X04625Y-04450D01*
X04650Y-04574D01*
X04720Y-04680D01*
X05318Y-05277D01*
X05320Y-05280D01*
X05425Y-05349D01*
X05426Y-05350D01*
X05550Y-05375D01*
X06450Y-05375D01*
X06574Y-05350D01*
X06680Y-05280D01*
X06789Y-05170D01*
X06800Y-05224D01*
X06870Y-05330D01*
X07618Y-06077D01*
X07620Y-06080D01*
X07725Y-06149D01*
X07726Y-06150D01*
X07850Y-06175D01*
X08965Y-06175D01*
X10723Y-07932D01*
X10723Y-07932D01*
G37*
G54D17*
X10723Y-07932D02*
X10674Y-07900D01*
X10550Y-07875D01*
X09500Y-07875D01*
X09610Y-07723D01*
X09660Y-07510D01*
X09660Y-07400D01*
X09660Y-07300D01*
X09660Y-07190D01*
X09610Y-06977D01*
X09482Y-06800D01*
X09296Y-06685D01*
X09237Y-06668D01*
X09150Y-06715D01*
X09150Y-07300D01*
X09660Y-07300D01*
X09660Y-07400D01*
X09200Y-07400D01*
X09150Y-07400D01*
X09050Y-07400D01*
X09050Y-07300D01*
X09050Y-07250D01*
X09050Y-06715D01*
X08963Y-06668D01*
X08904Y-06685D01*
X08718Y-06800D01*
X08598Y-06965D01*
X08565Y-06886D01*
X08411Y-06732D01*
X08209Y-06648D01*
X07991Y-06648D01*
X07789Y-06732D01*
X07635Y-06886D01*
X07600Y-06970D01*
X07565Y-06886D01*
X07411Y-06732D01*
X07209Y-06648D01*
X06991Y-06648D01*
X06789Y-06732D01*
X06659Y-06862D01*
X06659Y-06851D01*
X06621Y-06759D01*
X06551Y-06689D01*
X06460Y-06651D01*
X06361Y-06651D01*
X05741Y-06651D01*
X05649Y-06689D01*
X05579Y-06759D01*
X05541Y-06850D01*
X05541Y-06949D01*
X05541Y-07025D01*
X04200Y-07025D01*
X04076Y-07050D01*
X03970Y-07120D01*
X03968Y-07122D01*
X03220Y-07870D01*
X03150Y-07976D01*
X03125Y-08100D01*
X03125Y-08982D01*
X03005Y-09102D01*
X02969Y-09187D01*
X02969Y-05624D01*
X02958Y-05420D01*
X02902Y-05283D01*
X02811Y-05260D01*
X02521Y-05550D01*
X02811Y-05840D01*
X02902Y-05817D01*
X02969Y-05624D01*
X02969Y-09187D01*
X02946Y-09242D01*
X02902Y-09133D01*
X02811Y-09110D01*
X02521Y-09400D01*
X02811Y-09690D01*
X02902Y-09667D01*
X02943Y-09548D01*
X03005Y-09697D01*
X03152Y-09845D01*
X03345Y-09925D01*
X03554Y-09925D01*
X03747Y-09845D01*
X03895Y-09698D01*
X03950Y-09564D01*
X04005Y-09697D01*
X04125Y-09817D01*
X04125Y-10115D01*
X03815Y-10425D01*
X02684Y-10425D01*
X02275Y-10015D01*
X02275Y-09883D01*
X02376Y-09919D01*
X02580Y-09908D01*
X02717Y-09852D01*
X02740Y-09761D01*
X02485Y-09506D01*
X02450Y-09471D01*
X02379Y-09400D01*
X02450Y-09329D01*
X02485Y-09294D01*
X02740Y-09039D01*
X02717Y-08948D01*
X02524Y-08881D01*
X02320Y-08892D01*
X02275Y-08910D01*
X02275Y-06033D01*
X02376Y-06069D01*
X02580Y-06058D01*
X02717Y-06002D01*
X02740Y-05911D01*
X02485Y-05656D01*
X02450Y-05621D01*
X02379Y-05550D01*
X02450Y-05479D01*
X02485Y-05444D01*
X02740Y-05189D01*
X02717Y-05098D01*
X02524Y-05031D01*
X02320Y-05042D01*
X02275Y-05060D01*
X02275Y-03935D01*
X04533Y-01677D01*
X05615Y-01677D01*
X05581Y-01776D01*
X05592Y-01980D01*
X05610Y-02025D01*
X05600Y-02025D01*
X05475Y-02050D01*
X05370Y-02120D01*
X04720Y-02770D01*
X04650Y-02876D01*
X04625Y-03000D01*
X04625Y-04450D01*
X04650Y-04574D01*
X04720Y-04680D01*
X05318Y-05277D01*
X05320Y-05280D01*
X05425Y-05349D01*
X05426Y-05350D01*
X05550Y-05375D01*
X06450Y-05375D01*
X06574Y-05350D01*
X06680Y-05280D01*
X06789Y-05170D01*
X06800Y-05224D01*
X06870Y-05330D01*
X07618Y-06077D01*
X07620Y-06080D01*
X07725Y-06149D01*
X07726Y-06150D01*
X07850Y-06175D01*
X08965Y-06175D01*
X10723Y-07932D01*
G54D10*
G36*
X12525Y-15765D02*
X12110Y-16179D01*
X12110Y-13460D01*
X12110Y-13350D01*
X12110Y-13250D01*
X12110Y-13140D01*
X12060Y-12927D01*
X11932Y-12750D01*
X11746Y-12635D01*
X11687Y-12618D01*
X11600Y-12665D01*
X11600Y-13250D01*
X12110Y-13250D01*
X12110Y-13350D01*
X11600Y-13350D01*
X11600Y-13935D01*
X11687Y-13982D01*
X11746Y-13965D01*
X11932Y-13850D01*
X12060Y-13673D01*
X12110Y-13460D01*
X12110Y-16179D01*
X11326Y-16963D01*
X11315Y-16936D01*
X11161Y-16782D01*
X10959Y-16698D01*
X10741Y-16698D01*
X10539Y-16782D01*
X10385Y-16936D01*
X10350Y-17020D01*
X10315Y-16936D01*
X10175Y-16796D01*
X10175Y-16634D01*
X10277Y-16531D01*
X10279Y-16530D01*
X10280Y-16530D01*
X10349Y-16425D01*
X10350Y-16424D01*
X10369Y-16326D01*
X10375Y-16301D01*
X10374Y-16300D01*
X10375Y-16300D01*
X10375Y-15824D01*
X10874Y-15824D01*
X10966Y-15786D01*
X11036Y-15716D01*
X11074Y-15625D01*
X11074Y-15526D01*
X11074Y-14976D01*
X11036Y-14884D01*
X10966Y-14814D01*
X10875Y-14776D01*
X10875Y-13904D01*
X11015Y-13764D01*
X11048Y-13684D01*
X11168Y-13850D01*
X11354Y-13965D01*
X11413Y-13982D01*
X11500Y-13935D01*
X11500Y-13400D01*
X11500Y-13350D01*
X11500Y-13250D01*
X11500Y-13200D01*
X11500Y-12665D01*
X11413Y-12618D01*
X11354Y-12635D01*
X11168Y-12750D01*
X11048Y-12915D01*
X11015Y-12836D01*
X10861Y-12682D01*
X10659Y-12598D01*
X10441Y-12598D01*
X10239Y-12682D01*
X10085Y-12836D01*
X10051Y-12915D01*
X09932Y-12750D01*
X09746Y-12635D01*
X09687Y-12618D01*
X09600Y-12665D01*
X09600Y-13200D01*
X09600Y-13250D01*
X09600Y-13350D01*
X09600Y-13400D01*
X09600Y-13935D01*
X09687Y-13982D01*
X09746Y-13965D01*
X09932Y-13850D01*
X10051Y-13684D01*
X10085Y-13764D01*
X10225Y-13904D01*
X10225Y-14765D01*
X09730Y-14270D01*
X09624Y-14200D01*
X09500Y-14175D01*
X08735Y-14175D01*
X08560Y-14000D01*
X08650Y-14000D01*
X08650Y-13988D01*
X08662Y-14000D01*
X08909Y-13999D01*
X09001Y-13961D01*
X09071Y-13891D01*
X09109Y-13800D01*
X09109Y-13768D01*
X09168Y-13850D01*
X09354Y-13965D01*
X09413Y-13982D01*
X09500Y-13935D01*
X09500Y-13350D01*
X09500Y-13250D01*
X09500Y-12665D01*
X09413Y-12618D01*
X09354Y-12635D01*
X09168Y-12750D01*
X09109Y-12831D01*
X09109Y-12800D01*
X09071Y-12709D01*
X09001Y-12639D01*
X08909Y-12601D01*
X08662Y-12600D01*
X08600Y-12662D01*
X08600Y-13250D01*
X08990Y-13250D01*
X09048Y-13250D01*
X09500Y-13250D01*
X09500Y-13350D01*
X09048Y-13350D01*
X08990Y-13350D01*
X08650Y-13350D01*
X08600Y-13350D01*
X08500Y-13350D01*
X08450Y-13350D01*
X08052Y-13350D01*
X07990Y-13412D01*
X07990Y-13430D01*
X07925Y-13365D01*
X07925Y-12834D01*
X08013Y-12746D01*
X07991Y-12800D01*
X07991Y-12899D01*
X07990Y-13188D01*
X08052Y-13250D01*
X08500Y-13250D01*
X08500Y-12662D01*
X08438Y-12600D01*
X08191Y-12601D01*
X08136Y-12623D01*
X09277Y-11481D01*
X09279Y-11480D01*
X09280Y-11480D01*
X09349Y-11375D01*
X09350Y-11374D01*
X09375Y-11250D01*
X09375Y-10971D01*
X09413Y-10982D01*
X09500Y-10935D01*
X09500Y-10400D01*
X09500Y-10350D01*
X09500Y-10250D01*
X09600Y-10250D01*
X09600Y-10350D01*
X09600Y-10400D01*
X09600Y-10935D01*
X09687Y-10982D01*
X09746Y-10965D01*
X09932Y-10850D01*
X10051Y-10684D01*
X10085Y-10764D01*
X10239Y-10918D01*
X10441Y-11002D01*
X10659Y-11002D01*
X10861Y-10918D01*
X11015Y-10764D01*
X11050Y-10679D01*
X11085Y-10764D01*
X11239Y-10918D01*
X11441Y-11002D01*
X11659Y-11002D01*
X11753Y-10962D01*
X12525Y-11734D01*
X12525Y-15765D01*
X12525Y-15765D01*
G37*
G54D17*
X12525Y-15765D02*
X12110Y-16179D01*
X12110Y-13460D01*
X12110Y-13350D01*
X12110Y-13250D01*
X12110Y-13140D01*
X12060Y-12927D01*
X11932Y-12750D01*
X11746Y-12635D01*
X11687Y-12618D01*
X11600Y-12665D01*
X11600Y-13250D01*
X12110Y-13250D01*
X12110Y-13350D01*
X11600Y-13350D01*
X11600Y-13935D01*
X11687Y-13982D01*
X11746Y-13965D01*
X11932Y-13850D01*
X12060Y-13673D01*
X12110Y-13460D01*
X12110Y-16179D01*
X11326Y-16963D01*
X11315Y-16936D01*
X11161Y-16782D01*
X10959Y-16698D01*
X10741Y-16698D01*
X10539Y-16782D01*
X10385Y-16936D01*
X10350Y-17020D01*
X10315Y-16936D01*
X10175Y-16796D01*
X10175Y-16634D01*
X10277Y-16531D01*
X10279Y-16530D01*
X10280Y-16530D01*
X10349Y-16425D01*
X10350Y-16424D01*
X10369Y-16326D01*
X10375Y-16301D01*
X10374Y-16300D01*
X10375Y-16300D01*
X10375Y-15824D01*
X10874Y-15824D01*
X10966Y-15786D01*
X11036Y-15716D01*
X11074Y-15625D01*
X11074Y-15526D01*
X11074Y-14976D01*
X11036Y-14884D01*
X10966Y-14814D01*
X10875Y-14776D01*
X10875Y-13904D01*
X11015Y-13764D01*
X11048Y-13684D01*
X11168Y-13850D01*
X11354Y-13965D01*
X11413Y-13982D01*
X11500Y-13935D01*
X11500Y-13400D01*
X11500Y-13350D01*
X11500Y-13250D01*
X11500Y-13200D01*
X11500Y-12665D01*
X11413Y-12618D01*
X11354Y-12635D01*
X11168Y-12750D01*
X11048Y-12915D01*
X11015Y-12836D01*
X10861Y-12682D01*
X10659Y-12598D01*
X10441Y-12598D01*
X10239Y-12682D01*
X10085Y-12836D01*
X10051Y-12915D01*
X09932Y-12750D01*
X09746Y-12635D01*
X09687Y-12618D01*
X09600Y-12665D01*
X09600Y-13200D01*
X09600Y-13250D01*
X09600Y-13350D01*
X09600Y-13400D01*
X09600Y-13935D01*
X09687Y-13982D01*
X09746Y-13965D01*
X09932Y-13850D01*
X10051Y-13684D01*
X10085Y-13764D01*
X10225Y-13904D01*
X10225Y-14765D01*
X09730Y-14270D01*
X09624Y-14200D01*
X09500Y-14175D01*
X08735Y-14175D01*
X08560Y-14000D01*
X08650Y-14000D01*
X08650Y-13988D01*
X08662Y-14000D01*
X08909Y-13999D01*
X09001Y-13961D01*
X09071Y-13891D01*
X09109Y-13800D01*
X09109Y-13768D01*
X09168Y-13850D01*
X09354Y-13965D01*
X09413Y-13982D01*
X09500Y-13935D01*
X09500Y-13350D01*
X09500Y-13250D01*
X09500Y-12665D01*
X09413Y-12618D01*
X09354Y-12635D01*
X09168Y-12750D01*
X09109Y-12831D01*
X09109Y-12800D01*
X09071Y-12709D01*
X09001Y-12639D01*
X08909Y-12601D01*
X08662Y-12600D01*
X08600Y-12662D01*
X08600Y-13250D01*
X08990Y-13250D01*
X09048Y-13250D01*
X09500Y-13250D01*
X09500Y-13350D01*
X09048Y-13350D01*
X08990Y-13350D01*
X08650Y-13350D01*
X08600Y-13350D01*
X08500Y-13350D01*
X08450Y-13350D01*
X08052Y-13350D01*
X07990Y-13412D01*
X07990Y-13430D01*
X07925Y-13365D01*
X07925Y-12834D01*
X08013Y-12746D01*
X07991Y-12800D01*
X07991Y-12899D01*
X07990Y-13188D01*
X08052Y-13250D01*
X08500Y-13250D01*
X08500Y-12662D01*
X08438Y-12600D01*
X08191Y-12601D01*
X08136Y-12623D01*
X09277Y-11481D01*
X09279Y-11480D01*
X09280Y-11480D01*
X09349Y-11375D01*
X09350Y-11374D01*
X09375Y-11250D01*
X09375Y-10971D01*
X09413Y-10982D01*
X09500Y-10935D01*
X09500Y-10400D01*
X09500Y-10350D01*
X09500Y-10250D01*
X09600Y-10250D01*
X09600Y-10350D01*
X09600Y-10400D01*
X09600Y-10935D01*
X09687Y-10982D01*
X09746Y-10965D01*
X09932Y-10850D01*
X10051Y-10684D01*
X10085Y-10764D01*
X10239Y-10918D01*
X10441Y-11002D01*
X10659Y-11002D01*
X10861Y-10918D01*
X11015Y-10764D01*
X11050Y-10679D01*
X11085Y-10764D01*
X11239Y-10918D01*
X11441Y-11002D01*
X11659Y-11002D01*
X11753Y-10962D01*
X12525Y-11734D01*
X12525Y-15765D01*
G54D10*
G36*
X17875Y-16165D02*
X13315Y-20725D01*
X11371Y-20725D01*
X11410Y-20560D01*
X11410Y-20450D01*
X11410Y-20350D01*
X11410Y-20240D01*
X11360Y-20027D01*
X11232Y-19850D01*
X11046Y-19735D01*
X10987Y-19718D01*
X10900Y-19765D01*
X10900Y-20350D01*
X11410Y-20350D01*
X11410Y-20450D01*
X10950Y-20450D01*
X10900Y-20450D01*
X10800Y-20450D01*
X10800Y-20350D01*
X10800Y-20300D01*
X10800Y-19765D01*
X10713Y-19718D01*
X10675Y-19728D01*
X10675Y-19000D01*
X10650Y-18876D01*
X10650Y-18875D01*
X10580Y-18770D01*
X10175Y-18365D01*
X10175Y-18004D01*
X10315Y-17864D01*
X10350Y-17779D01*
X10385Y-17864D01*
X10539Y-18018D01*
X10741Y-18102D01*
X10959Y-18102D01*
X11161Y-18018D01*
X11315Y-17864D01*
X11374Y-17719D01*
X11474Y-17700D01*
X11580Y-17630D01*
X13080Y-16130D01*
X13150Y-16025D01*
X13150Y-16024D01*
X13175Y-15900D01*
X13175Y-12284D01*
X13568Y-12677D01*
X13570Y-12680D01*
X13675Y-12749D01*
X13676Y-12750D01*
X13800Y-12775D01*
X14032Y-12775D01*
X14152Y-12895D01*
X14345Y-12975D01*
X14554Y-12975D01*
X14747Y-12895D01*
X14895Y-12748D01*
X14953Y-12607D01*
X14998Y-12717D01*
X15089Y-12740D01*
X15379Y-12450D01*
X15089Y-12160D01*
X14998Y-12183D01*
X14956Y-12301D01*
X14895Y-12153D01*
X14748Y-12005D01*
X14555Y-11925D01*
X14346Y-11925D01*
X14153Y-12005D01*
X14032Y-12125D01*
X13934Y-12125D01*
X13725Y-11915D01*
X13725Y-10800D01*
X13719Y-10775D01*
X14032Y-10775D01*
X14152Y-10895D01*
X14345Y-10975D01*
X14554Y-10975D01*
X14747Y-10895D01*
X14895Y-10748D01*
X14953Y-10607D01*
X14998Y-10717D01*
X15089Y-10740D01*
X15379Y-10450D01*
X15089Y-10160D01*
X14998Y-10183D01*
X14956Y-10301D01*
X14895Y-10153D01*
X14748Y-10005D01*
X14555Y-09925D01*
X14346Y-09925D01*
X14153Y-10005D01*
X14032Y-10125D01*
X13735Y-10125D01*
X12480Y-08870D01*
X12374Y-08800D01*
X12250Y-08775D01*
X11800Y-08775D01*
X11584Y-08775D01*
X11028Y-08218D01*
X11075Y-08249D01*
X11076Y-08250D01*
X11174Y-08269D01*
X11199Y-08275D01*
X11199Y-08274D01*
X11200Y-08275D01*
X12015Y-08275D01*
X13120Y-09380D01*
X13226Y-09450D01*
X13350Y-09475D01*
X13800Y-09475D01*
X13924Y-09450D01*
X14030Y-09380D01*
X14385Y-09025D01*
X14554Y-09025D01*
X14747Y-08945D01*
X14895Y-08798D01*
X14953Y-08657D01*
X14998Y-08767D01*
X15089Y-08790D01*
X15379Y-08500D01*
X15089Y-08210D01*
X14998Y-08233D01*
X14956Y-08351D01*
X14895Y-08203D01*
X14775Y-08082D01*
X14775Y-08075D01*
X15176Y-08075D01*
X15160Y-08139D01*
X15415Y-08394D01*
X15450Y-08429D01*
X15521Y-08500D01*
X15450Y-08571D01*
X15415Y-08606D01*
X15160Y-08861D01*
X15183Y-08952D01*
X15376Y-09019D01*
X15580Y-09008D01*
X15625Y-08989D01*
X15625Y-09966D01*
X15524Y-09931D01*
X15320Y-09942D01*
X15183Y-09998D01*
X15160Y-10089D01*
X15415Y-10344D01*
X15450Y-10379D01*
X15521Y-10450D01*
X15450Y-10521D01*
X15415Y-10556D01*
X15160Y-10811D01*
X15183Y-10902D01*
X15376Y-10969D01*
X15580Y-10958D01*
X15625Y-10939D01*
X15625Y-11966D01*
X15524Y-11931D01*
X15320Y-11942D01*
X15183Y-11998D01*
X15160Y-12089D01*
X15415Y-12344D01*
X15450Y-12379D01*
X15521Y-12450D01*
X15450Y-12521D01*
X15415Y-12556D01*
X15160Y-12811D01*
X15183Y-12902D01*
X15376Y-12969D01*
X15580Y-12958D01*
X15625Y-12939D01*
X15625Y-13200D01*
X15650Y-13324D01*
X15720Y-13430D01*
X15826Y-13500D01*
X15950Y-13525D01*
X16900Y-13525D01*
X17024Y-13500D01*
X17130Y-13430D01*
X17327Y-13231D01*
X17329Y-13230D01*
X17330Y-13230D01*
X17399Y-13125D01*
X17400Y-13124D01*
X17419Y-13026D01*
X17425Y-13001D01*
X17424Y-13000D01*
X17425Y-13000D01*
X17425Y-07450D01*
X17424Y-07449D01*
X17425Y-07449D01*
X17419Y-07424D01*
X17400Y-07326D01*
X17399Y-07325D01*
X17330Y-07220D01*
X17327Y-07218D01*
X16969Y-06859D01*
X16969Y-05524D01*
X16958Y-05320D01*
X16902Y-05183D01*
X16811Y-05160D01*
X16740Y-05231D01*
X16740Y-05089D01*
X16717Y-04998D01*
X16524Y-04931D01*
X16320Y-04942D01*
X16183Y-04998D01*
X16160Y-05089D01*
X16450Y-05379D01*
X16740Y-05089D01*
X16740Y-05231D01*
X16521Y-05450D01*
X16811Y-05740D01*
X16902Y-05717D01*
X16969Y-05524D01*
X16969Y-06859D01*
X16740Y-06630D01*
X16740Y-05811D01*
X16450Y-05521D01*
X16379Y-05592D01*
X16379Y-05450D01*
X16089Y-05160D01*
X15998Y-05183D01*
X15931Y-05376D01*
X15942Y-05580D01*
X15998Y-05717D01*
X16089Y-05740D01*
X16379Y-05450D01*
X16379Y-05592D01*
X16160Y-05811D01*
X16183Y-05902D01*
X16376Y-05969D01*
X16580Y-05958D01*
X16717Y-05902D01*
X16740Y-05811D01*
X16740Y-06630D01*
X15825Y-05715D01*
X15825Y-03435D01*
X15935Y-03325D01*
X17065Y-03325D01*
X17875Y-04135D01*
X17875Y-16165D01*
X17875Y-16165D01*
G37*
G54D17*
X17875Y-16165D02*
X13315Y-20725D01*
X11371Y-20725D01*
X11410Y-20560D01*
X11410Y-20450D01*
X11410Y-20350D01*
X11410Y-20240D01*
X11360Y-20027D01*
X11232Y-19850D01*
X11046Y-19735D01*
X10987Y-19718D01*
X10900Y-19765D01*
X10900Y-20350D01*
X11410Y-20350D01*
X11410Y-20450D01*
X10950Y-20450D01*
X10900Y-20450D01*
X10800Y-20450D01*
X10800Y-20350D01*
X10800Y-20300D01*
X10800Y-19765D01*
X10713Y-19718D01*
X10675Y-19728D01*
X10675Y-19000D01*
X10650Y-18876D01*
X10650Y-18875D01*
X10580Y-18770D01*
X10175Y-18365D01*
X10175Y-18004D01*
X10315Y-17864D01*
X10350Y-17779D01*
X10385Y-17864D01*
X10539Y-18018D01*
X10741Y-18102D01*
X10959Y-18102D01*
X11161Y-18018D01*
X11315Y-17864D01*
X11374Y-17719D01*
X11474Y-17700D01*
X11580Y-17630D01*
X13080Y-16130D01*
X13150Y-16025D01*
X13150Y-16024D01*
X13175Y-15900D01*
X13175Y-12284D01*
X13568Y-12677D01*
X13570Y-12680D01*
X13675Y-12749D01*
X13676Y-12750D01*
X13800Y-12775D01*
X14032Y-12775D01*
X14152Y-12895D01*
X14345Y-12975D01*
X14554Y-12975D01*
X14747Y-12895D01*
X14895Y-12748D01*
X14953Y-12607D01*
X14998Y-12717D01*
X15089Y-12740D01*
X15379Y-12450D01*
X15089Y-12160D01*
X14998Y-12183D01*
X14956Y-12301D01*
X14895Y-12153D01*
X14748Y-12005D01*
X14555Y-11925D01*
X14346Y-11925D01*
X14153Y-12005D01*
X14032Y-12125D01*
X13934Y-12125D01*
X13725Y-11915D01*
X13725Y-10800D01*
X13719Y-10775D01*
X14032Y-10775D01*
X14152Y-10895D01*
X14345Y-10975D01*
X14554Y-10975D01*
X14747Y-10895D01*
X14895Y-10748D01*
X14953Y-10607D01*
X14998Y-10717D01*
X15089Y-10740D01*
X15379Y-10450D01*
X15089Y-10160D01*
X14998Y-10183D01*
X14956Y-10301D01*
X14895Y-10153D01*
X14748Y-10005D01*
X14555Y-09925D01*
X14346Y-09925D01*
X14153Y-10005D01*
X14032Y-10125D01*
X13735Y-10125D01*
X12480Y-08870D01*
X12374Y-08800D01*
X12250Y-08775D01*
X11800Y-08775D01*
X11584Y-08775D01*
X11028Y-08218D01*
X11075Y-08249D01*
X11076Y-08250D01*
X11174Y-08269D01*
X11199Y-08275D01*
X11199Y-08274D01*
X11200Y-08275D01*
X12015Y-08275D01*
X13120Y-09380D01*
X13226Y-09450D01*
X13350Y-09475D01*
X13800Y-09475D01*
X13924Y-09450D01*
X14030Y-09380D01*
X14385Y-09025D01*
X14554Y-09025D01*
X14747Y-08945D01*
X14895Y-08798D01*
X14953Y-08657D01*
X14998Y-08767D01*
X15089Y-08790D01*
X15379Y-08500D01*
X15089Y-08210D01*
X14998Y-08233D01*
X14956Y-08351D01*
X14895Y-08203D01*
X14775Y-08082D01*
X14775Y-08075D01*
X15176Y-08075D01*
X15160Y-08139D01*
X15415Y-08394D01*
X15450Y-08429D01*
X15521Y-08500D01*
X15450Y-08571D01*
X15415Y-08606D01*
X15160Y-08861D01*
X15183Y-08952D01*
X15376Y-09019D01*
X15580Y-09008D01*
X15625Y-08989D01*
X15625Y-09966D01*
X15524Y-09931D01*
X15320Y-09942D01*
X15183Y-09998D01*
X15160Y-10089D01*
X15415Y-10344D01*
X15450Y-10379D01*
X15521Y-10450D01*
X15450Y-10521D01*
X15415Y-10556D01*
X15160Y-10811D01*
X15183Y-10902D01*
X15376Y-10969D01*
X15580Y-10958D01*
X15625Y-10939D01*
X15625Y-11966D01*
X15524Y-11931D01*
X15320Y-11942D01*
X15183Y-11998D01*
X15160Y-12089D01*
X15415Y-12344D01*
X15450Y-12379D01*
X15521Y-12450D01*
X15450Y-12521D01*
X15415Y-12556D01*
X15160Y-12811D01*
X15183Y-12902D01*
X15376Y-12969D01*
X15580Y-12958D01*
X15625Y-12939D01*
X15625Y-13200D01*
X15650Y-13324D01*
X15720Y-13430D01*
X15826Y-13500D01*
X15950Y-13525D01*
X16900Y-13525D01*
X17024Y-13500D01*
X17130Y-13430D01*
X17327Y-13231D01*
X17329Y-13230D01*
X17330Y-13230D01*
X17399Y-13125D01*
X17400Y-13124D01*
X17419Y-13026D01*
X17425Y-13001D01*
X17424Y-13000D01*
X17425Y-13000D01*
X17425Y-07450D01*
X17424Y-07449D01*
X17425Y-07449D01*
X17419Y-07424D01*
X17400Y-07326D01*
X17399Y-07325D01*
X17330Y-07220D01*
X17327Y-07218D01*
X16969Y-06859D01*
X16969Y-05524D01*
X16958Y-05320D01*
X16902Y-05183D01*
X16811Y-05160D01*
X16740Y-05231D01*
X16740Y-05089D01*
X16717Y-04998D01*
X16524Y-04931D01*
X16320Y-04942D01*
X16183Y-04998D01*
X16160Y-05089D01*
X16450Y-05379D01*
X16740Y-05089D01*
X16740Y-05231D01*
X16521Y-05450D01*
X16811Y-05740D01*
X16902Y-05717D01*
X16969Y-05524D01*
X16969Y-06859D01*
X16740Y-06630D01*
X16740Y-05811D01*
X16450Y-05521D01*
X16379Y-05592D01*
X16379Y-05450D01*
X16089Y-05160D01*
X15998Y-05183D01*
X15931Y-05376D01*
X15942Y-05580D01*
X15998Y-05717D01*
X16089Y-05740D01*
X16379Y-05450D01*
X16379Y-05592D01*
X16160Y-05811D01*
X16183Y-05902D01*
X16376Y-05969D01*
X16580Y-05958D01*
X16717Y-05902D01*
X16740Y-05811D01*
X16740Y-06630D01*
X15825Y-05715D01*
X15825Y-03435D01*
X15935Y-03325D01*
X17065Y-03325D01*
X17875Y-04135D01*
X17875Y-16165D01*
M02*
