M48
;DRILL file {PCBnew (2011-05-25)-stable} date Sat 05 Jan 2013 10:07:00 PM EST
;FORMAT={-:-/ absolute / inch / decimal}
FMAT,2
INCH,TZ
T1C0.032
%
G90
G05
M72
T1
X0.145Y-0.555
X0.145Y-0.940
X0.145Y-1.260
X0.245Y-0.555
X0.245Y-0.940
X0.345Y-0.940
X0.420Y-1.615
X0.420Y-1.815
X0.445Y-0.940
X0.445Y-1.260
X0.545Y-0.940
X0.610Y-0.185
X0.610Y-0.285
X0.610Y-0.435
X0.610Y-0.735
X0.645Y-0.940
X0.710Y-0.435
X0.710Y-0.735
X0.785Y-1.740
X0.785Y-2.040
X0.810Y-0.435
X0.810Y-0.735
X0.855Y-1.030
X0.855Y-1.330
X0.885Y-1.740
X0.885Y-2.040
X0.910Y-0.435
X0.910Y-0.735
X0.955Y-1.030
X0.955Y-1.330
X0.955Y-1.530
X0.985Y-1.740
X0.985Y-2.040
X1.055Y-1.030
X1.055Y-1.330
X1.055Y-1.530
X1.075Y-0.145
X1.075Y-0.245
X1.085Y-1.740
X1.085Y-2.040
X1.130Y-0.440
X1.130Y-0.565
X1.155Y-1.030
X1.155Y-1.330
X1.175Y-0.245
X1.345Y-0.850
X1.380Y-0.245
X1.430Y-0.440
X1.430Y-0.565
X1.445Y-0.850
X1.445Y-1.045
X1.445Y-1.245
X1.480Y-0.245
X1.545Y-0.850
X1.545Y-1.045
X1.545Y-1.245
X1.645Y-0.245
X1.645Y-0.545
X1.645Y-0.850
X1.645Y-1.045
X1.645Y-1.245
T0
M30
