G04 (created by PCBNEW-RS274X (2011-05-25)-stable) date Fri 22 Feb 2013 06:20:34 AM EST*
G01*
G70*
G90*
%MOIN*%
G04 Gerber Fmt 3.4, Leading zero omitted, Abs format*
%FSLAX34Y34*%
G04 APERTURE LIST*
%ADD10C,0.006000*%
%ADD11C,0.015000*%
%ADD12C,0.065000*%
%ADD13O,0.059300X0.118700*%
%ADD14C,0.160000*%
%ADD15C,0.010000*%
G04 APERTURE END LIST*
G54D10*
G54D11*
X09120Y-00260D02*
X09120Y-00440D01*
X01340Y-00260D02*
X09120Y-00260D01*
X09120Y-08540D02*
X09120Y-00340D01*
X00280Y-08540D02*
X09120Y-08540D01*
X00280Y-08540D02*
X00280Y-08120D01*
X00280Y-00260D02*
X00280Y-00880D01*
X01320Y-00260D02*
X00280Y-00260D01*
X00280Y-08460D02*
X00280Y-00320D01*
G54D12*
X06040Y-07460D03*
X06040Y-04460D03*
G54D13*
X02920Y-05600D03*
X03920Y-05600D03*
X04920Y-05600D03*
G54D14*
X01360Y-01360D03*
X08000Y-01360D03*
X01360Y-07380D03*
X08000Y-07380D03*
G54D13*
X03040Y-02480D03*
X06040Y-02480D03*
X05040Y-02480D03*
X04040Y-02480D03*
G54D11*
X04920Y-05600D02*
X05220Y-05600D01*
X06040Y-06420D02*
X06040Y-07460D01*
X05220Y-05600D02*
X06040Y-06420D01*
X04920Y-05600D02*
X04920Y-02600D01*
X04920Y-02600D02*
X05040Y-02480D01*
X03040Y-02480D02*
X03040Y-03380D01*
X03920Y-04260D02*
X03920Y-05600D01*
X03040Y-03380D02*
X03920Y-04260D01*
X02920Y-05600D02*
X02920Y-06400D01*
X06040Y-05140D02*
X06040Y-04460D01*
X06740Y-05840D02*
X06040Y-05140D01*
X06740Y-07860D02*
X06740Y-05840D01*
X06420Y-08180D02*
X06740Y-07860D01*
X05440Y-08180D02*
X06420Y-08180D01*
X04320Y-07060D02*
X05440Y-08180D01*
X03580Y-07060D02*
X04320Y-07060D01*
X02920Y-06400D02*
X03580Y-07060D01*
X06040Y-02480D02*
X06040Y-04460D01*
G54D10*
G36*
X08795Y-06190D02*
X07315Y-06190D01*
X07065Y-06514D01*
X07065Y-05840D01*
X07064Y-05839D01*
X07065Y-05839D01*
X07059Y-05814D01*
X07040Y-05716D01*
X07039Y-05715D01*
X06970Y-05610D01*
X06967Y-05608D01*
X06365Y-05005D01*
X06365Y-04948D01*
X06527Y-04786D01*
X06615Y-04575D01*
X06615Y-04346D01*
X06528Y-04135D01*
X06366Y-03973D01*
X06365Y-03972D01*
X06365Y-03226D01*
X06494Y-03097D01*
X06576Y-02900D01*
X06576Y-02687D01*
X06576Y-02061D01*
X06495Y-01864D01*
X06344Y-01713D01*
X06147Y-01631D01*
X05934Y-01631D01*
X05737Y-01712D01*
X05586Y-01863D01*
X05540Y-01973D01*
X05495Y-01864D01*
X05344Y-01713D01*
X05147Y-01631D01*
X04934Y-01631D01*
X04737Y-01712D01*
X04586Y-01863D01*
X04540Y-01973D01*
X04495Y-01864D01*
X04344Y-01713D01*
X04147Y-01631D01*
X03934Y-01631D01*
X03737Y-01712D01*
X03586Y-01863D01*
X03541Y-01970D01*
X03507Y-01884D01*
X03357Y-01728D01*
X03174Y-01655D01*
X03090Y-01702D01*
X03090Y-02380D01*
X03090Y-02430D01*
X03090Y-02530D01*
X03090Y-02580D01*
X03090Y-03258D01*
X03174Y-03305D01*
X03357Y-03232D01*
X03507Y-03076D01*
X03541Y-02989D01*
X03585Y-03096D01*
X03736Y-03247D01*
X03933Y-03329D01*
X04146Y-03329D01*
X04343Y-03248D01*
X04494Y-03097D01*
X04539Y-02986D01*
X04585Y-03096D01*
X04595Y-03106D01*
X04595Y-04854D01*
X04466Y-04983D01*
X04421Y-05090D01*
X04387Y-05004D01*
X04237Y-04848D01*
X04054Y-04775D01*
X03970Y-04822D01*
X03970Y-05500D01*
X03970Y-05550D01*
X03970Y-05650D01*
X03970Y-05700D01*
X03970Y-06378D01*
X04054Y-06425D01*
X04237Y-06352D01*
X04387Y-06196D01*
X04421Y-06109D01*
X04465Y-06216D01*
X04616Y-06367D01*
X04813Y-06449D01*
X05026Y-06449D01*
X05223Y-06368D01*
X05374Y-06217D01*
X05375Y-06214D01*
X05715Y-06554D01*
X05715Y-06972D01*
X05553Y-07134D01*
X05465Y-07345D01*
X05465Y-07574D01*
X05552Y-07785D01*
X05622Y-07855D01*
X05574Y-07855D01*
X04550Y-06830D01*
X04444Y-06760D01*
X04320Y-06735D01*
X03715Y-06735D01*
X03285Y-06305D01*
X03374Y-06217D01*
X03418Y-06109D01*
X03453Y-06196D01*
X03603Y-06352D01*
X03786Y-06425D01*
X03870Y-06378D01*
X03870Y-05700D01*
X03870Y-05650D01*
X03870Y-05550D01*
X03870Y-05500D01*
X03870Y-04822D01*
X03786Y-04775D01*
X03603Y-04848D01*
X03453Y-05004D01*
X03418Y-05090D01*
X03375Y-04984D01*
X03224Y-04833D01*
X03027Y-04751D01*
X02990Y-04751D01*
X02990Y-03258D01*
X02990Y-02530D01*
X02494Y-02530D01*
X02494Y-02875D01*
X02573Y-03076D01*
X02723Y-03232D01*
X02906Y-03305D01*
X02990Y-03258D01*
X02990Y-04751D01*
X02814Y-04751D01*
X02617Y-04832D01*
X02466Y-04983D01*
X02384Y-05180D01*
X02384Y-05393D01*
X02384Y-06019D01*
X02465Y-06216D01*
X02595Y-06346D01*
X02595Y-06400D01*
X02620Y-06524D01*
X02690Y-06630D01*
X03350Y-07290D01*
X03455Y-07360D01*
X03456Y-07360D01*
X03580Y-07385D01*
X04185Y-07385D01*
X05015Y-08215D01*
X02450Y-08215D01*
X02450Y-06733D01*
X01655Y-06210D01*
X00605Y-06210D01*
X00605Y-02530D01*
X02248Y-02530D01*
X02494Y-02129D01*
X02494Y-02430D01*
X02990Y-02430D01*
X02990Y-01702D01*
X02906Y-01655D01*
X02745Y-01718D01*
X02810Y-01614D01*
X02810Y-00585D01*
X06730Y-00585D01*
X06730Y-01901D01*
X07560Y-02710D01*
X08795Y-02710D01*
X08795Y-06190D01*
X08795Y-06190D01*
G37*
G54D15*
X08795Y-06190D02*
X07315Y-06190D01*
X07065Y-06514D01*
X07065Y-05840D01*
X07064Y-05839D01*
X07065Y-05839D01*
X07059Y-05814D01*
X07040Y-05716D01*
X07039Y-05715D01*
X06970Y-05610D01*
X06967Y-05608D01*
X06365Y-05005D01*
X06365Y-04948D01*
X06527Y-04786D01*
X06615Y-04575D01*
X06615Y-04346D01*
X06528Y-04135D01*
X06366Y-03973D01*
X06365Y-03972D01*
X06365Y-03226D01*
X06494Y-03097D01*
X06576Y-02900D01*
X06576Y-02687D01*
X06576Y-02061D01*
X06495Y-01864D01*
X06344Y-01713D01*
X06147Y-01631D01*
X05934Y-01631D01*
X05737Y-01712D01*
X05586Y-01863D01*
X05540Y-01973D01*
X05495Y-01864D01*
X05344Y-01713D01*
X05147Y-01631D01*
X04934Y-01631D01*
X04737Y-01712D01*
X04586Y-01863D01*
X04540Y-01973D01*
X04495Y-01864D01*
X04344Y-01713D01*
X04147Y-01631D01*
X03934Y-01631D01*
X03737Y-01712D01*
X03586Y-01863D01*
X03541Y-01970D01*
X03507Y-01884D01*
X03357Y-01728D01*
X03174Y-01655D01*
X03090Y-01702D01*
X03090Y-02380D01*
X03090Y-02430D01*
X03090Y-02530D01*
X03090Y-02580D01*
X03090Y-03258D01*
X03174Y-03305D01*
X03357Y-03232D01*
X03507Y-03076D01*
X03541Y-02989D01*
X03585Y-03096D01*
X03736Y-03247D01*
X03933Y-03329D01*
X04146Y-03329D01*
X04343Y-03248D01*
X04494Y-03097D01*
X04539Y-02986D01*
X04585Y-03096D01*
X04595Y-03106D01*
X04595Y-04854D01*
X04466Y-04983D01*
X04421Y-05090D01*
X04387Y-05004D01*
X04237Y-04848D01*
X04054Y-04775D01*
X03970Y-04822D01*
X03970Y-05500D01*
X03970Y-05550D01*
X03970Y-05650D01*
X03970Y-05700D01*
X03970Y-06378D01*
X04054Y-06425D01*
X04237Y-06352D01*
X04387Y-06196D01*
X04421Y-06109D01*
X04465Y-06216D01*
X04616Y-06367D01*
X04813Y-06449D01*
X05026Y-06449D01*
X05223Y-06368D01*
X05374Y-06217D01*
X05375Y-06214D01*
X05715Y-06554D01*
X05715Y-06972D01*
X05553Y-07134D01*
X05465Y-07345D01*
X05465Y-07574D01*
X05552Y-07785D01*
X05622Y-07855D01*
X05574Y-07855D01*
X04550Y-06830D01*
X04444Y-06760D01*
X04320Y-06735D01*
X03715Y-06735D01*
X03285Y-06305D01*
X03374Y-06217D01*
X03418Y-06109D01*
X03453Y-06196D01*
X03603Y-06352D01*
X03786Y-06425D01*
X03870Y-06378D01*
X03870Y-05700D01*
X03870Y-05650D01*
X03870Y-05550D01*
X03870Y-05500D01*
X03870Y-04822D01*
X03786Y-04775D01*
X03603Y-04848D01*
X03453Y-05004D01*
X03418Y-05090D01*
X03375Y-04984D01*
X03224Y-04833D01*
X03027Y-04751D01*
X02990Y-04751D01*
X02990Y-03258D01*
X02990Y-02530D01*
X02494Y-02530D01*
X02494Y-02875D01*
X02573Y-03076D01*
X02723Y-03232D01*
X02906Y-03305D01*
X02990Y-03258D01*
X02990Y-04751D01*
X02814Y-04751D01*
X02617Y-04832D01*
X02466Y-04983D01*
X02384Y-05180D01*
X02384Y-05393D01*
X02384Y-06019D01*
X02465Y-06216D01*
X02595Y-06346D01*
X02595Y-06400D01*
X02620Y-06524D01*
X02690Y-06630D01*
X03350Y-07290D01*
X03455Y-07360D01*
X03456Y-07360D01*
X03580Y-07385D01*
X04185Y-07385D01*
X05015Y-08215D01*
X02450Y-08215D01*
X02450Y-06733D01*
X01655Y-06210D01*
X00605Y-06210D01*
X00605Y-02530D01*
X02248Y-02530D01*
X02494Y-02129D01*
X02494Y-02430D01*
X02990Y-02430D01*
X02990Y-01702D01*
X02906Y-01655D01*
X02745Y-01718D01*
X02810Y-01614D01*
X02810Y-00585D01*
X06730Y-00585D01*
X06730Y-01901D01*
X07560Y-02710D01*
X08795Y-02710D01*
X08795Y-06190D01*
M02*
