G04 (created by PCBNEW-RS274X (2011-05-25)-stable) date Fri 22 Feb 2013 06:20:34 AM EST*
G01*
G70*
G90*
%MOIN*%
G04 Gerber Fmt 3.4, Leading zero omitted, Abs format*
%FSLAX34Y34*%
G04 APERTURE LIST*
%ADD10C,0.006000*%
%ADD11C,0.015000*%
%ADD12C,0.012000*%
%ADD13C,0.010000*%
%ADD14C,0.008000*%
%ADD15C,0.003500*%
G04 APERTURE END LIST*
G54D10*
G54D11*
X09120Y-00260D02*
X09120Y-00440D01*
X01340Y-00260D02*
X09120Y-00260D01*
X09120Y-08540D02*
X09120Y-00340D01*
X00280Y-08540D02*
X09120Y-08540D01*
X00280Y-08540D02*
X00280Y-08120D01*
X00280Y-00260D02*
X00280Y-00880D01*
X01320Y-00260D02*
X00280Y-00260D01*
X00280Y-08460D02*
X00280Y-00320D01*
G54D12*
X06040Y-07460D02*
X06040Y-07260D01*
X06040Y-04460D02*
X06040Y-04660D01*
X06040Y-04660D02*
X05640Y-04660D01*
X05640Y-04660D02*
X05640Y-07260D01*
X05640Y-07260D02*
X06440Y-07260D01*
X06440Y-07260D02*
X06440Y-04660D01*
X06440Y-04660D02*
X06040Y-04660D01*
X05840Y-07260D02*
X05640Y-07060D01*
G54D13*
X02420Y-04350D02*
X02420Y-06850D01*
X05420Y-04350D02*
X05420Y-06850D01*
X05420Y-05100D02*
X02420Y-05100D01*
X02420Y-04350D02*
X05420Y-04350D01*
X05420Y-06850D02*
X02420Y-06850D01*
G54D11*
X02260Y-01360D02*
X02242Y-01534D01*
X02192Y-01702D01*
X02109Y-01858D01*
X01998Y-01994D01*
X01863Y-02106D01*
X01708Y-02189D01*
X01540Y-02241D01*
X01366Y-02259D01*
X01192Y-02244D01*
X01023Y-02194D01*
X00868Y-02113D01*
X00731Y-02003D01*
X00618Y-01868D01*
X00533Y-01714D01*
X00480Y-01547D01*
X00461Y-01372D01*
X00475Y-01198D01*
X00524Y-01029D01*
X00604Y-00873D01*
X00713Y-00735D01*
X00847Y-00621D01*
X01000Y-00536D01*
X01167Y-00481D01*
X01342Y-00461D01*
X01516Y-00474D01*
X01685Y-00521D01*
X01842Y-00601D01*
X01980Y-00709D01*
X02095Y-00842D01*
X02182Y-00994D01*
X02237Y-01161D01*
X02259Y-01335D01*
X02260Y-01360D01*
X08900Y-01360D02*
X08882Y-01534D01*
X08832Y-01702D01*
X08749Y-01858D01*
X08638Y-01994D01*
X08503Y-02106D01*
X08348Y-02189D01*
X08180Y-02241D01*
X08006Y-02259D01*
X07832Y-02244D01*
X07663Y-02194D01*
X07508Y-02113D01*
X07371Y-02003D01*
X07258Y-01868D01*
X07173Y-01714D01*
X07120Y-01547D01*
X07101Y-01372D01*
X07115Y-01198D01*
X07164Y-01029D01*
X07244Y-00873D01*
X07353Y-00735D01*
X07487Y-00621D01*
X07640Y-00536D01*
X07807Y-00481D01*
X07982Y-00461D01*
X08156Y-00474D01*
X08325Y-00521D01*
X08482Y-00601D01*
X08620Y-00709D01*
X08735Y-00842D01*
X08822Y-00994D01*
X08877Y-01161D01*
X08899Y-01335D01*
X08900Y-01360D01*
X02260Y-07380D02*
X02242Y-07554D01*
X02192Y-07722D01*
X02109Y-07878D01*
X01998Y-08014D01*
X01863Y-08126D01*
X01708Y-08209D01*
X01540Y-08261D01*
X01366Y-08279D01*
X01192Y-08264D01*
X01023Y-08214D01*
X00868Y-08133D01*
X00731Y-08023D01*
X00618Y-07888D01*
X00533Y-07734D01*
X00480Y-07567D01*
X00461Y-07392D01*
X00475Y-07218D01*
X00524Y-07049D01*
X00604Y-06893D01*
X00713Y-06755D01*
X00847Y-06641D01*
X01000Y-06556D01*
X01167Y-06501D01*
X01342Y-06481D01*
X01516Y-06494D01*
X01685Y-06541D01*
X01842Y-06621D01*
X01980Y-06729D01*
X02095Y-06862D01*
X02182Y-07014D01*
X02237Y-07181D01*
X02259Y-07355D01*
X02260Y-07380D01*
X08900Y-07380D02*
X08882Y-07554D01*
X08832Y-07722D01*
X08749Y-07878D01*
X08638Y-08014D01*
X08503Y-08126D01*
X08348Y-08209D01*
X08180Y-08261D01*
X08006Y-08279D01*
X07832Y-08264D01*
X07663Y-08214D01*
X07508Y-08133D01*
X07371Y-08023D01*
X07258Y-07888D01*
X07173Y-07734D01*
X07120Y-07567D01*
X07101Y-07392D01*
X07115Y-07218D01*
X07164Y-07049D01*
X07244Y-06893D01*
X07353Y-06755D01*
X07487Y-06641D01*
X07640Y-06556D01*
X07807Y-06501D01*
X07982Y-06481D01*
X08156Y-06494D01*
X08325Y-06541D01*
X08482Y-06621D01*
X08620Y-06729D01*
X08735Y-06862D01*
X08822Y-07014D01*
X08877Y-07181D01*
X08899Y-07355D01*
X08900Y-07380D01*
G54D13*
X03040Y-01230D02*
X02540Y-01230D01*
X06040Y-01230D02*
X06540Y-01230D01*
X05990Y-02930D02*
X06540Y-02930D01*
X02990Y-02930D02*
X02540Y-02930D01*
X03040Y-03730D02*
X02540Y-03730D01*
X06040Y-03730D02*
X06540Y-03730D01*
X06540Y-03730D02*
X06540Y-01230D01*
X02540Y-03730D02*
X02540Y-01230D01*
X02990Y-02930D02*
X05990Y-02930D01*
X06040Y-03730D02*
X03040Y-03730D01*
X03040Y-01230D02*
X06040Y-01230D01*
G54D14*
X06263Y-06043D02*
X06001Y-06210D01*
X06263Y-06329D02*
X05713Y-06329D01*
X05713Y-06138D01*
X05739Y-06091D01*
X05765Y-06067D01*
X05817Y-06043D01*
X05896Y-06043D01*
X05948Y-06067D01*
X05975Y-06091D01*
X06001Y-06138D01*
X06001Y-06329D01*
X06263Y-05567D02*
X06263Y-05853D01*
X06263Y-05710D02*
X05713Y-05710D01*
X05791Y-05758D01*
X05844Y-05805D01*
X05870Y-05853D01*
G54D15*
X02375Y-04262D02*
X02375Y-03862D01*
X02604Y-04262D02*
X02432Y-04033D01*
X02604Y-03862D02*
X02375Y-04090D01*
X02985Y-04262D02*
X02756Y-04262D01*
X02870Y-04262D02*
X02870Y-03862D01*
X02832Y-03919D01*
X02794Y-03957D01*
X02756Y-03976D01*
X03073Y-07224D02*
X03054Y-07243D01*
X02997Y-07262D01*
X02959Y-07262D01*
X02901Y-07243D01*
X02863Y-07205D01*
X02844Y-07167D01*
X02825Y-07090D01*
X02825Y-07033D01*
X02844Y-06957D01*
X02863Y-06919D01*
X02901Y-06881D01*
X02959Y-06862D01*
X02997Y-06862D01*
X03054Y-06881D01*
X03073Y-06900D01*
X03320Y-06862D02*
X03397Y-06862D01*
X03435Y-06881D01*
X03473Y-06919D01*
X03492Y-06995D01*
X03492Y-07129D01*
X03473Y-07205D01*
X03435Y-07243D01*
X03397Y-07262D01*
X03320Y-07262D01*
X03282Y-07243D01*
X03244Y-07205D01*
X03225Y-07129D01*
X03225Y-06995D01*
X03244Y-06919D01*
X03282Y-06881D01*
X03320Y-06862D01*
X03663Y-07262D02*
X03663Y-06862D01*
X03892Y-07262D01*
X03892Y-06862D01*
X04082Y-07262D02*
X04082Y-06862D01*
X04311Y-07262D01*
X04311Y-06862D01*
X04406Y-07300D02*
X04711Y-07300D01*
X04768Y-06862D02*
X05016Y-06862D01*
X04882Y-07014D01*
X04940Y-07014D01*
X04978Y-07033D01*
X04997Y-07052D01*
X05016Y-07090D01*
X05016Y-07186D01*
X04997Y-07224D01*
X04978Y-07243D01*
X04940Y-07262D01*
X04825Y-07262D01*
X04787Y-07243D01*
X04768Y-07224D01*
G54D13*
X01065Y-00322D02*
X01065Y00078D01*
X01218Y00078D01*
X01256Y00059D01*
X01275Y00040D01*
X01294Y00002D01*
X01294Y-00055D01*
X01275Y-00093D01*
X01256Y-00112D01*
X01218Y-00131D01*
X01065Y-00131D01*
X01446Y00040D02*
X01465Y00059D01*
X01503Y00078D01*
X01599Y00078D01*
X01637Y00059D01*
X01656Y00040D01*
X01675Y00002D01*
X01675Y-00036D01*
X01656Y-00093D01*
X01427Y-00322D01*
X01675Y-00322D01*
X08305Y-00322D02*
X08305Y00078D01*
X08458Y00078D01*
X08496Y00059D01*
X08515Y00040D01*
X08534Y00002D01*
X08534Y-00055D01*
X08515Y-00093D01*
X08496Y-00112D01*
X08458Y-00131D01*
X08305Y-00131D01*
X08667Y00078D02*
X08915Y00078D01*
X08781Y-00074D01*
X08839Y-00074D01*
X08877Y-00093D01*
X08896Y-00112D01*
X08915Y-00150D01*
X08915Y-00246D01*
X08896Y-00284D01*
X08877Y-00303D01*
X08839Y-00322D01*
X08724Y-00322D01*
X08686Y-00303D01*
X08667Y-00284D01*
X01065Y-06342D02*
X01065Y-05942D01*
X01218Y-05942D01*
X01256Y-05961D01*
X01275Y-05980D01*
X01294Y-06018D01*
X01294Y-06075D01*
X01275Y-06113D01*
X01256Y-06132D01*
X01218Y-06151D01*
X01065Y-06151D01*
X01637Y-06075D02*
X01637Y-06342D01*
X01541Y-05923D02*
X01446Y-06209D01*
X01694Y-06209D01*
X08305Y-06342D02*
X08305Y-05942D01*
X08458Y-05942D01*
X08496Y-05961D01*
X08515Y-05980D01*
X08534Y-06018D01*
X08534Y-06075D01*
X08515Y-06113D01*
X08496Y-06132D01*
X08458Y-06151D01*
X08305Y-06151D01*
X08896Y-05942D02*
X08705Y-05942D01*
X08686Y-06132D01*
X08705Y-06113D01*
X08743Y-06094D01*
X08839Y-06094D01*
X08877Y-06113D01*
X08896Y-06132D01*
X08915Y-06170D01*
X08915Y-06266D01*
X08896Y-06304D01*
X08877Y-06323D01*
X08839Y-06342D01*
X08743Y-06342D01*
X08705Y-06323D01*
X08686Y-06304D01*
G54D15*
X04245Y-04192D02*
X04245Y-03792D01*
X04398Y-03792D01*
X04436Y-03811D01*
X04455Y-03830D01*
X04474Y-03868D01*
X04474Y-03925D01*
X04455Y-03963D01*
X04436Y-03982D01*
X04398Y-04001D01*
X04245Y-04001D01*
X04855Y-04192D02*
X04626Y-04192D01*
X04740Y-04192D02*
X04740Y-03792D01*
X04702Y-03849D01*
X04664Y-03887D01*
X04626Y-03906D01*
X03692Y-01142D02*
X03692Y-00742D01*
X03787Y-00742D01*
X03845Y-00761D01*
X03883Y-00799D01*
X03902Y-00837D01*
X03921Y-00913D01*
X03921Y-00970D01*
X03902Y-01047D01*
X03883Y-01085D01*
X03845Y-01123D01*
X03787Y-01142D01*
X03692Y-01142D01*
X04092Y-01142D02*
X04092Y-00742D01*
X04092Y-00932D02*
X04321Y-00932D01*
X04321Y-01142D02*
X04321Y-00742D01*
X04454Y-00742D02*
X04683Y-00742D01*
X04568Y-01142D02*
X04568Y-00742D01*
X04797Y-00780D02*
X04816Y-00761D01*
X04854Y-00742D01*
X04950Y-00742D01*
X04988Y-00761D01*
X05007Y-00780D01*
X05026Y-00818D01*
X05026Y-00856D01*
X05007Y-00913D01*
X04778Y-01142D01*
X05026Y-01142D01*
X05178Y-00780D02*
X05197Y-00761D01*
X05235Y-00742D01*
X05331Y-00742D01*
X05369Y-00761D01*
X05388Y-00780D01*
X05407Y-00818D01*
X05407Y-00856D01*
X05388Y-00913D01*
X05159Y-01142D01*
X05407Y-01142D01*
M02*
